<svg width="1101" height="509" xmlns="http://www.w3.org/2000/svg">
 <defs>
  <linearGradient y2="0.067123" x2="1.06352" y1="0.844154" x1="0.166962" id="paint0_linear">
   <stop stop-opacity="0.6" stop-color="#663A57"/>
   <stop stop-opacity="0.6" stop-color="#956684" offset="1"/>
  </linearGradient>
  <linearGradient y2="-246.352842" x2="713.16915" y1="567.129738" x1="300.63013" id="paint1_linear">
   <stop stop-opacity="0.6" stop-color="#663A57"/>
   <stop stop-opacity="0.6" stop-color="#956684" offset="1"/>
  </linearGradient>
  <linearGradient y2="343.120271" x2="988.128869" y1="343.120271" x1="1258.299707" id="paint2_linear">
   <stop stop-opacity="0.6" stop-color="#663A57"/>
   <stop stop-opacity="0.6" stop-color="#956684" offset="1"/>
  </linearGradient>
  <linearGradient y2="-90.814904" x2="1585.883454" y1="417.129873" x1="1129.657571" id="paint3_linear">
   <stop stop-opacity="0.6" stop-color="#663A57"/>
   <stop stop-opacity="0.6" stop-color="#956684" offset="1"/>
  </linearGradient>
  <linearGradient y2="0.500066" x2="0.000024" y1="0.500066" x1="0.999954" id="paint4_linear">
   <stop stop-color="#663A57"/>
   <stop stop-color="#956684" offset="1"/>
  </linearGradient>
  <linearGradient y2="335.271675" x2="239.976123" y1="490.70968" x1="74.309785" id="paint5_linear">
   <stop stop-opacity="0.6" stop-color="#663A57"/>
   <stop stop-opacity="0.6" stop-color="#956684" offset="1"/>
  </linearGradient>
  <linearGradient y2="277.34917" x2="253.719757" y1="277.34917" x1="30.839976" id="paint6_linear">
   <stop stop-opacity="0.6" stop-color="#663A57"/>
   <stop stop-opacity="0.6" stop-color="#956684" offset="1"/>
  </linearGradient>
  <linearGradient y2="0.966036" x2="-0.201048" y1="-0.202939" x1="1.446233" id="paint7_linear">
   <stop stop-color="#F18434"/>
   <stop stop-color="#BC5817" offset="1"/>
  </linearGradient>
  <linearGradient y2="181.254331" x2="318.630175" y1="101.409884" x1="388.320656" id="paint8_linear">
   <stop stop-color="#F18434"/>
   <stop stop-color="#BC5817" offset="1"/>
  </linearGradient>
  <linearGradient y2="0.500107" x2="1" y1="0.500107" x1="0" id="paint9_linear">
   <stop stop-color="#663A57"/>
   <stop stop-color="#39122E" offset="1"/>
  </linearGradient>
  <linearGradient y2="142.253159" x2="418.279978" y1="121.820073" x1="547.440445" id="paint10_linear">
   <stop stop-color="#F18434"/>
   <stop stop-color="#BC5817" offset="1"/>
  </linearGradient>
  <linearGradient y2="260.556855" x2="506.339046" y1="136.070314" x1="512.269641" id="paint11_linear">
   <stop stop-color="#663A57"/>
   <stop stop-color="#39122E" offset="1"/>
  </linearGradient>
  <linearGradient y2="0.951253" x2="0.068463" y1="-0.351541" x1="1.113272" id="paint12_linear">
   <stop stop-color="#F7EA4A"/>
   <stop stop-color="#D93D66" offset="1"/>
  </linearGradient>
  <linearGradient y2="141.835941" x2="669.837944" y1="110.120208" x1="802.560624" id="paint13_linear">
   <stop stop-color="#663A57"/>
   <stop stop-color="#39122E" offset="1"/>
  </linearGradient>
  <linearGradient y2="294.629885" x2="751.438069" y1="294.629885" x1="702.109108" id="paint14_linear">
   <stop stop-color="#F18434"/>
   <stop stop-color="#BC5817" offset="1"/>
  </linearGradient>
  <linearGradient y2="141.840406" x2="213.488174" y1="110.11999" x1="346.19043" id="paint15_linear">
   <stop stop-color="#663A57"/>
   <stop stop-color="#39122E" offset="1"/>
  </linearGradient>
  <linearGradient y2="226.899225" x2="345.34314" y1="133.339903" x1="849.369341" id="paint16_linear">
   <stop stop-color="#663A57"/>
   <stop stop-color="#39122E" offset="1"/>
  </linearGradient>
  <linearGradient y2="197.623949" x2="787.603506" y1="116.700034" x1="819.879281" id="paint17_linear">
   <stop stop-color="#F7EA4A"/>
   <stop stop-color="#D93D66" offset="1"/>
  </linearGradient>
  <linearGradient y2="218.921836" x2="829.482239" y1="123.709954" x1="833.667008" id="paint18_linear">
   <stop stop-color="#F7EA4A"/>
   <stop stop-color="#D93D66" offset="1"/>
  </linearGradient>
  <linearGradient y2="227.686438" x2="452.830457" y1="138.040165" x1="627.150603" id="paint19_linear">
   <stop stop-color="#663A57"/>
   <stop stop-color="#39122E" offset="1"/>
  </linearGradient>
  <linearGradient y2="165.438489" x2="245.226882" y1="36.03001" x1="781.539131" id="paint20_linear">
   <stop stop-color="#F18434"/>
   <stop stop-color="#BC5817" offset="1"/>
  </linearGradient>
  <linearGradient y2="335.010112" x2="1076.871839" y1="335.010112" x1="193.410139" id="paint21_linear">
   <stop stop-color="#663A57"/>
   <stop stop-color="#39122E" offset="1"/>
  </linearGradient>
  <linearGradient y2="487.458462" x2="7183.531562" y1="228.549908" x1="7192.927944" id="paint22_linear">
   <stop stop-color="#663A57"/>
   <stop stop-color="#39122E" offset="1"/>
  </linearGradient>
  <linearGradient y2="715.871843" x2="-2049.719177" y1="226.089274" x1="-1930.732967" id="paint23_linear">
   <stop stop-color="#F18434"/>
   <stop stop-color="#BC5817" offset="1"/>
  </linearGradient>
  <linearGradient y2="353.579978" x2="2495.501044" y1="270.069512" x1="2495.578268" id="paint24_linear">
   <stop stop-color="#663A57"/>
   <stop stop-color="#39122E" offset="1"/>
  </linearGradient>
  <linearGradient y2="1.509946" x2="0.128249" y1="-1.265307" x1="1.159253" id="paint25_linear">
   <stop stop-color="#937DB9"/>
   <stop stop-color="#DA99C4" offset="1"/>
  </linearGradient>
  <linearGradient y2="0.5" x2="1.000021" y1="0.5" x1="0.000009" id="paint26_linear">
   <stop stop-color="#7C4997"/>
   <stop stop-color="#EA4B7B" offset="1"/>
  </linearGradient>
  <linearGradient y2="0.677597" x2="0.265514" y1="0.238288" x1="1.100764" id="paint27_linear">
   <stop stop-color="#F9B877"/>
   <stop stop-color="#EF7A62" offset="1"/>
  </linearGradient>
  <linearGradient y2="3.239398" x2="-0.581208" y1="-0.216759" x1="0.52967" id="paint28_linear">
   <stop stop-color="#CC246E"/>
   <stop stop-color="#4C266C" offset="1"/>
  </linearGradient>
  <linearGradient y2="73.133125" x2="135.91718" y1="192.890013" x1="-262.84982" id="paint29_linear">
   <stop stop-color="#F9B877"/>
   <stop stop-color="#EF7A62" offset="1"/>
  </linearGradient>
  <linearGradient y2="-1275.006201" x2="-6140.104225" y1="-1372.503937" x1="-6069.430506" id="paint30_linear">
   <stop stop-color="#CC246E"/>
   <stop stop-color="#4C266C" offset="1"/>
  </linearGradient>
  <linearGradient y2="183.806898" x2="-6122.672889" y1="253.060638" x1="-6119.663991" id="paint31_linear">
   <stop stop-color="#663A57"/>
   <stop stop-color="#39122E" offset="1"/>
  </linearGradient>
  <linearGradient y2="312.964644" x2="-580.172823" y1="70.299987" x1="-361.554262" id="paint32_linear">
   <stop stop-color="#F18434"/>
   <stop stop-color="#BC5817" offset="1"/>
  </linearGradient>
  <linearGradient y2="47.722765" x2="-5919.240083" y1="90.710144" x1="-5928.455099" id="paint33_linear">
   <stop stop-color="#F9B877"/>
   <stop stop-color="#EF7A62" offset="1"/>
  </linearGradient>
  <linearGradient y2="-1145.398693" x2="-6163.527241" y1="-1133.194069" x1="-6109.282428" id="paint34_linear">
   <stop stop-color="#F9B877"/>
   <stop stop-color="#EF7A62" offset="1"/>
  </linearGradient>
  <linearGradient y2="-3547.013955" x2="-5208.083138" y1="-3665.601818" x1="-5194.546426" id="paint35_linear">
   <stop stop-color="#663A57"/>
   <stop stop-color="#39122E" offset="1"/>
  </linearGradient>
  <linearGradient y2="-275.633504" x2="-6315.27902" y1="-262.631337" x1="-6260.495651" id="paint36_linear">
   <stop stop-color="#F9B877"/>
   <stop stop-color="#EF7A62" offset="1"/>
  </linearGradient>
  <linearGradient y2="145.999752" x2="-6256.251625" y1="145.999752" x1="-6157.159284" id="paint37_linear">
   <stop stop-color="#F9B877"/>
   <stop stop-color="#EF7A62" offset="1"/>
  </linearGradient>
  <linearGradient y2="-5114.002386" x2="-5273.487868" y1="-5253.632297" x1="-5258.322551" id="paint38_linear">
   <stop stop-color="#663A57"/>
   <stop stop-color="#39122E" offset="1"/>
  </linearGradient>
  <linearGradient y2="-2961.425109" x2="-6059.555508" y1="-3150.481159" x1="-6063.460241" id="paint39_linear">
   <stop stop-color="#663A57"/>
   <stop stop-color="#39122E" offset="1"/>
  </linearGradient>
  <linearGradient y2="165.475166" x2="-6058.782386" y1="111.369826" x1="-6079.46643" id="paint40_linear">
   <stop stop-color="#663A57"/>
   <stop stop-color="#39122E" offset="1"/>
  </linearGradient>
  <linearGradient y2="0.502467" x2="-0.000739" y1="0.502467" x1="0.999999" id="paint41_linear">
   <stop stop-color="#6CC9F0"/>
   <stop stop-color="#3C519F" offset="1"/>
  </linearGradient>
  <linearGradient y2="0.500059" x2="-0.000001" y1="0.500059" x1="0.999999" id="paint42_linear">
   <stop stop-color="#2A3780"/>
   <stop stop-color="#201D3F" offset="1"/>
  </linearGradient>
  <linearGradient y2="325.474495" x2="2953.756119" y1="325.474495" x1="2961.30556" id="paint43_linear">
   <stop stop-color="#F9B877"/>
   <stop stop-color="#EF7A62" offset="1"/>
  </linearGradient>
  <linearGradient y2="337.520129" x2="-3593.029157" y1="337.520129" x1="-3603.307998" id="paint44_linear">
   <stop stop-color="#6CC9F0"/>
   <stop stop-color="#3C519F" offset="1"/>
  </linearGradient>
  <linearGradient y2="329.599973" x2="-3587.930109" y1="329.599973" x1="-3603.016152" id="paint45_linear">
   <stop stop-color="#2A3780"/>
   <stop stop-color="#201D3F" offset="1"/>
  </linearGradient>
  <linearGradient y2="319.195202" x2="3080.839588" y1="319.195202" x1="3089.866678" id="paint46_linear">
   <stop stop-color="#F9B877"/>
   <stop stop-color="#EF7A62" offset="1"/>
  </linearGradient>
  <linearGradient y2="264.640146" x2="3375.411844" y1="345.589827" x1="3554.182666" id="paint47_linear">
   <stop stop-color="#663A57"/>
   <stop stop-color="#39122E" offset="1"/>
  </linearGradient>
  <linearGradient y2="235.819487" x2="3677.714453" y1="130.760272" x1="3405.622635" id="paint48_linear">
   <stop stop-color="#F18434"/>
   <stop stop-color="#BC5817" offset="1"/>
  </linearGradient>
  <linearGradient y2="276.733565" x2="3196.48016" y1="285.778827" x1="3200.007119" id="paint49_linear">
   <stop stop-color="#663A57"/>
   <stop stop-color="#39122E" offset="1"/>
  </linearGradient>
  <linearGradient y2="198.019191" x2="3269.495177" y1="187.619894" x1="3221.370605" id="paint50_linear">
   <stop stop-color="#F9B877"/>
   <stop stop-color="#EF7A62" offset="1"/>
  </linearGradient>
  <linearGradient y2="183.516322" x2="3626.697707" y1="111.69008" x1="3327.327762" id="paint51_linear">
   <stop stop-color="#F18434"/>
   <stop stop-color="#BC5817" offset="1"/>
  </linearGradient>
  <linearGradient y2="206.486665" x2="3554.425429" y1="148.92352" x1="3242.659914" id="paint52_linear">
   <stop stop-color="#F18434"/>
   <stop stop-color="#BC5817" offset="1"/>
  </linearGradient>
  <linearGradient y2="190.309835" x2="3298.269699" y1="190.309835" x1="3323.579855" id="paint53_linear">
   <stop stop-color="#F9B877"/>
   <stop stop-color="#EF7A62" offset="1"/>
  </linearGradient>
  <linearGradient y2="169.939368" x2="3285.307135" y1="122.680336" x1="3284.833327" id="paint54_linear">
   <stop stop-color="#F9B877"/>
   <stop stop-color="#EF7A62" offset="1"/>
  </linearGradient>
  <linearGradient y2="208.849333" x2="-3456.083299" y1="208.849333" x1="-3588.60523" id="paint55_linear">
   <stop stop-color="#2A3780"/>
   <stop stop-color="#201D3F" offset="1"/>
  </linearGradient>
  <linearGradient y2="150.089925" x2="3308.419677" y1="150.089925" x1="3430.057282" id="paint56_linear">
   <stop stop-color="#937DB9"/>
   <stop stop-color="#DA99C4" offset="1"/>
  </linearGradient>
  <linearGradient y2="150.090139" x2="-3334.869761" y1="150.090139" x1="-3470.234728" id="paint57_linear">
   <stop stop-color="#2A3780"/>
   <stop stop-color="#201D3F" offset="1"/>
  </linearGradient>
  <linearGradient y2="1556.182761" x2="3264.612279" y1="1531.930033" x1="3233.350816" id="paint58_linear">
   <stop stop-color="#F9B877"/>
   <stop stop-color="#EF7A62" offset="1"/>
  </linearGradient>
  <linearGradient y2="1611.242685" x2="3379.793651" y1="1614.149808" x1="3407.297615" id="paint59_linear">
   <stop stop-color="#663A57"/>
   <stop stop-color="#39122E" offset="1"/>
  </linearGradient>
  <linearGradient y2="1417.414139" x2="2747.958745" y1="1432.393768" x1="2770.514035" id="paint60_linear">
   <stop stop-color="#F9B877"/>
   <stop stop-color="#EF7A62" offset="1"/>
  </linearGradient>
  <linearGradient y2="260.124267" x2="3312.310355" y1="201.948662" x1="3306.498987" id="paint61_linear">
   <stop stop-color="#F9B877"/>
   <stop stop-color="#EF7A62" offset="1"/>
  </linearGradient>
  <linearGradient y2="187.339439" x2="2987.568316" y1="187.339439" x1="2996.618784" id="paint62_linear">
   <stop stop-color="#F9B877"/>
   <stop stop-color="#EF7A62" offset="1"/>
  </linearGradient>
 </defs>
 <g>
  <title>background</title>
  <rect fill="none" id="canvas_background" height="511" width="1103" y="-1" x="-1"/>
 </g>
 <g>
  <title>Layer 1</title>
  <g stroke="null" id="svg_1" opacity="0.3">
   <g stroke="null" id="svg_2" opacity="0.6">
    <path stroke="null" id="svg_3" fill="url(#paint0_linear)" d="m187.434,369.04513c10.22,72.490709 111.87,77.520958 217.79,64.402689c151,-18.691164 179.37,124.240256 348.71,56.469711c121,-48.441985 185.16,-360.041784 -231.45,-325.811974c-103.9,8.535919 -164.66,14.772049 -226.9,46.37476c-53.42,27.123722 -115.76,104.558546 -108.15,158.564813z" opacity="0.42"/>
    <path stroke="null" id="svg_4" fill="url(#paint1_linear)" d="m207.264,333.290741c-42,86.134398 73.13,125.670087 173,98.951196c186.9,-50.009631 257.88,123.051601 393.76,34.453759c104,-67.839452 107.41,-305.105265 -163.35,-299.050016c-150.19,3.333401 -332.43,19.922886 -403.41,165.645061z" opacity="0.62"/>
   </g>
   <path stroke="null" id="svg_5" fill="url(#paint2_linear)" d="m665.504,475.86901c-0.457,-0.368655 -0.791,-0.835504 -0.966,-1.353171c-0.176,-0.517668 -0.186,-1.066344 -0.031,-1.588318c0.156,-0.522836 0.471,-0.999159 0.914,-1.379873c0.443,-0.381575 0.996,-0.652899 1.603,-0.786407c30,-6.029408 154.09,-37.037791 127.31,-131.58752c-30.38,-107.340687 -46.74,-136.583315 3.76,-183.552402c46,-42.765729 94.17,-46.245558 134.44,-36.943043c0.598,0.14729 1.122,0.462542 1.488,0.895798c0.366,0.433256 0.554,0.958676 0.533,1.494432c-0.021,0.535756 -0.248,1.049978 -0.647,1.460839c-0.399,0.411722 -0.946,0.695966 -1.554,0.808802c-24.59,4.022476 -80,17.140745 -93,54.902065c-16.77,48.898498 10.82,158.771536 -32.31,219.978639c-42.61,60.466347 -89.42,66.814453 -138.39,78.322008c-0.55,0.129202 -1.129,0.135231 -1.682,0.018088c-0.553,-0.118004 -1.062,-0.354874 -1.478,-0.689937l0.01,0z" opacity="0.6"/>
   <path stroke="null" id="svg_6" fill="url(#paint3_linear)" d="m1082.95,218.663085c0.69,-0.348844 1.27,-0.840672 1.69,-1.429831c0.41,-0.589159 0.65,-1.257562 0.69,-1.946637c0.04,-0.688214 -0.12,-1.373844 -0.46,-1.996595c-0.34,-0.622752 -0.86,-1.161953 -1.51,-1.569369c-7.71,-4.797686 -21.17,-15.047679 -32.68,-33.48044c-11.51,-18.432761 -42.21,-58.623071 -106.456,-48.235263c-64.25,10.387808 -85.65,107.728292 -98.64,203.60449c-12.99,95.876198 -138.63,130.657268 -138.63,130.657268l-33.71,11.197472c0,0 119.71,-16.684233 165.49,-88.485867c45.78,-71.801634 39.22,-182.923621 112.52,-181.063118c70.396,1.791595 80.006,38.148925 131.696,12.747891z"/>
   <path stroke="null" id="svg_7" fill="url(#paint4_linear)" d="m1095.03,327.855661c0.81,0.274769 1.69,0.323865 2.53,0.140399c0.84,-0.184328 1.59,-0.591743 2.15,-1.164537c0.55,-0.572794 0.88,-1.282541 0.94,-2.026742c0.06,-0.744201 -0.16,-1.484957 -0.62,-2.117184c-11.52,-16.847888 -38.21,-47.882112 -78.11,-46.960474c-54.666,1.248949 -94.886,22.66196 -147.276,99.054558c-50.92,74.247851 -167.39,100.027876 -198.87,100.682498c-0.716,0.01292 -1.402,0.245483 -1.936,0.656344c-0.533,0.410861 -0.879,0.972457 -0.974,1.58315c-0.073,0.383298 -0.046,0.776932 0.079,1.149894c0.125,0.373823 0.344,0.719222 0.643,1.011218c0.298,0.291134 0.668,0.521974 1.083,0.676155c0.415,0.153319 0.864,0.225672 1.315,0.211891c22.12,-0.947478 138.3,-7.088861 197,-33.885272c61.53,-28.114268 151.966,-143.45684 222.046,-119.011898z" opacity="0.6"/>
   <path stroke="null" id="svg_8" fill="white" d="m1062.37,305.779415c-4.32,-1.510797 -8.8,-2.681364 -13.37,-3.497057c-4.57,-0.857037 -9.21,-1.432415 -13.88,-1.722688c-2.33,-0.180882 -4.67,-0.189496 -7,-0.241176c-2.33,-0.051681 -4.67,0 -7,0.198109c-4.66,0.254958 -9.29,0.761428 -13.88,1.515965c-9.148,1.582289 -18.036,4.137035 -26.456,7.605667c-8.417,3.514283 -16.401,7.750373 -23.83,12.64453c-14.89,9.759027 -27.5,21.912591 -38.54,34.953339c-2.7,3.316174 -5.31,6.649576 -8,10.01743c-2.69,3.367855 -5.24,6.813231 -8,10.129405l-4.06,5.056089l-4.24,4.926888c-2.78,3.316174 -5.79,6.48592 -8.7,9.724574c-6,6.339492 -12.17,12.584236 -18.78,18.484442c-6.599,5.920879 -13.573,11.522198 -20.89,16.778981c-14.696,10.509258 -31.117,19.086521 -48.73,25.452715c-17.57,6.365332 -36,10.585918 -54.63,13.695369c-9.3,1.567646 -18.65,2.894116 -28,4.117224c-9.35,1.223108 -18.72,2.360083 -28.09,3.445376c-0.059,0.008613 -0.119,0.006891 -0.177,-0.005168c-0.057,-0.012059 -0.112,-0.033592 -0.159,-0.064601c-0.048,-0.030147 -0.088,-0.068908 -0.118,-0.113697c-0.03,-0.043929 -0.049,-0.093025 -0.056,-0.143844c-0.01,-0.049958 -0.008,-0.100777 0.005,-0.149874c0.013,-0.049097 0.038,-0.095609 0.072,-0.136954c0.035,-0.040483 0.078,-0.075798 0.129,-0.101639c0.05,-0.02584 0.106,-0.043067 0.164,-0.050819c18.65,-2.696007 37.35,-5.168064 55.8,-8.61344c9.22,-1.722688 18.39,-3.643485 27.41,-5.951887c9.022,-2.2817 17.872,-5.040585 26.5,-8.260289c17.221,-6.474723 33.269,-15.052847 47.65,-25.469941c7.181,-5.207686 14.022,-10.754741 20.49,-16.615325c6.49,-5.857139 12.55,-12.058816 18.46,-18.35524c2.86,-3.221426 5.82,-6.373945 8.56,-9.672893l4.18,-4.901047l4,-4.987182c2.74,-3.298947 5.27,-6.727096 7.91,-10.086338c2.64,-3.359242 5.36,-6.778777 8.1,-10.120792c11.28,-13.213017 24.19,-25.564689 39.5,-35.513212c15.31,-9.948523 33.05,-17.22688 51.996,-20.172676c4.72,-0.720945 9.49,-1.164537 14.28,-1.32647c2.39,-0.120588 4.79,-0.060294 7.18,-0.051681c2.39,0.008613 4.78,0.172269 7.16,0.413445c9.56,0.700273 18.91,2.737351 27.7,6.029408c0.19,0.071492 0.33,0.202416 0.4,0.363487c0.07,0.161071 0.07,0.340231 -0.02,0.497857c-0.04,0.079244 -0.09,0.151597 -0.16,0.211029c-0.08,0.060294 -0.16,0.106807 -0.25,0.138676c-0.1,0.031008 -0.2,0.045651 -0.3,0.043929c-0.1,-0.002584 -0.2,-0.022395 -0.29,-0.05771l-0.04,-0.060294z" opacity="0.71"/>
   <path stroke="null" id="svg_9" fill="white" d="m1078.05,213.925693c-6.65,0.101639 -13.25,-1.016386 -19.37,-3.281721c-6.15,-2.230881 -11.8,-5.373925 -16.7,-9.285288c-2.42,-1.978507 -4.67,-4.102581 -6.75,-6.356719c-2.04,-2.266196 -3.92,-4.642644 -5.62,-7.114701c-0.82,-1.240335 -1.63,-2.497898 -2.38,-3.772687l-2.14,-3.798527c-1.42,-2.44191 -3.05,-4.794241 -4.87,-7.03718c-7.28,-9.068229 -16.57,-16.809989 -27.326,-22.782548c-5.307,-2.968191 -11.056,-5.303295 -17.09,-6.942432c-2.994,-0.787268 -6.058,-1.363508 -9.16,-1.722688c-3.094,-0.338508 -6.215,-0.445315 -9.33,-0.318697c-1.56,0.051681 -3.1,0.223949 -4.64,0.387605c-1.54,0.163655 -3.07,0.456512 -4.58,0.809663c-3.028,0.654621 -5.978,1.554726 -8.81,2.687393c-2.858,1.126638 -5.601,2.457414 -8.2,3.979409c-2.629,1.515104 -5.141,3.174914 -7.52,4.969955c-9.53,7.26113 -17.14,16.365536 -23.65,25.91784c-3.27,4.797686 -6.17,9.776254 -8.93,14.82373c-2.76,5.047476 -5.25,10.206926 -7.64,15.409444c-4.75,10.413649 -8.75,21.085701 -12.48,31.869727c-0.022,0.067185 -0.059,0.129202 -0.109,0.183466c-0.051,0.054265 -0.113,0.099055 -0.184,0.131786c-0.071,0.033592 -0.149,0.053403 -0.229,0.060294c-0.08,0.006029 -0.161,-0.001723 -0.238,-0.022395c-0.148,-0.037899 -0.274,-0.123172 -0.352,-0.238592c-0.078,-0.11542 -0.103,-0.251512 -0.068,-0.381575c3.034,-10.956295 6.705,-21.773914 11,-32.412374c2.19,-5.323106 4.55,-10.585918 7.2,-15.762595c2.602,-5.205102 5.509,-10.293922 8.71,-15.245788c6.4,-9.896842 14.11,-19.354399 24.06,-27.106495c4.988,-3.917392 10.627,-7.17155 16.73,-9.655666c3.076,-1.244642 6.284,-2.230881 9.58,-2.945796c1.64,-0.387605 3.32,-0.637395 5,-0.904411c1.68,-0.267017 3.38,-0.378991 5.08,-0.439285c3.402,-0.161071 6.813,-0.045651 10.19,0.344538c3.357,0.41 6.668,1.061176 9.9,1.946637c6.407,1.74336 12.513,4.22317 18.15,7.373104c11.156,6.336046 20.716,14.537764 28.116,24.117631c1.86,2.402288 3.51,4.918274 4.94,7.528146l2,3.815754c0.69,1.240335 1.44,2.45483 2.19,3.669325c1.54,2.404872 3.25,4.726194 5.12,6.951046c1.91,2.200734 3.99,4.281741 6.23,6.227517c4.51,3.917392 9.77,7.124176 15.56,9.474784c2.9,1.167982 5.91,2.099957 9,2.782141c3.1,0.720945 6.29,1.125777 9.49,1.205882c0.07,0 0.13,0.011197 0.19,0.032731c0.06,0.021534 0.12,0.053403 0.16,0.093886c0.05,0.040483 0.09,0.087857 0.11,0.139538c0.02,0.052542 0.04,0.108529 0.03,0.164517c0.01,0.098193 -0.02,0.194664 -0.09,0.273907c-0.07,0.079244 -0.17,0.13437 -0.28,0.156765z" opacity="0.71"/>
   <path stroke="null" id="svg_10" fill="url(#paint5_linear)" d="m231.194,492.105344c0,0 13.67,-137.418819 -74.79,-179.719421c-84.8602,-40.586528 -108.5502,-4.651257 -147.45019,-58.54555c-0.39082,-0.53834 -0.96462,-0.960399 -1.64342,-1.207604c-0.6788,-0.248067 -1.42969,-0.310084 -2.15064,-0.177437c-0.72096,0.132647 -1.37701,0.453928 -1.87903,0.919054c-0.50201,0.464264 -0.82564,1.051701 -0.92691,1.680482c-4.67,30.827501 -12.57001,135.231005 89.86999,156.023849c118.3102,24.022884 138.9702,81.026628 138.9702,81.026628z"/>
   <path stroke="null" id="svg_11" fill="white" d="m18.0838,285.253588c0.9758,2.654662 2.224,5.228358 3.73,7.691802c0.79,1.223108 1.49,2.497898 2.35,3.686552l2.55,3.583191c1.9,2.282562 3.66,4.651257 5.77,6.796004c1,1.093907 2,2.205041 3.07,3.281721l3.3,3.109452c8.9616,8.187936 19.0339,15.418057 30,21.533599c10.82,6.322265 22.62,11.257766 34.4802,15.943477l9.09,3.161132c3,1.059453 6,2.118906 9.16,3.143906l4.62,1.559033l4.57,1.679621c3.07,1.07668 6,2.351469 9.06,3.540124c6,2.523738 11.87,5.168064 17.53,8.174154c2.88,1.438444 5.63,3.074998 8.43,4.634031c2.8,1.559033 5.46,3.290334 8.07,5.090543c10.656,7.027706 20.112,15.312112 28.09,24.608598c7.885,9.352473 14.347,19.536143 19.23,30.302081c5,10.672052 8.69,21.680028 12.42,32.524349c0.131,0.375546 0.175,0.770042 0.13,1.16023c-0.046,0.390189 -0.18,0.768319 -0.395,1.114579c-0.216,0.345399 -0.508,0.651176 -0.861,0.899243c-0.352,0.248067 -0.758,0.434117 -1.194,0.546953c-0.436,0.112836 -0.894,0.151597 -1.347,0.111975c-0.453,-0.03876 -0.893,-0.155042 -1.294,-0.340231c-0.401,-0.18605 -0.756,-0.437563 -1.044,-0.741617c-0.288,-0.303193 -0.504,-0.652899 -0.635,-1.028445l0,-0.051681c-3.52,-10.930455 -6.94,-21.774776 -11.58,-32.205651c-4.494,-10.435182 -10.52,-20.332025 -17.93,-29.449351c-7.502,-9.070813 -16.446,-17.189842 -26.57,-24.117631c-2.49,-1.782982 -5.14,-3.393695 -7.74,-5.056089c-2.6,-1.662394 -5.33,-3.186973 -8.12,-4.634031c-5.47,-3.023317 -11.2,-5.68487 -17,-8.243062c-2.94,-1.214495 -5.83,-2.506511 -8.83,-3.617645l-4.47,-1.722688l-4.53,-1.610713c-3,-1.042226 -6.06,-2.161973 -9.11,-3.281721l-9.14,-3.342015c-11.9902,-4.944114 -23.8302,-10.120792 -34.6902,-16.70146c-11.0045,-6.367055 -21.0772,-13.854718 -30,-22.300196c-8.76,-8.527305 -16.59,-18.010703 -20.64,-29.104813c-0.061,-0.168823 -0.0415,-0.35229 0.0541,-0.509054c0.0957,-0.155903 0.2596,-0.273907 0.4559,-0.326449c0.1963,-0.052542 0.4087,-0.035315 0.5906,0.046513c0.1819,0.082689 0.3184,0.223949 0.3794,0.392773l-0.01,0.068908z" opacity="0.69"/>
   <path stroke="null" id="svg_12" fill="url(#paint6_linear)" d="m248.654,477.789807l-11.7,-5.969114c5.9,-78.235874 -10.64,-221.951117 -101.41,-261.116427c-61.4702,-26.520781 -84.3302,-56.09072 -79.7502,-119.261687c3.06,-42.145561 -13.17,-71.276214 -24.31,-85.996592c-0.4905,-0.643596 -0.7213,-1.408375 -0.6569,-2.176246c0.0643,-0.767871 0.4204,-1.496129 1.0131,-2.072351c0.5928,-0.576213 1.3893,-0.968349 2.2665,-1.115845c0.8773,-0.147497 1.7865,-0.042163 2.5873,0.299748c37.48,15.92625 135.1302,63.033152 179.8002,137.935625c55.92,93.757292 32.16,339.472889 32.16,339.472889z"/>
   <path stroke="null" id="svg_13" fill="white" d="m94.5538,52.794161c4.6393,2.291778 9.0572,4.901478 13.2102,7.803776c2.07,1.421218 4.16,2.825208 6.11,4.358401l3,2.256721l1.49,1.128361l1.42,1.188655l5.69,4.746005c1.84,1.62794 3.62,3.307561 5.44,4.961341l2.7,2.480671c0.9,0.861344 1.72,1.722688 2.59,2.584032l5.12,5.167978c13.309,14.085558 25.104,29.184057 35.24,45.108584l3.86,5.93466l1,1.481512l0.88,1.524579l1.77,3.040544l7.06,12.162177l6.42,12.42058l3.2,6.21029c1,2.093066 1.93,4.211972 2.9,6.322265l5.7,12.713437c1,2.101679 1.85,4.246426 2.72,6.382559l2.62,6.417013c1.64,4.30672 3.29,8.61344 4.85,12.92016l2.25,6.51176l1.13,3.264494l1,3.273107c5.626,17.468056 10.323,35.123023 14.09,52.964041c3.766,17.841018 6.766,35.763002 9,53.765091c1.14,9.001045 2,18.027929 2.86,27.054814c0.86,9.026885 1.38,18.088224 1.83,27.115108c0.45,9.026885 0.71,18.088224 0.79,27.158176c0.08,9.069952 0,18.088224 -0.43,27.24431c-0.039,0.790714 -0.44,1.535776 -1.116,2.070671c-0.676,0.535756 -1.572,0.817415 -2.489,0.784684c-0.918,-0.032731 -1.783,-0.378991 -2.404,-0.96126c-0.622,-0.582269 -0.95,-1.353171 -0.911,-2.143885l0,-0.068908c0.51,-8.88907 0.65,-17.924568 0.66,-26.899772c0.01,-8.975204 -0.2,-17.984862 -0.57,-26.96868c-0.37,-8.983818 -0.89,-17.976249 -1.58,-26.951453c-0.69,-8.975204 -1.56,-17.941795 -2.62,-26.891159c-2.08,-17.904757 -4.91,-35.722519 -8.49,-53.455007c-3.58,-17.732489 -8.077,-35.289263 -13.49,-52.671184l-1,-3.25588l-1.1,-3.238653l-2.18,-6.468693c-1.51,-4.30672 -3.11,-8.61344 -4.69,-12.859866l-2.55,-6.339492c-0.84,-2.12752 -1.67,-4.255039 -2.63,-6.348105l-5.6,-12.601462c-0.95,-2.093066 -1.84,-4.203359 -2.83,-6.279198l-3.12,-6.18445l-6.26,-12.351673l-6.9,-12.058816l-1.73,-3.023317l-0.86,-1.515965l-0.94,-1.472898l-3.77,-5.900206c-9.897,-15.809107 -21.434,-30.814581 -34.47,-44.832954l-5,-5.168064c-0.85,-0.861258 -1.65,-1.722602 -2.53,-2.583946l-2.65,-2.472057c-1.77,-1.636554 -3.51,-3.298947 -5.31,-4.918274l-5.56,-4.702938l-1.42,-1.180041l-1.45,-1.119747l-2.89,-2.239494c-1.9,-1.524579 -3.93,-2.911343 -6,-4.30672c-2.07,-1.395377 -4.11,-2.70462 -6.1802,-4.039703c-2.07,-1.335083 -4.29,-2.523738 -6.43,-3.548737l-0.09,0c-0.3779,-0.181657 -0.6566,-0.485109 -0.7748,-0.843773c-0.1181,-0.358577 -0.066,-0.742909 0.1448,-1.068411c0.2109,-0.325588 0.5632,-0.565645 0.9795,-0.667369c0.4164,-0.101811 0.8626,-0.056935 1.2405,0.124723l0.05,-0.043067z" opacity="0.69"/>
  </g>
  <path id="svg_14" fill="url(#paint7_linear)" d="m318.692,508.799l0,-193.38c-0.008,-2.14 0.652,-4.229 1.889,-5.975c1.237,-1.746 2.989,-3.062 5.011,-3.765c21.14,-7.206 42.276,-6.206 63.41,3c2.22,0.951 4.091,2.566 5.355,4.624c1.265,2.057 1.86,4.456 1.705,6.866l-12.86,188.2l-64.51,0.43z"/>
  <path id="svg_15" fill="url(#paint8_linear)" d="m330.822,323.559l0,47.1c-0.001,1.838 0.701,3.606 1.961,4.942c1.261,1.337 2.985,2.141 4.819,2.248l34.24,2c1.855,0.111 3.681,-0.5 5.097,-1.703c1.416,-1.204 2.313,-2.908 2.503,-4.757l5,-48.44c0.196,-1.89 -0.362,-3.782 -1.553,-5.263c-1.191,-1.482 -2.919,-2.433 -4.807,-2.647c-10.16,-1.13 -29,-2.72 -41.27,-0.65c-1.687,0.292 -3.214,1.173 -4.311,2.486c-1.097,1.313 -1.692,2.973 -1.679,4.684z"/>
  <path id="svg_16" fill="url(#paint9_linear)" d="m398.572,325.989l-11.4,182.35l68.35,0l0,-177.23c-0.004,-2.485 -0.785,-4.907 -2.234,-6.926c-1.449,-2.019 -3.493,-3.534 -5.846,-4.334c-9,-3.09 -24.42,-7 -39.53,-4.27c-2.497,0.442 -4.773,1.707 -6.466,3.594c-1.693,1.887 -2.705,4.287 -2.874,6.816z"/>
  <path id="svg_17" fill="white" d="m398.752,440.859l-2.31,50.85c-0.045,0.999 0.113,1.996 0.464,2.931c0.352,0.936 0.889,1.791 1.579,2.513c0.691,0.722 1.521,1.297 2.44,1.69c0.918,0.393 1.907,0.596 2.907,0.596l34.53,0c1.962,0 3.844,-0.779 5.232,-2.167c1.388,-1.388 2.168,-3.27 2.168,-5.233l0,-50.84c0,-1.962 -0.78,-3.844 -2.168,-5.232c-1.388,-1.388 -3.27,-2.168 -5.232,-2.168l-32.21,0c-1.905,-0.002 -3.738,0.731 -5.116,2.046c-1.379,1.315 -2.197,3.111 -2.284,5.014z" opacity="0.57"/>
  <path id="svg_18" fill="url(#paint10_linear)" d="m521.332,508.37l0,-188.5c0.005,-2.294 -0.725,-4.528 -2.084,-6.375c-1.359,-1.847 -3.275,-3.209 -5.466,-3.885c-15.274,-4.613 -31.577,-4.561 -46.82,0.15c-1.984,0.611 -3.72,1.842 -4.953,3.512c-1.232,1.67 -1.898,3.692 -1.897,5.768l0,189.33l61.22,0z"/>
  <path id="svg_19" fill="#39122E" d="m466.172,322.989l1.48,27.83c0.089,1.671 0.817,3.243 2.032,4.393c1.215,1.15 2.825,1.79 4.498,1.787l32.82,0c1.695,-0.001 3.323,-0.661 4.542,-1.84c1.218,-1.179 1.931,-2.785 1.988,-4.48l0.89,-27.45c0.051,-1.526 -0.434,-3.022 -1.371,-4.228c-0.937,-1.206 -2.267,-2.045 -3.759,-2.372c-8,-1.71 -23.63,-4.08 -38.13,-0.33c-1.479,0.363 -2.786,1.229 -3.696,2.449c-0.911,1.221 -1.368,2.72 -1.294,4.241z"/>
  <path id="svg_20" fill="url(#paint11_linear)" d="m468.722,368.99c0.114,1.649 0.849,3.193 2.057,4.322c1.208,1.128 2.799,1.756 4.453,1.758l31.39,0c0.869,-0.002 1.729,-0.176 2.53,-0.513c0.801,-0.338 1.526,-0.831 2.134,-1.452c0.608,-0.621 1.086,-1.357 1.407,-2.165c0.32,-0.808 0.476,-1.672 0.459,-2.54c-0.037,-1.709 -0.741,-3.335 -1.961,-4.531c-1.221,-1.196 -2.861,-1.867 -4.569,-1.869l-31.39,0c-0.896,0 -1.783,0.185 -2.604,0.543c-0.821,0.357 -1.561,0.88 -2.171,1.536c-0.611,0.656 -1.08,1.43 -1.378,2.275c-0.299,0.845 -0.42,1.742 -0.357,2.636z"/>
  <path id="svg_21" fill="url(#paint12_linear)" d="m734.352,325.989c0,0 -5.58,-34.71 11.46,-45.94c0.176,-0.112 0.379,-0.175 0.588,-0.181c0.209,-0.006 0.416,0.046 0.598,0.149c0.182,0.102 0.332,0.253 0.435,0.435c0.103,0.182 0.154,0.388 0.149,0.597l0,6.6c0.008,0.344 0.114,0.679 0.306,0.964c0.192,0.286 0.462,0.51 0.777,0.647c0.316,0.137 0.664,0.18 1.004,0.125c0.34,-0.055 0.656,-0.206 0.913,-0.436c3.67,-3.45 10.23,-8.71 17.19,-9.8c0.417,-0.07 0.845,-0.026 1.238,0.129c0.394,0.154 0.738,0.413 0.996,0.747c0.258,0.335 0.42,0.734 0.468,1.154c0.049,0.42 -0.018,0.845 -0.192,1.23c-4.27,9.13 -15.45,34.71 -15,51.46l-20.93,-7.88z"/>
  <path id="svg_22" fill="url(#paint13_linear)" d="m716.262,325.989l-11.41,182.38l68.35,0l0,-177.26c-0.002,-2.485 -0.783,-4.908 -2.232,-6.927c-1.449,-2.02 -3.494,-3.535 -5.848,-4.333c-9,-3.09 -24.42,-7 -39.52,-4.27c-2.498,0.439 -4.777,1.703 -6.47,3.59c-1.694,1.888 -2.705,4.29 -2.87,6.82z"/>
  <path id="svg_23" fill="url(#paint14_linear)" d="m716.442,440.859l-2.32,50.85c-0.045,0.999 0.113,1.996 0.464,2.931c0.352,0.936 0.889,1.791 1.579,2.513c0.691,0.722 1.521,1.297 2.44,1.69c0.918,0.393 1.907,0.596 2.907,0.596l34.49,0c1.962,0 3.844,-0.779 5.232,-2.167c1.388,-1.388 2.168,-3.27 2.168,-5.233l0,-50.84c0,-1.962 -0.78,-3.844 -2.168,-5.232c-1.388,-1.388 -3.27,-2.168 -5.232,-2.168l-32.17,0c-1.904,-0.002 -3.736,0.732 -5.113,2.047c-1.376,1.315 -2.192,3.111 -2.277,5.013z"/>
  <path id="svg_24" fill="url(#paint15_linear)" d="m269.222,315.579c-2.498,0.44 -4.775,1.705 -6.468,3.592c-1.694,1.888 -2.705,4.288 -2.872,6.818l-11.4,182.35l68.35,0l0,-177.23c-0.004,-2.485 -0.785,-4.907 -2.234,-6.926c-1.449,-2.019 -3.493,-3.534 -5.846,-4.334c-9.05,-3.09 -24.42,-6.95 -39.53,-4.27z"/>
  <path id="svg_25" fill="#663A57" d="m260.062,440.859l-2.31,50.85c-0.045,0.999 0.113,1.996 0.464,2.931c0.352,0.936 0.889,1.791 1.579,2.513c0.691,0.722 1.521,1.297 2.44,1.69c0.918,0.393 1.907,0.596 2.907,0.596l34.53,0c1.962,0 3.844,-0.779 5.232,-2.167c1.388,-1.388 2.168,-3.27 2.168,-5.233l0,-50.84c0,-1.962 -0.78,-3.844 -2.168,-5.232c-1.388,-1.388 -3.27,-2.168 -5.232,-2.168l-32.22,0c-1.904,0.001 -3.734,0.735 -5.11,2.05c-1.376,1.314 -2.193,3.109 -2.28,5.01z"/>
  <path id="svg_26" fill="url(#paint16_linear)" d="m839.002,508.369l0,-188.5c0.005,-2.293 -0.725,-4.527 -2.084,-6.374c-1.359,-1.847 -3.275,-3.209 -5.466,-3.886c-15.27,-4.613 -31.57,-4.561 -46.81,0.15c-1.986,0.61 -3.724,1.84 -4.959,3.511c-1.234,1.67 -1.901,3.692 -1.901,5.769l0,189.33l61.22,0z"/>
  <path id="svg_27" fill="url(#paint17_linear)" d="m783.852,322.989l1.49,27.83c0.087,1.67 0.812,3.242 2.025,4.392c1.214,1.151 2.823,1.791 4.495,1.788l32.78,0c1.696,0.004 3.328,-0.654 4.547,-1.835c1.219,-1.18 1.931,-2.789 1.983,-4.485l0.89,-27.45c0.051,-1.526 -0.434,-3.022 -1.371,-4.228c-0.937,-1.206 -2.267,-2.045 -3.759,-2.372c-8,-1.71 -23.62,-4.08 -38.12,-0.33c-1.474,0.369 -2.774,1.237 -3.678,2.457c-0.905,1.22 -1.358,2.716 -1.282,4.233z"/>
  <path id="svg_28" fill="url(#paint18_linear)" d="m786.402,368.99c0.114,1.651 0.85,3.197 2.061,4.325c1.21,1.129 2.804,1.756 4.459,1.755l31.38,0c0.869,-0.002 1.729,-0.176 2.53,-0.513c0.801,-0.338 1.526,-0.831 2.134,-1.452c0.608,-0.621 1.086,-1.357 1.407,-2.165c0.32,-0.808 0.476,-1.672 0.459,-2.54c-0.034,-1.71 -0.737,-3.337 -1.958,-4.534c-1.221,-1.197 -2.863,-1.867 -4.572,-1.866l-31.38,0c-0.897,0 -1.783,0.185 -2.605,0.543c-0.822,0.357 -1.562,0.88 -2.173,1.536c-0.612,0.655 -1.082,1.429 -1.382,2.274c-0.299,0.845 -0.422,1.742 -0.36,2.637z"/>
  <path id="svg_29" fill="url(#paint19_linear)" d="m526.402,321.139l-2.4,188.12l109.28,0l-8.18,-183.11c-0.115,-2.582 -0.998,-5.072 -2.535,-7.151c-1.537,-2.079 -3.66,-3.652 -6.095,-4.519c-13.59,-4.86 -43.17,-12 -83.23,-2c-1.94,0.48 -3.665,1.591 -4.903,3.159c-1.239,1.568 -1.92,3.503 -1.937,5.501z"/>
  <path id="svg_30" fill="url(#paint20_linear)" d="m630.672,325.139l7.58,183l64.75,0l4.91,-185.1c0.073,-2.479 -0.67,-4.915 -2.115,-6.931c-1.445,-2.016 -3.513,-3.502 -5.885,-4.229c-21,-6.32 -42,-6.94 -62.63,2.5c-2.05,0.93 -3.774,2.451 -4.952,4.369c-1.178,1.917 -1.756,4.143 -1.658,6.391z"/>
  <path id="svg_31" fill="white" d="m636.562,331.989l0.77,9.95c0.112,1.45 0.789,2.798 1.885,3.753c1.096,0.956 2.523,1.443 3.975,1.357l52.9,-3.069c1.341,-0.083 2.607,-0.648 3.564,-1.591c0.958,-0.943 1.542,-2.2 1.646,-3.54l0.51,-6.88c0.063,-0.764 -0.032,-1.533 -0.282,-2.259c-0.249,-0.725 -0.646,-1.391 -1.166,-1.955c-0.519,-0.564 -1.151,-1.014 -1.854,-1.321c-0.702,-0.308 -1.461,-0.466 -2.228,-0.465l-54.18,0c-0.77,-0.001 -1.531,0.158 -2.236,0.466c-0.704,0.309 -1.337,0.76 -1.858,1.326c-0.521,0.566 -0.919,1.234 -1.168,1.962c-0.249,0.728 -0.344,1.5 -0.278,2.266z" opacity="0.57"/>
  <path id="svg_32" fill="white" d="m638.752,355.789l0,3.63c-0.002,0.665 0.131,1.324 0.39,1.936c0.26,0.612 0.641,1.165 1.121,1.626c0.479,0.461 1.047,0.82 1.669,1.055c0.622,0.235 1.285,0.342 1.95,0.313l50.68,-2.11c1.27,-0.054 2.471,-0.597 3.351,-1.516c0.879,-0.919 1.37,-2.142 1.369,-3.414l0,-3.85c0,-0.667 -0.134,-1.327 -0.396,-1.941c-0.262,-0.614 -0.646,-1.168 -1.129,-1.629c-0.482,-0.461 -1.053,-0.819 -1.678,-1.053c-0.625,-0.233 -1.291,-0.338 -1.957,-0.307l-50.67,2.33c-1.267,0.062 -2.461,0.608 -3.336,1.526c-0.875,0.917 -1.363,2.136 -1.364,3.404z" opacity="0.57"/>
  <path id="svg_33" fill="url(#paint21_linear)" d="m1088.87,506.989c0,1.188 -0.47,2.326 -1.31,3.165c-0.84,0.84 -1.98,1.313 -3.17,1.315l-878.998,0l0.28,-9l878.698,0c1.19,0.003 2.33,0.477 3.17,1.319c0.84,0.842 1.31,1.982 1.31,3.171l0.02,0.03z"/>
  <path id="svg_34" fill="url(#paint22_linear)" d="m170.512,423.419l-138.6704,0l0,-21.27l138.6704,0c-2.97,0 -2.97,21.27 0,21.27z"/>
  <path id="svg_35" fill="url(#paint23_linear)" d="m31.8416,418.099l0,-9.74c-0.0052,-0.812 0.1501,-1.618 0.4572,-2.371c0.3071,-0.752 0.7599,-1.437 1.3323,-2.014c0.5724,-0.577 1.2531,-1.035 2.0032,-1.348c0.75,-0.313 1.5545,-0.475 2.3673,-0.477l132.0004,0c2.66,0 4.81,-1.65 4.81,-3.69c-0.05,-0.34 -0.23,-0.647 -0.503,-0.856c-0.273,-0.209 -0.616,-0.304 -0.957,-0.264l-144.3004,0c-3.31,0 -8.56,4 -8.56,8.9l0,13.6c0,4.63 5.1,8.39 8.22,8.39l143.8004,0c0.52,0.063 1.044,-0.081 1.459,-0.401c0.415,-0.32 0.688,-0.79 0.761,-1.309c0,-1.71 -1.81,-3.1 -4,-3.1l-133.6504,0c-0.6933,-0.005 -1.3789,-0.147 -2.0175,-0.417c-0.6386,-0.27 -1.2177,-0.663 -1.7043,-1.157c-0.4866,-0.494 -0.8711,-1.079 -1.1316,-1.722c-0.2605,-0.643 -0.3918,-1.33 -0.3866,-2.024z"/>
  <path id="svg_36" fill="white" d="m35.6916,407.119l130.0004,0c0.086,0.011 0.173,0.004 0.256,-0.021c0.083,-0.026 0.159,-0.068 0.224,-0.126c0.066,-0.057 0.118,-0.127 0.153,-0.206c0.036,-0.079 0.055,-0.165 0.055,-0.252c0,-0.086 -0.019,-0.172 -0.055,-0.251c-0.035,-0.079 -0.087,-0.15 -0.153,-0.207c-0.065,-0.057 -0.141,-0.1 -0.224,-0.125c-0.083,-0.025 -0.17,-0.033 -0.256,-0.022l-130.0004,0c-0.0859,-0.011 -0.1733,-0.003 -0.2562,0.022c-0.0829,0.025 -0.1594,0.068 -0.2245,0.125c-0.0651,0.057 -0.1173,0.128 -0.153,0.207c-0.0357,0.079 -0.0542,0.165 -0.0542,0.251c0,0.087 0.0185,0.173 0.0542,0.252c0.0357,0.079 0.0879,0.149 0.153,0.206c0.0651,0.058 0.1416,0.1 0.2245,0.126c0.0829,0.025 0.1703,0.032 0.2562,0.021z"/>
  <path id="svg_37" fill="white" d="m35.6916,410.279l130.0004,0c0.161,0 0.317,-0.064 0.431,-0.178c0.114,-0.115 0.179,-0.27 0.179,-0.432c0,-0.08 -0.016,-0.159 -0.047,-0.233c-0.03,-0.074 -0.075,-0.141 -0.132,-0.198c-0.057,-0.057 -0.124,-0.102 -0.198,-0.132c-0.074,-0.031 -0.153,-0.047 -0.233,-0.047l-130.0004,0c-0.0801,0 -0.1594,0.016 -0.2334,0.047c-0.074,0.03 -0.1412,0.075 -0.1979,0.132c-0.0566,0.057 -0.1016,0.124 -0.1322,0.198c-0.0307,0.074 -0.0465,0.153 -0.0465,0.233c0,0.162 0.0643,0.317 0.1787,0.432c0.1144,0.114 0.2696,0.178 0.4313,0.178z"/>
  <path id="svg_38" fill="white" d="m35.6916,413.439l130.0004,0c0.161,0 0.317,-0.064 0.431,-0.178c0.114,-0.115 0.179,-0.27 0.179,-0.432c0,-0.161 -0.065,-0.316 -0.179,-0.431c-0.114,-0.114 -0.27,-0.179 -0.431,-0.179l-130.0004,0c-0.1617,0 -0.3169,0.065 -0.4313,0.179c-0.1144,0.115 -0.1787,0.27 -0.1787,0.431c0,0.162 0.0643,0.317 0.1787,0.432c0.1144,0.114 0.2696,0.178 0.4313,0.178z"/>
  <path id="svg_39" fill="white" d="m35.6916,416.59l130.0004,0c0.086,0.011 0.173,0.003 0.256,-0.022c0.083,-0.025 0.159,-0.068 0.224,-0.125c0.066,-0.058 0.118,-0.128 0.153,-0.207c0.036,-0.079 0.055,-0.165 0.055,-0.251c0,-0.087 -0.019,-0.173 -0.055,-0.252c-0.035,-0.079 -0.087,-0.149 -0.153,-0.207c-0.065,-0.057 -0.141,-0.1 -0.224,-0.125c-0.083,-0.025 -0.17,-0.033 -0.256,-0.021l-130.0004,0c-0.0859,-0.012 -0.1733,-0.004 -0.2562,0.021c-0.0829,0.025 -0.1594,0.068 -0.2245,0.125c-0.0651,0.058 -0.1173,0.128 -0.153,0.207c-0.0357,0.079 -0.0542,0.165 -0.0542,0.252c0,0.086 0.0185,0.172 0.0542,0.251c0.0357,0.079 0.0879,0.149 0.153,0.207c0.0651,0.057 0.1416,0.1 0.2245,0.125c0.0829,0.025 0.1703,0.033 0.2562,0.022z"/>
  <path id="svg_40" fill="white" d="m35.6916,419.749l130.0004,0c0.161,0 0.317,-0.064 0.431,-0.178c0.114,-0.115 0.179,-0.27 0.179,-0.432c0,-0.161 -0.065,-0.317 -0.179,-0.431c-0.114,-0.114 -0.27,-0.179 -0.431,-0.179l-130.0004,0c-0.1617,0 -0.3169,0.065 -0.4313,0.179c-0.1144,0.114 -0.1787,0.27 -0.1787,0.431c0,0.162 0.0643,0.317 0.1787,0.432c0.1144,0.114 0.2696,0.178 0.4313,0.178z"/>
  <path id="svg_41" fill="url(#paint24_linear)" d="m26.6316,511l195.7004,0c6.749,0 12.22,-5.472 12.22,-12.22l0,-17.15c0,-6.749 -5.471,-12.22 -12.22,-12.22l-195.7004,0c-6.7489,0 -12.22,5.471 -12.22,12.22l0,17.15c0,6.748 5.4711,12.22 12.22,12.22z"/>
  <path id="svg_42" fill="white" d="m188.212,506.219l17.06,0c2.43,0 4.4,-1.97 4.4,-4.4l0,-23.23c0,-2.43 -1.97,-4.4 -4.4,-4.4l-17.06,0c-2.43,0 -4.4,1.97 -4.4,4.4l0,23.23c0,2.43 1.97,4.4 4.4,4.4z" opacity="0.6"/>
  <path id="svg_43" fill="url(#paint25_linear)" d="m18.1716,430.539l0,7.16c0.0326,0.66 0.2335,1.301 0.5836,1.861c0.3501,0.56 0.8377,1.021 1.4164,1.339l1.23,0.8c1,0.65 0.8,1.86 -0.4,2.3c-0.8,0.29 -0.94,1.08 -0.29,1.52l1.56,1c0.2304,0.122 0.4232,0.304 0.5576,0.527c0.1345,0.223 0.2056,0.478 0.2056,0.738c0,0.261 -0.0711,0.516 -0.2056,0.739c-0.1344,0.223 -0.3272,0.405 -0.5576,0.526l-1.11,0.75c-0.218,0.118 -0.3993,0.293 -0.5236,0.508c-0.1243,0.214 -0.1868,0.458 -0.1806,0.706c0.0062,0.247 0.0809,0.488 0.2158,0.696c0.1349,0.208 0.3248,0.374 0.5484,0.48l1.19,0.74c0.1878,0.088 0.351,0.22 0.4753,0.386c0.1244,0.166 0.206,0.359 0.2376,0.564c0.0317,0.205 0.0124,0.414 -0.0562,0.609c-0.0685,0.196 -0.1841,0.371 -0.3367,0.511l-0.66,0.65c-0.2231,0.206 -0.4027,0.455 -0.5281,0.731c-0.1254,0.277 -0.194,0.576 -0.2019,0.879l0,11.31l162.2904,0l0,-38.71l-165.4604,0.68z"/>
  <path id="svg_44" fill="white" d="m178.002,438.829l-154.1404,0c-0.34,0 -0.61,-0.2 -0.61,-0.45c0.0223,-0.14 0.0983,-0.267 0.2121,-0.353c0.1138,-0.086 0.2565,-0.124 0.3979,-0.107l154.1404,0c0.33,0 0.61,0.21 0.61,0.46c0,0.25 -0.27,0.45 -0.61,0.45z" opacity="0.78"/>
  <path id="svg_45" fill="white" d="m178.002,445.579l-150.4904,0c-0.1414,0.018 -0.2841,-0.021 -0.3979,-0.106c-0.1138,-0.086 -0.1898,-0.213 -0.2121,-0.354c0,-0.25 0.27,-0.45 0.61,-0.45l150.4904,0c0.33,0 0.61,0.2 0.61,0.45c0,0.25 -0.27,0.46 -0.61,0.46z" opacity="0.78"/>
  <path id="svg_46" fill="white" d="m178.002,450.539l-148.6204,0c-0.34,0 -0.61,-0.2 -0.61,-0.45c0,-0.25 0.27,-0.45 0.61,-0.45l148.6204,0c0.33,0 0.61,0.2 0.61,0.45c0,0.25 -0.27,0.45 -0.61,0.45z" opacity="0.78"/>
  <path id="svg_47" fill="url(#paint26_linear)" d="m186.582,427.389l-171.9604,0c-1.31,0 -2.48,0.71 -2.61,1.68c-0.14,1.12 1,2.06 2.5,2.06l159.4904,0c2.8,0 5.22,1.46 5.8,3.51c2.61,9.15 2.41,18.69 0,28.53c-0.57,2.28 -3.24,3.93 -6.35,3.93l-155.6804,0c-1.31,0 -2.48,0.72 -2.61,1.69c-0.13,0.97 1,2.06 2.5,2.06l167.7804,0c4,0 7.46,-2.14 8.18,-5.09c2.89,-11.93 3.15,-23.39 0,-34.22c-0.71,-2.43 -3.62,-4.15 -7,-4.15l-0.04,0z"/>
  <path id="svg_48" fill="url(#paint27_linear)" d="m237.002,443.279c-0.11,-0.05 -63.21,-110.54 -71.74,-120.94c-0.704,-0.86 -1.614,-1.529 -2.646,-1.943c-1.031,-0.415 -2.151,-0.561 -3.254,-0.427l-17.61,2.1l-20.69,44.76l34.47,-20.08c-3.41,23.59 40.87,58.64 56,71.44c0.366,0.306 0.665,0.684 0.879,1.111c0.214,0.426 0.338,0.892 0.364,1.369c0.027,0.476 -0.045,0.953 -0.211,1.4c-0.166,0.448 -0.422,0.856 -0.752,1.2l-6.06,6.34c9.331,9.713 21.281,16.508 34.4,19.56l-3.15,-5.89z"/>
  <path id="svg_49" fill="url(#paint28_linear)" d="m209.322,426.189c0,0 -3.86,1.25 -5.17,4.69c-0.287,0.816 -0.298,1.704 -0.03,2.526c0.267,0.822 0.798,1.534 1.51,2.024c6.37,4.56 27.37,19.3 37.08,22.18c0.183,0.053 0.376,0.058 0.561,0.013c0.185,-0.044 0.356,-0.136 0.495,-0.266c0.139,-0.13 0.242,-0.294 0.299,-0.475c0.056,-0.182 0.065,-0.376 0.025,-0.562c-0.5,-2.25 -2.11,-6.75 -7.3,-13.34l0.47,0.94c0.129,0.259 0.172,0.552 0.122,0.837c-0.05,0.285 -0.19,0.546 -0.399,0.745c-0.209,0.199 -0.477,0.326 -0.764,0.362c-0.287,0.036 -0.578,-0.022 -0.829,-0.164c-6.49,-3.66 -19.7,-11.71 -26.07,-19.51z"/>
  <path id="svg_50" fill="url(#paint29_linear)" d="m212.452,470.399c-0.11,-0.07 -9.58,-22.88 -9.68,-22.94c-8.68,-52.85 -29.86,-98.11 -36.1,-110c-0.518,-0.983 -1.274,-1.82 -2.201,-2.434c-0.926,-0.613 -1.992,-0.983 -3.099,-1.076l-17.67,-1.51l-29.32,39.64l37.82,-12.68c-8.12,22.41 28.15,65.7 40.43,81.3c0.291,0.374 0.503,0.802 0.623,1.26c0.119,0.458 0.145,0.936 0.073,1.404c-0.071,0.468 -0.237,0.917 -0.487,1.319c-0.251,0.401 -0.58,0.748 -0.969,1.017l-7.22,5c7.177,11.397 17.504,20.47 29.73,26.12l-1.93,-6.42z"/>
  <path id="svg_51" fill="url(#paint30_linear)" d="m188.782,448.049c0,0 -4,0.45 -6,3.55c-0.446,0.74 -0.636,1.607 -0.54,2.465c0.095,0.859 0.471,1.662 1.07,2.285c5.32,5.76 22.91,24.45 31.83,29.24c0.168,0.09 0.358,0.133 0.549,0.127c0.191,-0.007 0.377,-0.064 0.539,-0.165c0.162,-0.102 0.295,-0.244 0.384,-0.413c0.09,-0.168 0.134,-0.358 0.128,-0.549c0,-2.31 -0.69,-7 -4.44,-14.54l0.27,1c0.072,0.279 0.053,0.574 -0.054,0.841c-0.107,0.267 -0.296,0.493 -0.541,0.645c-0.245,0.152 -0.531,0.222 -0.818,0.199c-0.287,-0.022 -0.56,-0.136 -0.777,-0.325c-5.63,-4.87 -16.95,-15.42 -21.6,-24.36z"/>
  <path id="svg_52" fill="url(#paint31_linear)" d="m61.0016,324.069c0,0 -16,23.78 -17.3,34.62c-1.3,10.84 4.42,14.6 21.16,16c49.7904,4.12 74.3304,-10.8 74.3304,-10.8c3.41,-21.72 5.83,-27.25 34.28,-39c0,0 -36,2.85 -43.22,0c-7.22,-2.85 -69.2504,-0.82 -69.2504,-0.82z"/>
  <path id="svg_53" fill="url(#paint32_linear)" d="m104.212,320.919c0,0 18.62,-17.72 27.78,-29.46c2.439,-3.13 4.094,-6.798 4.828,-10.698c0.734,-3.9 0.526,-7.919 -0.608,-11.722c-4.18,-14.1 -11.62,-28.7 -12.3,-31c-1.03,-3.45 -21.91,-3.31 -21.91,-3.31c0,0 -41.0704,26.66 -57.2104,71.82l18.12,5.64c0,0 10.73,-18 21.33,-29.43c0,0 -18.34,24.22 -19,34.14l38.9704,4.02z"/>
  <path id="svg_54" fill="url(#paint33_linear)" d="m126.442,218.609c-0.22,0.72 -5.67,18.78 -6.09,19.16c-0.42,0.38 -11.95,0.99 -17.35,-2.71l11.07,-24.49l12.37,8.04z"/>
  <path id="svg_55" fill="url(#paint34_linear)" d="m141.422,198.319c0,0 3.88,9 -0.68,22.58c-4.56,13.58 -12,14.81 -16.72,11.44c-4.72,-3.37 -10.83,-9.35 -11.59,-21.73c-0.76,-12.38 23.65,-23.62 28.99,-12.29z"/>
  <path id="svg_56" fill="url(#paint35_linear)" d="m121.632,209.809c0,0 8.23,-18.43 20.58,-6.95l0.95,4.75c0,0 11.76,-3.35 7.89,-14c-3.87,-10.65 -17.91,-17.88 -30.48,-11c-12.57,6.88 -16.85,15 -16.17,24.74c0.68,9.74 7.94,6.37 7.94,6.37c0,0 1.4,-7.13 4.81,-8.39c3.41,-1.26 3.35,4.13 3.35,4.13l1.13,0.35z"/>
  <path id="svg_57" fill="url(#paint36_linear)" d="m118.802,210.039c0,0 4.29,-9.45 -1.71,-9.8c-6,-0.35 -3.56,9.12 -2.37,12.56l4.08,-2.76z"/>
  <path id="svg_58" fill="url(#paint37_linear)" d="m139.682,327.919l-14,-15.22l-16.15,4.35c0,0 -18.8304,2.92 -29.6104,0l-10.78,-2.92l-24.36,-7.58l-3.78,10.81c-0.4694,1.336 -0.4911,2.789 -0.0617,4.139c0.4294,1.349 1.2865,2.522 2.4417,3.341c1.9411,1.449 4.0018,2.731 6.16,3.83c3.2,1.4 73.8904,0.44 73.8904,0.44l16.25,-1.19z"/>
  <path id="svg_59" fill="url(#paint38_linear)" d="m115.402,189.459c0.76,-0.115 1.474,-0.437 2.065,-0.93c0.59,-0.493 1.034,-1.139 1.283,-1.867c0.25,-0.727 0.295,-1.509 0.131,-2.261c-0.163,-0.751 -0.53,-1.444 -1.059,-2.002c-7.38,-8.07 -21.3204,-17 -41.1804,-3.28c-22.37,15.47 -34.47,22.47 -40,21c-0.7887,-0.23 -1.6274,-0.227 -2.4141,0.011c-0.7868,0.237 -1.4876,0.698 -2.0173,1.326c-0.5297,0.628 -0.8655,1.397 -0.9664,2.212c-0.1009,0.816 0.0373,1.643 0.3978,2.381c1.26,2.46 3.83,5 8.57,7.37c36.55,18.04 55.46,-21.55 75.1904,-23.96z"/>
  <path id="svg_60" fill="url(#paint39_linear)" d="m93.3816,333.989l0.15,0l64.3404,-0.07c0.763,0 1.496,-0.303 2.036,-0.843c0.54,-0.54 0.844,-1.273 0.844,-2.037c0,-0.763 -0.304,-1.496 -0.844,-2.036c-0.54,-0.54 -1.273,-0.844 -2.036,-0.844l-64.3404,0.07c-0.7638,-0.018 -1.5037,0.267 -2.0569,0.794c-0.5533,0.527 -0.8745,1.253 -0.8931,2.016c-0.0185,0.764 0.2671,1.504 0.7941,2.057c0.527,0.554 1.2521,0.875 2.0159,0.893l-0.01,0z"/>
  <path id="svg_61" fill="url(#paint40_linear)" d="m215.702,275.529l-53.58,0c-1.935,0 -3.831,0.549 -5.465,1.585c-1.634,1.036 -2.94,2.515 -3.765,4.265l-24.77,52.53l66.58,0c1.245,0 2.461,-0.374 3.49,-1.075c1.029,-0.701 1.824,-1.696 2.28,-2.855l19.21,-48.6c0.256,-0.649 0.349,-1.35 0.272,-2.043c-0.078,-0.694 -0.323,-1.358 -0.715,-1.934c-0.393,-0.577 -0.92,-1.049 -1.536,-1.375c-0.617,-0.327 -1.304,-0.497 -2.001,-0.498z"/>
  <path id="svg_62" fill="#39122E" d="m178.002,302.459c-1.17,3.6 -0.31,7.11 1.91,7.82c2.22,0.71 5,-1.63 6.12,-5.24c1.12,-3.61 0.31,-7.11 -1.91,-7.82c-2.22,-0.71 -5,1.63 -6.12,5.24z"/>
  <path id="svg_63" fill="url(#paint41_linear)" d="m903.702,508.779c4.6,0.4 12.57,1 18.85,1.32c3.78,0.16 6,-0.21 7.21,-0.71c0,0.14 0,0.28 0,0.4c-0.02,0.322 -0.157,0.625 -0.385,0.852c-0.229,0.227 -0.534,0.362 -0.855,0.378c-8.22,0.463 -16.46,0.463 -24.68,0c-0.159,-0.007 -0.314,-0.055 -0.449,-0.139c-0.134,-0.085 -0.245,-0.203 -0.321,-0.343c-0.075,-0.14 -0.113,-0.297 -0.11,-0.456c0.004,-0.159 0.048,-0.315 0.13,-0.452c0.184,-0.296 0.388,-0.58 0.61,-0.85z"/>
  <path id="svg_64" fill="url(#paint42_linear)" d="m922.552,510.099c-6.28,-0.28 -14.25,-0.919 -18.85,-1.319c4.52,-5.54 18.85,-9.28 18.85,-9.28l4.05,0c2.059,2.886 3.163,6.344 3.16,9.889c-1.25,0.5 -3.43,0.87 -7.21,0.71z"/>
  <path id="svg_65" fill="url(#paint43_linear)" d="m927.282,492.889l-0.37,7.5c-0.022,0.397 -0.18,0.775 -0.448,1.068c-0.268,0.294 -0.629,0.485 -1.022,0.542c-1.006,0.149 -2.033,0.063 -3,-0.25c-0.363,-0.098 -0.69,-0.297 -0.944,-0.573c-0.255,-0.276 -0.427,-0.618 -0.496,-0.987l-1.31,-7.3l7.59,0z"/>
  <path id="svg_66" fill="url(#paint44_linear)" d="m979.872,510.04c0.724,-0.032 1.422,-0.28 2.004,-0.711c0.583,-0.431 1.023,-1.026 1.266,-1.709c0.118,0.619 0.007,1.26 -0.313,1.803c-0.32,0.543 -0.828,0.951 -1.427,1.147c-1.539,0.603 -3.191,0.862 -4.84,0.76c-0.676,-0.009 -1.342,-0.159 -1.955,-0.441c-0.613,-0.283 -1.16,-0.691 -1.605,-1.199c1.44,0.73 3.55,0.82 6.87,0.35z"/>
  <path id="svg_67" fill="url(#paint45_linear)" d="m970.482,492.849l3.34,0c5.08,-0.11 8.28,10.62 9.32,14.77c-0.243,0.684 -0.683,1.279 -1.266,1.71c-0.582,0.431 -1.28,0.678 -2.004,0.71c-3.32,0.47 -5.43,0.38 -6.93,-0.36c-2.75,-3.62 -4.11,-8.92 -4.76,-12c-0.238,-0.946 -0.139,-1.947 0.281,-2.828c0.42,-0.882 1.134,-1.589 2.019,-2.002z"/>
  <path id="svg_68" fill="url(#paint46_linear)" d="m973.392,485.889l1.85,7.37c0.113,0.436 0.076,0.897 -0.106,1.309c-0.181,0.412 -0.497,0.751 -0.894,0.961c-1.168,0.664 -2.498,0.987 -3.84,0.93c-0.309,-0.041 -0.6,-0.168 -0.84,-0.366c-0.24,-0.198 -0.421,-0.459 -0.52,-0.754l-2.72,-7.75l7.07,-1.7z"/>
  <path id="svg_69" fill="url(#paint47_linear)" d="m975.602,487.989c-2.31,2 -9.81,2.31 -9.81,2.31c-27,-64.86 -38.08,-74.08 -38.08,-74.08c3.9,24.49 0.63,78.69 0.63,78.69c-4.46,2 -10.21,0 -10.21,0c-0.333,-34.639 -4.968,-69.103 -13.8,-102.6c18.26,-0.41 28,-6.66 31.15,-9.17c15.23,24.58 40.12,104.85 40.12,104.85z"/>
  <path id="svg_70" fill="url(#paint48_linear)" d="m930.842,308.579c3.46,17.24 2.22,48.11 1.4,62.19c-0.22,4 2.54,9.44 4.77,13.19c0.083,0.138 0.137,0.291 0.159,0.451c0.021,0.16 0.01,0.322 -0.034,0.477c-0.044,0.155 -0.12,0.299 -0.222,0.423c-0.103,0.125 -0.23,0.226 -0.373,0.299c-3.74,1.92 -16.41,7.87 -31.08,8.61c-0.477,0.02 -0.947,-0.123 -1.331,-0.407c-0.384,-0.284 -0.659,-0.691 -0.779,-1.153c-10.89,-40.67 -23.53,-66.67 -23.53,-66.67c13.96,-22.26 51.02,-17.41 51.02,-17.41z"/>
  <path id="svg_71" fill="url(#paint49_linear)" d="m925.862,414.719c0.159,0.002 0.316,-0.043 0.45,-0.13c0.097,-0.058 0.183,-0.135 0.25,-0.227c0.068,-0.092 0.117,-0.196 0.144,-0.307c0.027,-0.111 0.031,-0.226 0.013,-0.338c-0.017,-0.113 -0.057,-0.221 -0.117,-0.318c-2.68,-3.996 -6.377,-7.207 -10.71,-9.3c-0.104,-0.063 -0.22,-0.104 -0.341,-0.12c-0.12,-0.017 -0.243,-0.007 -0.36,0.027c-0.117,0.035 -0.225,0.093 -0.318,0.172c-0.092,0.079 -0.168,0.176 -0.22,0.286c-0.053,0.11 -0.082,0.229 -0.086,0.351c-0.004,0.122 0.018,0.243 0.064,0.355c0.047,0.113 0.116,0.215 0.204,0.299c0.088,0.084 0.192,0.149 0.307,0.19c4.025,1.965 7.471,4.943 10,8.64c0.076,0.124 0.181,0.228 0.307,0.301c0.125,0.073 0.267,0.114 0.413,0.119z"/>
  <path id="svg_72" fill="url(#paint50_linear)" d="m952.532,358.069c-1.11,8 -4.39,16.8 -11,26.11l-2.49,-2c1.774,-8.21 2.193,-16.654 1.24,-25c4.09,-0.78 8.87,0.04 12.25,0.89z"/>
  <path id="svg_73" fill="url(#paint51_linear)" d="m927.002,329.859l3.86,-21.28c0,0 25.8,19.72 21.69,49.49c-3.38,-0.85 -8.16,-1.67 -12.21,-0.88c-1.2,-9.55 -4.72,-19.92 -13.34,-27.33z"/>
  <path id="svg_74" fill="url(#paint52_linear)" d="m879.822,325.99l10,21.449c-1.61,12.95 -8.57,18.55 -16.07,20.7c-0.365,-4.815 -1.496,-9.541 -3.35,-14c9.6,-9.83 9.42,-28.149 9.42,-28.149z"/>
  <path id="svg_75" fill="url(#paint53_linear)" d="m870.362,354.209c1.854,4.459 2.985,9.185 3.35,14c-20,7.76 -25.31,-7.3 -25.31,-7.3l3.7,-0.65c8.35,0.85 14.19,-1.84 18.26,-6.05z"/>
  <path id="svg_76" fill="url(#paint54_linear)" d="m889.002,299.549l4.81,17.67c0.126,0.469 0.35,0.907 0.657,1.283c0.308,0.376 0.692,0.682 1.127,0.899c0.435,0.216 0.911,0.338 1.396,0.356c0.485,0.019 0.969,-0.065 1.42,-0.248c2.365,-0.926 4.679,-1.981 6.93,-3.16c0.57,-0.305 1.069,-0.726 1.467,-1.236c0.397,-0.51 0.683,-1.098 0.84,-1.726c0.156,-0.627 0.179,-1.28 0.068,-1.917c-0.112,-0.637 -0.355,-1.244 -0.715,-1.781l-10,-14.91l-8,4.77z"/>
  <path id="svg_77" fill="url(#paint55_linear)" d="m839.232,349.049l123.21,44.85c1.221,0.446 2.337,1.139 3.278,2.037c0.941,0.897 1.687,1.979 2.19,3.178c0.503,1.199 0.753,2.489 0.735,3.789c-0.019,1.3 -0.306,2.582 -0.843,3.766l-0.38,0.82c-0.479,1.052 -1.161,2 -2.007,2.787c-0.846,0.788 -1.839,1.401 -2.923,1.803c-1.084,0.402 -2.236,0.587 -3.391,0.542c-1.155,-0.045 -2.29,-0.317 -3.339,-0.802l-119.63,-55.35l3.1,-7.42z"/>
  <path id="svg_78" fill="url(#paint56_linear)" d="m782.602,381.799c33.59,0 60.82,-26.737 60.82,-59.72c0,-32.982 -27.23,-59.72 -60.82,-59.72c-33.59,0 -60.82,26.738 -60.82,59.72c0,32.983 27.23,59.72 60.82,59.72z" opacity="0.5"/>
  <path id="svg_79" fill="url(#paint57_linear)" d="m714.922,322.079c0,36.7 30.3,66.46 67.68,66.46c37.38,0 67.68,-29.76 67.68,-66.46c0,-36.7 -30.28,-66.46 -67.68,-66.46c-37.4,0 -67.68,29.76 -67.68,66.46zm9.94,0c0,-31.31 25.85,-56.69 57.74,-56.69c31.89,0 57.74,25.38 57.74,56.69c0,31.31 -25.85,56.69 -57.74,56.69c-31.89,0 -57.74,-25.38 -57.74,-56.69z"/>
  <path id="svg_80" fill="white" d="m845.132,330.239c-0.05,-0.005 -0.098,-0.02 -0.142,-0.044c-0.044,-0.023 -0.082,-0.056 -0.113,-0.095c-0.031,-0.04 -0.053,-0.085 -0.066,-0.133c-0.013,-0.048 -0.016,-0.098 -0.009,-0.148c0.2,-1.55 0.34,-3.13 0.42,-4.7c0.001,-0.05 0.012,-0.1 0.033,-0.145c0.021,-0.046 0.052,-0.087 0.089,-0.121c0.037,-0.034 0.081,-0.059 0.129,-0.075c0.048,-0.017 0.098,-0.023 0.149,-0.019c0.05,0.003 0.098,0.015 0.144,0.037c0.045,0.021 0.085,0.051 0.119,0.089c0.033,0.037 0.059,0.08 0.075,0.127c0.017,0.047 0.024,0.097 0.022,0.147c-0.08,1.59 -0.22,3.19 -0.42,4.76c-0.018,0.098 -0.072,0.186 -0.152,0.246c-0.08,0.059 -0.179,0.086 -0.278,0.074zm-0.46,-18.59c-0.09,0.002 -0.178,-0.028 -0.247,-0.085c-0.07,-0.057 -0.117,-0.136 -0.133,-0.225c-0.758,-4.223 -1.965,-8.353 -3.6,-12.32c-4.765,-11.457 -12.836,-21.233 -23.183,-28.082c-10.346,-6.849 -22.5,-10.458 -34.907,-10.368c-11.881,-0.011 -23.526,3.322 -33.6,9.62c-0.043,0.027 -0.091,0.045 -0.14,0.054c-0.05,0.009 -0.101,0.007 -0.15,-0.004c-0.049,-0.011 -0.096,-0.032 -0.137,-0.061c-0.041,-0.029 -0.076,-0.066 -0.103,-0.109c-0.027,-0.042 -0.046,-0.09 -0.054,-0.14c-0.009,-0.049 -0.007,-0.1 0.004,-0.15c0.011,-0.049 0.032,-0.095 0.061,-0.137c0.029,-0.041 0.066,-0.076 0.109,-0.103c10.211,-6.375 22.011,-9.747 34.05,-9.73c12.558,-0.091 24.858,3.563 35.33,10.495c10.471,6.933 18.639,16.829 23.46,28.425c1.635,4.02 2.832,8.204 3.57,12.48c0.008,0.05 0.007,0.1 -0.004,0.149c-0.011,0.049 -0.031,0.095 -0.06,0.136c-0.029,0.041 -0.065,0.075 -0.108,0.102c-0.042,0.027 -0.089,0.045 -0.138,0.053l-0.02,0z"/>
  <path id="svg_81" fill="url(#paint58_linear)" d="m878.472,286.119c0,0.3 4,20.17 4,20.17l11.3,-2.56l-1,-19.4c0,0 -13.56,-3.29 -14.3,1.79z"/>
  <path id="svg_82" fill="url(#paint59_linear)" d="m890.192,288.659l1.35,10.17c0.02,0.13 0.02,0.261 0,0.39c-0.11,0.79 -0.71,3.51 -3.44,2.73c-2.49,-0.7 -4.77,-1.31 -6.34,-0.83c-0.345,0.101 -0.639,0.328 -0.824,0.635c-0.186,0.308 -0.248,0.674 -0.176,1.025c0.628,3.149 1.498,6.245 2.6,9.26c0.132,0.333 0.384,0.603 0.706,0.759c0.322,0.155 0.691,0.184 1.034,0.081c3.464,-0.964 6.803,-2.33 9.95,-4.07c0.221,-0.133 0.402,-0.323 0.525,-0.549c0.123,-0.227 0.183,-0.483 0.175,-0.741c-0.11,-2.57 -0.41,-10.37 -0.16,-12.56c0.25,-2.19 2.76,-3.29 3.86,-3.73c0.177,-0.068 0.338,-0.173 0.472,-0.307c0.135,-0.134 0.239,-0.295 0.308,-0.473c0.51,-1.27 1.21,-4.21 -2.5,-5.42c-0.183,-0.059 -0.352,-0.155 -0.497,-0.281c-0.145,-0.126 -0.263,-0.279 -0.348,-0.452c-0.085,-0.172 -0.134,-0.36 -0.146,-0.552c-0.011,-0.191 0.016,-0.383 0.081,-0.565c0.55,-1.53 0.78,-3.86 -2.08,-5.15c-1.065,-0.478 -2.259,-0.589 -3.393,-0.316c-1.135,0.274 -2.147,0.916 -2.877,1.826c-0.23,0.245 -0.538,0.4 -0.87,0.44c-0.333,0.041 -0.669,-0.037 -0.95,-0.22c-0.19,-0.131 -0.415,-0.202 -0.645,-0.202c-0.231,0 -0.456,0.071 -0.645,0.202c-0.169,0.102 -0.357,0.167 -0.552,0.192c-0.195,0.024 -0.393,0.008 -0.581,-0.049c-0.189,-0.056 -0.363,-0.151 -0.512,-0.279c-0.15,-0.128 -0.271,-0.286 -0.355,-0.464c-0.399,-0.943 -1.123,-1.712 -2.041,-2.167c-0.917,-0.455 -1.967,-0.566 -2.959,-0.313c-5.06,0.86 -5.63,6.47 -4.29,9.76c1.34,3.29 6.76,2 9.49,0.38c2.07,-1.26 4.76,0.06 5.93,0.76c0.193,0.113 0.357,0.269 0.479,0.457c0.122,0.187 0.197,0.401 0.221,0.623z"/>
  <path id="svg_83" fill="url(#paint60_linear)" d="m896.062,298.669c0,0 -2.08,-5.83 0.06,-7.26c2.14,-1.43 5.3,-0.68 4.6,3.54c-0.86,5.25 -4.66,3.72 -4.66,3.72z"/>
  <path id="svg_84" fill="url(#paint61_linear)" d="m940.102,381.789l-11.64,-1l-5.05,4.65c0,0 1.2,1.65 4.93,0.7c2.908,-0.64 5.865,-1.035 8.84,-1.18c0,0 5.15,2.32 5.21,-2l-2.29,-1.17z"/>
  <path id="svg_85" fill="url(#paint62_linear)" d="m849.892,363.639c-1,0.78 -4.46,-0.86 -6.57,-2c-0.501,-0.265 -0.893,-0.698 -1.108,-1.222c-0.216,-0.524 -0.241,-1.107 -0.072,-1.648c0.51,-1.6 1.36,-3.67 2.4,-3.93c1.73,-0.43 9.46,5.55 5.35,8.8z"/>
  <path id="svg_86" fill="white" d="m960.002,409.989c-0.091,0.002 -0.18,-0.028 -0.25,-0.086c-0.07,-0.057 -0.118,-0.138 -0.133,-0.228c-0.016,-0.089 0.001,-0.181 0.047,-0.26c0.047,-0.078 0.12,-0.137 0.206,-0.166c3.51,-1.21 5.35,-3.18 5.46,-5.85c0.031,-1.354 -0.362,-2.685 -1.124,-3.806c-0.762,-1.12 -1.855,-1.975 -3.126,-2.444l-14.79,-5.77c-0.053,-0.013 -0.101,-0.038 -0.143,-0.072c-0.042,-0.033 -0.077,-0.076 -0.101,-0.124c-0.024,-0.048 -0.038,-0.101 -0.04,-0.155c-0.003,-0.054 0.006,-0.107 0.026,-0.158c0.02,-0.05 0.051,-0.095 0.09,-0.132c0.039,-0.038 0.085,-0.066 0.136,-0.084c0.051,-0.019 0.105,-0.026 0.159,-0.021c0.053,0.004 0.105,0.02 0.153,0.046l14.79,5.77c1.422,0.525 2.643,1.483 3.492,2.739c0.848,1.256 1.281,2.746 1.238,4.261c-0.13,3 -2.14,5.21 -6,6.54l-0.09,0z"/>
  <path id="svg_87" fill="white" d="m941.882,389.659l-0.14,0l-1.91,-0.75c-0.091,-0.038 -0.164,-0.11 -0.203,-0.2c-0.039,-0.091 -0.041,-0.193 -0.006,-0.285c0.035,-0.093 0.105,-0.168 0.194,-0.209c0.089,-0.042 0.191,-0.048 0.285,-0.016l1.92,0.75c0.092,0.038 0.166,0.111 0.205,0.202c0.039,0.092 0.041,0.195 0.005,0.288c-0.03,0.068 -0.079,0.125 -0.142,0.164c-0.062,0.039 -0.135,0.059 -0.208,0.056z"/>
 </g>
</svg>