<svg width="800" height="370" xmlns="http://www.w3.org/2000/svg">
 <defs>
  <linearGradient y2="0.067125" x2="1.063521" y1="0.844155" x1="0.166962" id="paint0_linear">
   <stop stop-opacity="0.6" stop-color="#663A57"/>
   <stop stop-opacity="0.6" stop-color="#956684" offset="1"/>
  </linearGradient>
  <linearGradient y2="-246.352528" x2="713.169451" y1="567.129615" x1="300.629392" id="paint1_linear">
   <stop stop-opacity="0.6" stop-color="#663A57"/>
   <stop stop-opacity="0.6" stop-color="#956684" offset="1"/>
  </linearGradient>
  <linearGradient y2="343.120949" x2="988.134908" y1="343.120949" x1="1258.305759" id="paint2_linear">
   <stop stop-opacity="0.6" stop-color="#663A57"/>
   <stop stop-opacity="0.6" stop-color="#956684" offset="1"/>
  </linearGradient>
  <linearGradient y2="-90.814756" x2="1585.878318" y1="417.128771" x1="1129.655445" id="paint3_linear">
   <stop stop-opacity="0.6" stop-color="#663A57"/>
   <stop stop-opacity="0.6" stop-color="#956684" offset="1"/>
  </linearGradient>
  <linearGradient y2="0.500066" x2="0.000026" y1="0.500066" x1="0.999965" id="paint4_linear">
   <stop stop-color="#663A57"/>
   <stop stop-color="#956684" offset="1"/>
  </linearGradient>
  <linearGradient y2="335.272506" x2="239.976715" y1="490.710195" x1="74.309944" id="paint5_linear">
   <stop stop-opacity="0.6" stop-color="#663A57"/>
   <stop stop-opacity="0.6" stop-color="#956684" offset="1"/>
  </linearGradient>
  <linearGradient y2="277.351151" x2="253.719903" y1="277.351151" x1="30.839996" id="paint6_linear">
   <stop stop-opacity="0.6" stop-color="#663A57"/>
   <stop stop-opacity="0.6" stop-color="#956684" offset="1"/>
  </linearGradient>
  <linearGradient y2="0.966039" x2="-0.201056" y1="-0.202935" x1="1.446242" id="paint7_linear">
   <stop stop-color="#F18434"/>
   <stop stop-color="#BC5817" offset="1"/>
  </linearGradient>
  <linearGradient y2="181.254077" x2="318.628824" y1="101.409691" x1="388.31876" id="paint8_linear">
   <stop stop-color="#F18434"/>
   <stop stop-color="#BC5817" offset="1"/>
  </linearGradient>
  <linearGradient y2="0.500109" x2="1" y1="0.500109" x1="0" id="paint9_linear">
   <stop stop-color="#663A57"/>
   <stop stop-color="#39122E" offset="1"/>
  </linearGradient>
  <linearGradient y2="142.253245" x2="418.278926" y1="121.820203" x1="547.440327" id="paint10_linear">
   <stop stop-color="#F18434"/>
   <stop stop-color="#BC5817" offset="1"/>
  </linearGradient>
  <linearGradient y2="260.577834" x2="506.330199" y1="136.081479" x1="512.260869" id="paint11_linear">
   <stop stop-color="#663A57"/>
   <stop stop-color="#39122E" offset="1"/>
  </linearGradient>
  <linearGradient y2="0.951227" x2="0.06848" y1="-0.351523" x1="1.113245" id="paint12_linear">
   <stop stop-color="#F7EA4A"/>
   <stop stop-color="#D93D66" offset="1"/>
  </linearGradient>
  <linearGradient y2="141.835873" x2="669.828762" y1="110.119905" x1="802.550199" id="paint13_linear">
   <stop stop-color="#663A57"/>
   <stop stop-color="#39122E" offset="1"/>
  </linearGradient>
  <linearGradient y2="294.628244" x2="751.433258" y1="294.628244" x1="702.103585" id="paint14_linear">
   <stop stop-color="#F18434"/>
   <stop stop-color="#BC5817" offset="1"/>
  </linearGradient>
  <linearGradient y2="141.840128" x2="213.490485" y1="110.12014" x1="346.192429" id="paint15_linear">
   <stop stop-color="#663A57"/>
   <stop stop-color="#39122E" offset="1"/>
  </linearGradient>
  <linearGradient y2="226.897718" x2="345.351192" y1="133.339293" x1="849.386448" id="paint16_linear">
   <stop stop-color="#663A57"/>
   <stop stop-color="#39122E" offset="1"/>
  </linearGradient>
  <linearGradient y2="197.624885" x2="787.602509" y1="116.700657" x1="819.879717" id="paint17_linear">
   <stop stop-color="#F7EA4A"/>
   <stop stop-color="#D93D66" offset="1"/>
  </linearGradient>
  <linearGradient y2="218.939736" x2="829.488552" y1="123.720168" x1="833.676711" id="paint18_linear">
   <stop stop-color="#F7EA4A"/>
   <stop stop-color="#D93D66" offset="1"/>
  </linearGradient>
  <linearGradient y2="227.687827" x2="452.828847" y1="138.040597" x1="627.148082" id="paint19_linear">
   <stop stop-color="#663A57"/>
   <stop stop-color="#39122E" offset="1"/>
  </linearGradient>
  <linearGradient y2="165.438989" x2="245.23008" y1="36.030148" x1="781.551547" id="paint20_linear">
   <stop stop-color="#F18434"/>
   <stop stop-color="#BC5817" offset="1"/>
  </linearGradient>
  <linearGradient y2="334.984929" x2="1076.86993" y1="334.984929" x1="193.4104" id="paint21_linear">
   <stop stop-color="#663A57"/>
   <stop stop-color="#39122E" offset="1"/>
  </linearGradient>
  <linearGradient y2="487.45208" x2="7183.566944" y1="228.547668" x1="7192.96269" id="paint22_linear">
   <stop stop-color="#663A57"/>
   <stop stop-color="#39122E" offset="1"/>
  </linearGradient>
  <linearGradient y2="715.878528" x2="-2049.72195" y1="226.091822" x1="-1930.72856" id="paint23_linear">
   <stop stop-color="#F18434"/>
   <stop stop-color="#BC5817" offset="1"/>
  </linearGradient>
  <linearGradient y2="353.5701" x2="2495.501836" y1="270.062356" x1="2495.576833" id="paint24_linear">
   <stop stop-color="#663A57"/>
   <stop stop-color="#39122E" offset="1"/>
  </linearGradient>
  <linearGradient y2="1.509969" x2="0.128249" y1="-1.265363" x1="1.159252" id="paint25_linear">
   <stop stop-color="#937DB9"/>
   <stop stop-color="#DA99C4" offset="1"/>
  </linearGradient>
  <linearGradient y2="0.500016" x2="1.00002" y1="0.500016" x1="0.000009" id="paint26_linear">
   <stop stop-color="#7C4997"/>
   <stop stop-color="#EA4B7B" offset="1"/>
  </linearGradient>
  <linearGradient y2="0.6776" x2="0.265517" y1="0.238289" x1="1.100764" id="paint27_linear">
   <stop stop-color="#F9B877"/>
   <stop stop-color="#EF7A62" offset="1"/>
  </linearGradient>
  <linearGradient y2="3.239383" x2="-0.581207" y1="-0.216757" x1="0.529681" id="paint28_linear">
   <stop stop-color="#CC246E"/>
   <stop stop-color="#4C266C" offset="1"/>
  </linearGradient>
  <linearGradient y2="73.132639" x2="135.915834" y1="192.889158" x1="-262.848566" id="paint29_linear">
   <stop stop-color="#F9B877"/>
   <stop stop-color="#EF7A62" offset="1"/>
  </linearGradient>
  <linearGradient y2="-1275.03402" x2="-6140.025177" y1="-1372.537436" x1="-6069.331745" id="paint30_linear">
   <stop stop-color="#CC246E"/>
   <stop stop-color="#4C266C" offset="1"/>
  </linearGradient>
  <linearGradient y2="183.8077" x2="-6122.672252" y1="253.061015" x1="-6119.654815" id="paint31_linear">
   <stop stop-color="#663A57"/>
   <stop stop-color="#39122E" offset="1"/>
  </linearGradient>
  <linearGradient y2="312.96527" x2="-580.172105" y1="70.300132" x1="-361.554343" id="paint32_linear">
   <stop stop-color="#F18434"/>
   <stop stop-color="#BC5817" offset="1"/>
  </linearGradient>
  <linearGradient y2="47.723234" x2="-5919.252703" y1="90.711092" x1="-5928.46789" id="paint33_linear">
   <stop stop-color="#F9B877"/>
   <stop stop-color="#EF7A62" offset="1"/>
  </linearGradient>
  <linearGradient y2="-1145.411579" x2="-6163.550407" y1="-1133.209721" x1="-6109.277033" id="paint34_linear">
   <stop stop-color="#F9B877"/>
   <stop stop-color="#EF7A62" offset="1"/>
  </linearGradient>
  <linearGradient y2="-3546.996148" x2="-5208.049561" y1="-3665.575524" x1="-5194.5232" id="paint35_linear">
   <stop stop-color="#663A57"/>
   <stop stop-color="#39122E" offset="1"/>
  </linearGradient>
  <linearGradient y2="-275.636359" x2="-6315.25263" y1="-262.633736" x1="-6260.48782" id="paint36_linear">
   <stop stop-color="#F9B877"/>
   <stop stop-color="#EF7A62" offset="1"/>
  </linearGradient>
  <linearGradient y2="145.994641" x2="-6256.258951" y1="145.994641" x1="-6157.165254" id="paint37_linear">
   <stop stop-color="#F9B877"/>
   <stop stop-color="#EF7A62" offset="1"/>
  </linearGradient>
  <linearGradient y2="-5114.022191" x2="-5273.490364" y1="-5253.649305" x1="-5258.315966" id="paint38_linear">
   <stop stop-color="#663A57"/>
   <stop stop-color="#39122E" offset="1"/>
  </linearGradient>
  <linearGradient y2="-2961.06335" x2="-6059.619239" y1="-3150.067303" x1="-6063.540614" id="paint39_linear">
   <stop stop-color="#663A57"/>
   <stop stop-color="#39122E" offset="1"/>
  </linearGradient>
  <linearGradient y2="165.474211" x2="-6058.79144" y1="111.36915" x1="-6079.460651" id="paint40_linear">
   <stop stop-color="#663A57"/>
   <stop stop-color="#39122E" offset="1"/>
  </linearGradient>
  <linearGradient y2="0.502661" x2="-0.000714" y1="0.502661" x1="1.000001" id="paint41_linear">
   <stop stop-color="#6CC9F0"/>
   <stop stop-color="#3C519F" offset="1"/>
  </linearGradient>
  <linearGradient y2="0.50004" x2="0" y1="0.50004" x1="1.000001" id="paint42_linear">
   <stop stop-color="#2A3780"/>
   <stop stop-color="#201D3F" offset="1"/>
  </linearGradient>
  <linearGradient y2="325.504077" x2="2953.603259" y1="325.504077" x1="2961.143633" id="paint43_linear">
   <stop stop-color="#F9B877"/>
   <stop stop-color="#EF7A62" offset="1"/>
  </linearGradient>
  <linearGradient y2="337.469481" x2="-3593.08719" y1="337.469481" x1="-3603.366192" id="paint44_linear">
   <stop stop-color="#6CC9F0"/>
   <stop stop-color="#3C519F" offset="1"/>
  </linearGradient>
  <linearGradient y2="329.591868" x2="-3588.017169" y1="329.591868" x1="-3603.091868" id="paint45_linear">
   <stop stop-color="#2A3780"/>
   <stop stop-color="#201D3F" offset="1"/>
  </linearGradient>
  <linearGradient y2="319.185793" x2="3080.573904" y1="319.185793" x1="3089.60841" id="paint46_linear">
   <stop stop-color="#F9B877"/>
   <stop stop-color="#EF7A62" offset="1"/>
  </linearGradient>
  <linearGradient y2="264.639262" x2="3375.448588" y1="345.589576" x1="3554.228833" id="paint47_linear">
   <stop stop-color="#663A57"/>
   <stop stop-color="#39122E" offset="1"/>
  </linearGradient>
  <linearGradient y2="235.819962" x2="3677.68746" y1="130.760674" x1="3405.592219" id="paint48_linear">
   <stop stop-color="#F18434"/>
   <stop stop-color="#BC5817" offset="1"/>
  </linearGradient>
  <linearGradient y2="276.733747" x2="3196.419888" y1="285.779931" x1="3199.948899" id="paint49_linear">
   <stop stop-color="#663A57"/>
   <stop stop-color="#39122E" offset="1"/>
  </linearGradient>
  <linearGradient y2="198.024738" x2="3269.504734" y1="187.625181" x1="3221.376192" id="paint50_linear">
   <stop stop-color="#F9B877"/>
   <stop stop-color="#EF7A62" offset="1"/>
  </linearGradient>
  <linearGradient y2="183.517097" x2="3626.648675" y1="111.690642" x1="3327.284425" id="paint51_linear">
   <stop stop-color="#F18434"/>
   <stop stop-color="#BC5817" offset="1"/>
  </linearGradient>
  <linearGradient y2="206.476457" x2="3554.480673" y1="148.916007" x1="3242.705749" id="paint52_linear">
   <stop stop-color="#F18434"/>
   <stop stop-color="#BC5817" offset="1"/>
  </linearGradient>
  <linearGradient y2="190.317213" x2="3298.312832" y1="190.317213" x1="3323.622687" id="paint53_linear">
   <stop stop-color="#F9B877"/>
   <stop stop-color="#EF7A62" offset="1"/>
  </linearGradient>
  <linearGradient y2="169.938545" x2="3285.196528" y1="122.680063" x1="3284.720456" id="paint54_linear">
   <stop stop-color="#F9B877"/>
   <stop stop-color="#EF7A62" offset="1"/>
  </linearGradient>
  <linearGradient y2="208.850616" x2="-3456.064125" y1="208.850616" x1="-3588.585261" id="paint55_linear">
   <stop stop-color="#2A3780"/>
   <stop stop-color="#201D3F" offset="1"/>
  </linearGradient>
  <linearGradient y2="150.088934" x2="3308.433494" y1="150.088934" x1="3430.079811" id="paint56_linear">
   <stop stop-color="#937DB9"/>
   <stop stop-color="#DA99C4" offset="1"/>
  </linearGradient>
  <linearGradient y2="150.090744" x2="-3334.89922" y1="150.090744" x1="-3470.256633" id="paint57_linear">
   <stop stop-color="#2A3780"/>
   <stop stop-color="#201D3F" offset="1"/>
  </linearGradient>
  <linearGradient y2="1556.223602" x2="3264.785068" y1="1531.974708" x1="3233.526062" id="paint58_linear">
   <stop stop-color="#F9B877"/>
   <stop stop-color="#EF7A62" offset="1"/>
  </linearGradient>
  <linearGradient y2="1611.251979" x2="3379.868183" y1="1614.15536" x1="3407.372684" id="paint59_linear">
   <stop stop-color="#663A57"/>
   <stop stop-color="#39122E" offset="1"/>
  </linearGradient>
  <linearGradient y2="1417.439352" x2="2747.776514" y1="1432.409233" x1="2770.33277" id="paint60_linear">
   <stop stop-color="#F9B877"/>
   <stop stop-color="#EF7A62" offset="1"/>
  </linearGradient>
  <linearGradient y2="260.141838" x2="3312.394669" y1="201.963665" x1="3306.588235" id="paint61_linear">
   <stop stop-color="#F9B877"/>
   <stop stop-color="#EF7A62" offset="1"/>
  </linearGradient>
  <linearGradient y2="187.346014" x2="2987.644347" y1="187.346014" x1="2996.706024" id="paint62_linear">
   <stop stop-color="#F9B877"/>
   <stop stop-color="#EF7A62" offset="1"/>
  </linearGradient>
 </defs>
 <g>
  <title>background</title>
  <rect fill="none" id="canvas_background" height="372" width="802" y="-1" x="-1"/>
 </g>
 <g>
  <title>Layer 1</title>
  <g id="svg_1" opacity="0.3">
   <g id="svg_2" opacity="0.5">
    <g id="svg_3" opacity="0.6">
     <path id="svg_4" fill="url(#paint0_linear)" d="m136.234,311.401c7.428,61.171 81.311,65.416 158.298,54.346c109.752,-15.773 130.372,104.839 253.455,47.651c87.947,-40.877 134.581,-303.818 -168.226,-274.933c-75.519,7.203 -119.681,12.465 -164.92,39.133c-38.827,22.888 -84.138,88.231 -78.607,133.803z" opacity="0.42"/>
     <path id="svg_5" fill="url(#paint1_linear)" d="m150.647,281.23c-30.527,72.684 53.154,106.046 125.743,83.499c135.846,-42.2 187.437,103.836 286.199,29.074c75.591,-57.246 78.07,-257.461 -118.729,-252.351c-109.163,2.813 -241.622,16.812 -293.213,139.778z" opacity="0.62"/>
    </g>
    <path id="svg_6" fill="url(#paint2_linear)" d="m483.713,401.544c-0.332,-0.311 -0.575,-0.706 -0.702,-1.142c-0.128,-0.437 -0.135,-0.9 -0.023,-1.341c0.113,-0.44 0.343,-0.843 0.665,-1.164c0.321,-0.322 0.724,-0.551 1.165,-0.664c21.805,-5.087 111.998,-31.254 92.533,-111.038c-22.081,-90.579 -33.972,-115.255 2.733,-154.889c33.435,-36.0879 68.446,-39.0243 97.716,-31.174c0.435,0.124 0.816,0.39 1.082,0.755c0.266,0.366 0.402,0.81 0.387,1.262c-0.015,0.452 -0.18,0.886 -0.47,1.232c-0.29,0.347 -0.688,0.588 -1.13,0.683c-17.873,3.394 -58.147,14.464 -67.596,46.328c-12.189,41.263 7.865,133.978 -23.484,185.627c-30.97,51.024 -64.993,56.381 -100.587,66.092c-0.399,0.109 -0.82,0.114 -1.222,0.015c-0.402,-0.099 -0.772,-0.3 -1.074,-0.582l0.007,0z" opacity="0.6"/>
    <path id="svg_7" fill="url(#paint3_linear)" d="m787.131,184.503c0.501,-0.295 0.922,-0.709 1.224,-1.207c0.301,-0.497 0.475,-1.061 0.504,-1.642c0.03,-0.581 -0.086,-1.16 -0.335,-1.685c-0.25,-0.526 -0.626,-0.981 -1.095,-1.325c-5.604,-4.048 -15.387,-12.698 -23.753,-28.252c-8.366,-15.554 -30.68,-49.468 -77.379,-40.703c-46.699,8.766 -62.254,90.906 -71.695,171.81c-9.442,80.904 -100.762,110.254 -100.762,110.254l-24.501,9.449c0,0 87.009,-14.079 120.284,-74.668c33.274,-60.589 28.506,-154.359 81.783,-152.789c51.17,1.512 58.155,32.192 95.725,10.758z"/>
    <path id="svg_8" fill="url(#paint4_linear)" d="m795.911,276.644c0.585,0.232 1.229,0.273 1.839,0.118c0.609,-0.155 1.155,-0.499 1.558,-0.983c0.403,-0.483 0.642,-1.081 0.685,-1.709c0.043,-0.628 -0.114,-1.254 -0.448,-1.787c-8.373,-14.217 -27.772,-40.405 -56.773,-39.627c-39.736,1.054 -68.969,19.123 -107.048,83.586c-37.011,62.653 -121.666,84.407 -144.547,84.96c-0.52,0.011 -1.018,0.207 -1.406,0.554c-0.388,0.346 -0.639,0.82 -0.709,1.336c-0.053,0.323 -0.033,0.655 0.058,0.97c0.091,0.316 0.25,0.607 0.467,0.853c0.217,0.246 0.486,0.441 0.787,0.571c0.302,0.129 0.628,0.19 0.956,0.179c16.078,-0.8 100.522,-5.982 143.187,-28.594c44.722,-23.724 110.457,-121.055 161.394,-100.427z" opacity="0.6"/>
    <path id="svg_9" fill="white" d="m772.173,258.015c-3.144,-1.275 -6.396,-2.262 -9.718,-2.951c-3.324,-0.723 -6.696,-1.209 -10.089,-1.453c-1.693,-0.153 -3.394,-0.16 -5.087,-0.204c-1.694,-0.044 -3.395,0 -5.088,0.167c-3.387,0.215 -6.756,0.642 -10.089,1.279c-6.651,1.336 -13.112,3.492 -19.232,6.418c-6.118,2.966 -11.92,6.54 -17.321,10.67c-10.822,8.235 -19.988,18.491 -28.012,29.495c-1.962,2.799 -3.859,5.612 -5.814,8.453c-1.956,2.842 -3.809,5.75 -5.815,8.548l-2.951,4.267l-3.082,4.157c-2.021,2.798 -4.208,5.473 -6.323,8.206c-4.361,5.35 -8.846,10.619 -13.65,15.598c-4.797,4.996 -9.866,9.723 -15.184,14.159c-10.682,8.868 -22.617,16.106 -35.419,21.478c-12.77,5.371 -26.166,8.933 -39.707,11.557c-6.76,1.322 -13.555,2.442 -20.351,3.474c-6.796,1.032 -13.607,1.991 -20.417,2.907c-0.043,0.007 -0.086,0.006 -0.128,-0.004c-0.042,-0.01 -0.082,-0.029 -0.117,-0.055c-0.034,-0.025 -0.063,-0.058 -0.085,-0.095c-0.022,-0.038 -0.036,-0.079 -0.041,-0.122c-0.007,-0.042 -0.006,-0.085 0.004,-0.127c0.009,-0.041 0.027,-0.08 0.052,-0.115c0.025,-0.035 0.057,-0.064 0.094,-0.086c0.036,-0.022 0.077,-0.037 0.119,-0.043c13.556,-2.275 27.147,-4.361 40.558,-7.268c6.701,-1.454 13.366,-3.075 19.922,-5.022c6.558,-1.926 12.99,-4.254 19.261,-6.971c12.517,-5.464 24.181,-12.702 34.634,-21.492c5.22,-4.395 10.192,-9.076 14.893,-14.021c4.717,-4.943 9.122,-10.176 13.417,-15.489c2.079,-2.718 4.231,-5.379 6.222,-8.162l3.038,-4.136l2.908,-4.208c1.991,-2.784 3.83,-5.677 5.749,-8.512c1.919,-2.834 3.896,-5.72 5.887,-8.54c8.199,-11.15 17.583,-21.573 28.71,-29.968c11.128,-8.395 24.022,-14.536 37.796,-17.022c3.43,-0.609 6.898,-0.983 10.379,-1.119c1.737,-0.102 3.482,-0.051 5.219,-0.044c1.737,0.007 3.474,0.145 5.204,0.349c6.943,0.591 13.743,2.309 20.133,5.088c0.133,0.06 0.236,0.17 0.288,0.306c0.052,0.136 0.048,0.287 -0.011,0.421c-0.029,0.066 -0.07,0.127 -0.122,0.178c-0.053,0.05 -0.114,0.09 -0.182,0.116c-0.068,0.027 -0.14,0.039 -0.213,0.037c-0.072,-0.002 -0.144,-0.018 -0.21,-0.048l-0.029,-0.051z" opacity="0.71"/>
    <path id="svg_10" fill="white" d="m783.569,180.505c-4.836,0.086 -9.635,-0.858 -14.078,-2.769c-4.473,-1.883 -8.581,-4.535 -12.139,-7.836c-1.76,-1.669 -3.4,-3.462 -4.906,-5.364c-1.487,-1.912 -2.852,-3.917 -4.085,-6.003c-0.596,-1.047 -1.184,-2.108 -1.729,-3.184l-1.556,-3.205c-1.037,-2.061 -2.22,-4.045 -3.54,-5.938c-5.293,-7.652 -12.043,-14.185 -19.864,-19.225c-3.857,-2.505 -8.036,-4.475 -12.422,-5.859c-2.176,-0.664 -4.403,-1.15 -6.658,-1.453c-2.248,-0.286 -4.517,-0.376 -6.781,-0.269c-1.134,0.043 -2.253,0.189 -3.372,0.327c-1.12,0.138 -2.232,0.385 -3.329,0.683c-2.201,0.553 -4.345,1.312 -6.404,2.268c-2.077,0.95 -4.071,2.074 -5.96,3.358c-1.911,1.278 -3.736,2.679 -5.466,4.194c-6.926,6.127 -12.458,13.81 -17.189,21.87c-2.377,4.049 -4.485,8.25 -6.491,12.509c-2.006,4.259 -3.816,8.613 -5.553,13.003c-3.453,8.788 -6.36,17.793 -9.071,26.893c-0.016,0.057 -0.043,0.109 -0.079,0.155c-0.037,0.046 -0.082,0.084 -0.134,0.112c-0.051,0.027 -0.108,0.044 -0.166,0.05c-0.059,0.005 -0.118,-0.001 -0.173,-0.019c-0.108,-0.032 -0.2,-0.104 -0.256,-0.201c-0.057,-0.097 -0.075,-0.212 -0.05,-0.322c2.205,-9.245 4.874,-18.374 7.996,-27.351c1.591,-4.492 3.307,-8.933 5.233,-13.301c1.891,-4.393 4.004,-8.686 6.331,-12.865c4.651,-8.351 10.255,-16.332 17.487,-22.874c3.626,-3.305 7.724,-6.051 12.16,-8.148c2.236,-1.049 4.568,-1.882 6.963,-2.485c1.192,-0.327 2.413,-0.538 3.635,-0.764c1.221,-0.225 2.456,-0.319 3.692,-0.37c2.472,-0.136 4.952,-0.039 7.406,0.291c2.44,0.346 4.847,0.895 7.196,1.642c4.657,1.471 9.095,3.564 13.192,6.222c8.107,5.347 15.057,12.268 20.439,20.351c1.35,2.027 2.55,4.151 3.59,6.353l1.454,3.22c0.502,1.046 1.047,2.071 1.592,3.096c1.119,2.03 2.362,3.989 3.721,5.866c1.383,1.857 2.896,3.613 4.528,5.255c3.274,3.305 7.102,6.011 11.31,7.995c2.102,0.986 4.292,1.772 6.541,2.348c2.252,0.608 4.567,0.95 6.898,1.017c0.048,0 0.094,0.01 0.138,0.028c0.044,0.018 0.083,0.045 0.117,0.079c0.033,0.034 0.059,0.074 0.076,0.118c0.018,0.044 0.026,0.091 0.025,0.139c0.006,0.082 -0.018,0.164 -0.067,0.231c-0.05,0.066 -0.121,0.113 -0.202,0.132z" opacity="0.71"/>
    <path id="svg_11" fill="url(#paint5_linear)" d="m168.04,415.244c0,0 9.936,-115.959 -54.36,-151.654c-61.6793,-34.249 -78.8981,-3.925 -107.17204,-49.403c-0.28406,-0.455 -0.70112,-0.81 -1.19449,-1.02c-0.49338,-0.209 -1.03916,-0.261 -1.56317,-0.149c-0.52402,0.112 -1.00087,0.383 -1.36575,0.775c-0.36488,0.393 -0.60011,0.888 -0.67371,1.419c-3.39433,26.013 -9.13635,114.113 65.32086,131.659c85.9923,20.271 101.0083,68.373 101.0083,68.373z"/>
    <path id="svg_12" fill="white" d="m13.144,240.694c0.7092,2.24 1.6165,4.412 2.7111,6.491c0.5742,1.032 1.083,2.108 1.7081,3.111l1.8534,3.024c1.381,1.926 2.6602,3.925 4.1938,5.734c0.7269,0.923 1.4537,1.861 2.2314,2.77l2.3986,2.624c6.5136,6.909 13.8345,13.01 21.8051,18.17c7.8644,5.335 16.4411,9.5 25.0613,13.454l6.607,2.668c2.1805,0.894 4.361,1.788 6.6578,2.653l3.358,1.315l3.3217,1.418c2.2314,0.908 4.361,1.984 6.5847,2.987c4.361,2.129 8.628,4.361 12.742,6.898c2.093,1.213 4.092,2.594 6.127,3.91c2.035,1.315 3.969,2.776 5.866,4.295c7.745,5.931 14.618,12.921 20.417,20.766c5.73,7.892 10.428,16.486 13.977,25.57c3.634,9.006 6.316,18.295 9.027,27.446c0.095,0.317 0.127,0.649 0.094,0.979c-0.033,0.329 -0.13,0.648 -0.287,0.94c-0.157,0.292 -0.369,0.549 -0.625,0.759c-0.256,0.209 -0.551,0.366 -0.868,0.462c-0.317,0.095 -0.65,0.127 -0.979,0.094c-0.329,-0.033 -0.649,-0.131 -0.941,-0.287c-0.291,-0.157 -0.549,-0.369 -0.758,-0.625c-0.21,-0.257 -0.367,-0.552 -0.462,-0.869l0,-0.043c-2.559,-9.224 -5.045,-18.375 -8.417,-27.177c-3.266,-8.805 -7.646,-17.156 -13.032,-24.85c-5.453,-7.655 -11.954,-14.506 -19.312,-20.352c-1.81,-1.504 -3.736,-2.863 -5.626,-4.266c-1.89,-1.403 -3.874,-2.689 -5.902,-3.911c-3.976,-2.551 -8.141,-4.797 -12.356,-6.955c-2.1371,-1.025 -4.2376,-2.115 -6.4181,-3.053l-3.249,-1.454l-3.2926,-1.359c-2.1805,-0.879 -4.4046,-1.824 -6.6215,-2.769l-6.6433,-2.82c-8.7147,-4.172 -17.3205,-8.541 -25.2139,-14.094c-7.9985,-5.373 -15.3197,-11.691 -21.8052,-18.818c-6.367,-7.195 -12.0582,-15.198 -15.0019,-24.559c-0.0443,-0.143 -0.0302,-0.297 0.0394,-0.43c0.0695,-0.132 0.1887,-0.231 0.3313,-0.275c0.1427,-0.045 0.2971,-0.031 0.4293,0.039c0.1322,0.069 0.2314,0.189 0.2758,0.331l-0.0073,0.058z" opacity="0.69"/>
    <path id="svg_13" fill="url(#paint6_linear)" d="m180.731,403.164l-8.504,-5.036c4.288,-66.019 -7.734,-187.292 -73.7087,-220.341c-44.6787,-22.379 -61.2942,-47.332 -57.9653,-100.638c2.2241,-35.5642 -9.5724,-60.1458 -17.6694,-72.56746c-0.3565,-0.5431 -0.5243,-1.18845 -0.4775,-1.83641c0.0468,-0.64796 0.3056,-1.26249 0.7364,-1.74873c0.4309,-0.48624 1.0098,-0.81713 1.6474,-0.9416c0.6376,-0.12446 1.2985,-0.03558 1.8805,0.25294c27.2419,13.43926 98.2176,53.18996 130.6856,116.39526c40.644,79.117 23.375,286.461 23.375,286.461z"/>
    <path id="svg_14" fill="white" d="m68.7252,44.5358c3.372,1.9339 6.5829,4.1361 9.6015,6.5852c1.5046,1.1992 3.0237,2.384 4.441,3.6778l2.1805,1.9043l1.083,0.9521l1.0321,1.0031l4.1357,4.0048c1.3374,1.3738 2.6312,2.7911 3.954,4.1866l1.9625,2.0933c0.6541,0.7268 1.2501,1.4537 1.8825,2.1805l3.721,4.361c9.674,11.8861 18.247,24.6265 25.614,38.0645l2.806,5.008l0.727,1.25l0.639,1.287l1.287,2.565l5.131,10.263l4.666,10.481l2.326,5.241c0.727,1.766 1.403,3.554 2.108,5.335l4.143,10.728c0.727,1.773 1.345,3.583 1.977,5.386l1.904,5.415c1.192,3.634 2.392,7.268 3.526,10.902l1.635,5.495l0.821,2.755l0.727,2.762c4.09,14.74 7.504,29.638 10.241,44.693c2.738,15.055 4.919,30.178 6.542,45.369c0.828,7.596 1.453,15.213 2.079,22.83c0.625,7.617 1.003,15.264 1.33,22.881c0.327,7.617 0.516,15.263 0.574,22.917c0.058,7.654 0,15.264 -0.313,22.99c-0.028,0.667 -0.319,1.295 -0.811,1.747c-0.491,0.452 -1.142,0.69 -1.809,0.662c-0.667,-0.028 -1.295,-0.319 -1.747,-0.811c-0.452,-0.491 -0.69,-1.142 -0.662,-1.809l0,-0.058c0.37,-7.501 0.472,-15.125 0.479,-22.699c0.008,-7.574 -0.145,-15.176 -0.414,-22.757c-0.269,-7.581 -0.647,-15.169 -1.148,-22.743c-0.502,-7.574 -1.134,-15.14 -1.905,-22.692c-1.512,-15.108 -3.568,-30.144 -6.171,-45.107c-2.602,-14.964 -5.87,-29.779 -9.805,-44.447l-0.726,-2.747l-0.8,-2.733l-1.584,-5.458c-1.098,-3.635 -2.261,-7.269 -3.409,-10.852l-1.854,-5.35c-0.61,-1.795 -1.214,-3.59 -1.911,-5.356l-4.071,-10.634c-0.69,-1.766 -1.337,-3.547 -2.057,-5.299l-2.267,-5.218l-4.55,-10.423l-5.015,-10.176l-1.258,-2.551l-0.625,-1.279l-0.683,-1.243l-2.74,-4.979c-7.193,-13.341 -15.579,-26.0029 -25.054,-37.832l-3.6346,-4.361c-0.6178,-0.7268 -1.1993,-1.4537 -1.8389,-2.1805l-1.9262,-2.086c-1.2865,-1.381 -2.5511,-2.7838 -3.8594,-4.1503l-4.0413,-3.9685l-1.0321,-0.9958l-1.0539,-0.9449l-2.1005,-1.8897c-1.381,-1.2865 -2.8565,-2.4567 -4.3611,-3.6342c-1.5045,-1.1775 -2.9873,-2.2823 -4.4918,-3.4089c-1.5046,-1.1266 -3.1181,-2.1296 -4.6736,-2.9946l-0.0654,0c-0.2747,-0.1532 -0.4773,-0.4093 -0.5631,-0.7119c-0.0859,-0.3026 -0.0481,-0.6269 0.1052,-0.9016c0.1532,-0.2747 0.4093,-0.4773 0.7119,-0.5632c0.3027,-0.0858 0.627,-0.048 0.9017,0.1053l0.0363,-0.0364z" opacity="0.69"/>
   </g>
  </g>
  <path id="svg_15" fill="url(#paint7_linear)" d="m231.637,369.802l0,-140.555c-0.006,-1.556 0.474,-3.074 1.373,-4.344c0.9,-1.269 2.173,-2.225 3.642,-2.736c15.365,-5.238 30.728,-4.511 46.089,2.181c1.614,0.69 2.974,1.864 3.893,3.36c0.919,1.496 1.351,3.239 1.238,4.991l-9.347,136.791l-46.888,0.312z"/>
  <path id="svg_16" fill="url(#paint8_linear)" d="m240.453,235.163l0,34.234c0,1.336 0.51,2.621 1.426,3.592c0.916,0.972 2.169,1.556 3.502,1.634l24.887,1.454c1.349,0.08 2.676,-0.364 3.705,-1.238c1.029,-0.875 1.681,-2.114 1.819,-3.458l3.634,-35.207c0.143,-1.375 -0.262,-2.75 -1.128,-3.826c-0.866,-1.077 -2.121,-1.768 -3.494,-1.924c-7.385,-0.821 -21.079,-1.977 -29.997,-0.472c-1.225,0.212 -2.336,0.852 -3.133,1.806c-0.798,0.955 -1.23,2.162 -1.221,3.405z"/>
  <path id="svg_17" fill="url(#paint9_linear)" d="m289.697,236.929l-8.286,132.539l49.679,0l0,-128.817c-0.003,-1.807 -0.57,-3.567 -1.623,-5.035c-1.054,-1.467 -2.539,-2.569 -4.25,-3.15c-6.541,-2.245 -17.749,-5.087 -28.732,-3.103c-1.814,0.321 -3.469,1.24 -4.699,2.612c-1.231,1.371 -1.966,3.116 -2.089,4.954z"/>
  <path id="svg_18" fill="white" d="m289.827,320.421l-1.679,36.959c-0.032,0.726 0.083,1.451 0.338,2.131c0.256,0.68 0.646,1.301 1.148,1.826c0.502,0.525 1.105,0.943 1.773,1.229c0.668,0.285 1.386,0.433 2.113,0.433l25.097,0c1.427,0 2.795,-0.567 3.804,-1.575c1.008,-1.009 1.575,-2.377 1.575,-3.804l0,-36.952c0,-1.427 -0.567,-2.795 -1.575,-3.803c-1.009,-1.009 -2.377,-1.576 -3.804,-1.576l-23.411,0c-1.385,-0.001 -2.717,0.531 -3.718,1.487c-1.002,0.956 -1.597,2.262 -1.661,3.645z" opacity="0.57"/>
  <path id="svg_19" fill="url(#paint10_linear)" d="m378.923,369.49l0,-137.009c0.004,-1.667 -0.527,-3.291 -1.514,-4.633c-0.988,-1.343 -2.381,-2.333 -3.973,-2.824c-11.102,-3.353 -22.951,-3.315 -34.031,0.109c-1.442,0.444 -2.703,1.339 -3.599,2.553c-0.896,1.214 -1.38,2.683 -1.38,4.192l0,137.612l44.497,0z"/>
  <path id="svg_20" fill="#39122E" d="m338.831,234.748l1.076,20.228c0.065,1.215 0.593,2.357 1.477,3.193c0.883,0.836 2.053,1.301 3.269,1.299l23.855,0c1.232,-0.001 2.415,-0.481 3.301,-1.338c0.885,-0.857 1.403,-2.024 1.445,-3.255l0.647,-19.952c0.037,-1.11 -0.315,-2.197 -0.996,-3.073c-0.682,-0.877 -1.649,-1.487 -2.733,-1.724c-5.815,-1.243 -17.175,-2.966 -27.714,-0.24c-1.075,0.264 -2.025,0.893 -2.687,1.78c-0.661,0.887 -0.994,1.977 -0.94,3.082z"/>
  <path id="svg_21" fill="url(#paint11_linear)" d="m340.684,268.183c0.083,1.199 0.617,2.322 1.496,3.142c0.878,0.82 2.034,1.276 3.236,1.277l22.815,0c0.632,-0.001 1.257,-0.127 1.839,-0.372c0.582,-0.246 1.11,-0.604 1.552,-1.056c0.442,-0.451 0.789,-0.986 1.022,-1.573c0.233,-0.587 0.346,-1.215 0.334,-1.847c-0.027,-1.241 -0.539,-2.423 -1.426,-3.293c-0.887,-0.869 -2.079,-1.357 -3.321,-1.358l-22.815,0c-0.651,0 -1.295,0.134 -1.893,0.394c-0.597,0.26 -1.134,0.641 -1.578,1.117c-0.443,0.477 -0.784,1.039 -1.001,1.653c-0.217,0.614 -0.306,1.267 -0.26,1.916z"/>
  <path id="svg_22" fill="url(#paint12_linear)" d="m533.754,236.929c0,0 -4.056,-25.228 8.33,-33.391c0.127,-0.082 0.275,-0.127 0.427,-0.132c0.152,-0.004 0.302,0.033 0.435,0.108c0.132,0.075 0.241,0.184 0.316,0.317c0.075,0.132 0.112,0.282 0.108,0.434l0,4.797c0.006,0.25 0.083,0.493 0.223,0.701c0.139,0.207 0.335,0.37 0.565,0.47c0.229,0.099 0.482,0.131 0.729,0.091c0.247,-0.04 0.477,-0.15 0.664,-0.317c2.667,-2.508 7.435,-6.331 12.494,-7.123c0.303,-0.051 0.614,-0.019 0.9,0.093c0.286,0.112 0.536,0.3 0.724,0.544c0.187,0.243 0.305,0.533 0.34,0.838c0.036,0.306 -0.013,0.615 -0.14,0.894c-3.103,6.637 -11.229,25.229 -10.902,37.404l-15.213,-5.728z"/>
  <path id="svg_23" fill="url(#paint13_linear)" d="m520.605,236.929l-8.293,132.561l49.68,0l0,-128.839c-0.002,-1.807 -0.569,-3.568 -1.622,-5.036c-1.054,-1.467 -2.54,-2.569 -4.251,-3.149c-6.542,-2.245 -17.75,-5.087 -28.725,-3.103c-1.815,0.318 -3.471,1.237 -4.702,2.609c-1.231,1.372 -1.966,3.118 -2.087,4.957z"/>
  <path id="svg_24" fill="url(#paint14_linear)" d="m520.736,320.421l-1.686,36.959c-0.032,0.726 0.083,1.451 0.338,2.131c0.255,0.68 0.646,1.301 1.148,1.826c0.502,0.525 1.105,0.943 1.772,1.229c0.668,0.285 1.387,0.433 2.113,0.433l25.069,0c1.427,0 2.795,-0.567 3.803,-1.575c1.009,-1.009 1.576,-2.377 1.576,-3.804l0,-36.952c0,-1.427 -0.567,-2.795 -1.576,-3.803c-1.008,-1.009 -2.376,-1.576 -3.803,-1.576l-23.382,0c-1.384,-0.001 -2.715,0.532 -3.716,1.488c-1.001,0.956 -1.594,2.261 -1.656,3.644z"/>
  <path id="svg_25" fill="url(#paint15_linear)" d="m195.68,229.363c-1.815,0.319 -3.47,1.239 -4.701,2.61c-1.231,1.372 -1.966,3.117 -2.087,4.956l-8.286,132.539l49.679,0l0,-128.818c-0.003,-1.806 -0.57,-3.566 -1.623,-5.034c-1.054,-1.467 -2.539,-2.569 -4.25,-3.15c-6.578,-2.246 -17.749,-5.051 -28.732,-3.103z"/>
  <path id="svg_26" fill="#663A57" d="m189.022,320.421l-1.679,36.959c-0.032,0.726 0.083,1.451 0.338,2.131c0.256,0.68 0.646,1.301 1.148,1.826c0.502,0.525 1.105,0.943 1.773,1.229c0.668,0.285 1.386,0.433 2.113,0.433l25.097,0c1.427,0 2.795,-0.567 3.804,-1.575c1.008,-1.009 1.575,-2.377 1.575,-3.804l0,-36.952c0,-1.427 -0.567,-2.795 -1.575,-3.803c-1.009,-1.009 -2.377,-1.576 -3.804,-1.576l-23.418,0c-1.384,0.001 -2.714,0.534 -3.714,1.49c-1,0.955 -1.594,2.26 -1.658,3.642z"/>
  <path id="svg_27" fill="url(#paint16_linear)" d="m609.817,369.49l0,-137.009c0.005,-1.667 -0.526,-3.291 -1.514,-4.633c-0.988,-1.343 -2.381,-2.333 -3.973,-2.825c-11.099,-3.353 -22.946,-3.315 -34.023,0.109c-1.444,0.444 -2.707,1.338 -3.604,2.552c-0.898,1.214 -1.382,2.684 -1.382,4.193l0,137.613l44.496,0z"/>
  <path id="svg_28" fill="url(#paint17_linear)" d="m569.732,234.748l1.083,20.228c0.064,1.214 0.591,2.357 1.473,3.193c0.882,0.836 2.051,1.301 3.266,1.299l23.826,0c1.233,0.003 2.419,-0.476 3.305,-1.334c0.887,-0.857 1.404,-2.027 1.441,-3.259l0.647,-19.952c0.038,-1.11 -0.315,-2.197 -0.996,-3.073c-0.681,-0.877 -1.648,-1.487 -2.732,-1.724c-5.815,-1.243 -17.168,-2.966 -27.707,-0.24c-1.071,0.268 -2.016,0.899 -2.674,1.786c-0.657,0.887 -0.986,1.974 -0.932,3.076z"/>
  <path id="svg_29" fill="url(#paint18_linear)" d="m571.586,268.183c0.083,1.2 0.618,2.324 1.498,3.144c0.88,0.821 2.038,1.276 3.241,1.275l22.808,0c0.632,-0.001 1.257,-0.127 1.839,-0.372c0.582,-0.246 1.109,-0.604 1.551,-1.056c0.442,-0.451 0.79,-0.986 1.023,-1.573c0.232,-0.587 0.346,-1.215 0.333,-1.847c-0.025,-1.242 -0.535,-2.425 -1.423,-3.295c-0.887,-0.87 -2.08,-1.357 -3.323,-1.356l-22.808,0c-0.652,0 -1.296,0.134 -1.894,0.394c-0.597,0.26 -1.135,0.64 -1.579,1.117c-0.444,0.476 -0.786,1.039 -1.004,1.653c-0.218,0.614 -0.307,1.266 -0.262,1.916z"/>
  <path id="svg_30" fill="url(#paint19_linear)" d="m382.608,233.404l-1.744,136.732l79.429,0l-5.946,-133.091c-0.084,-1.877 -0.725,-3.687 -1.842,-5.198c-1.118,-1.511 -2.66,-2.654 -4.431,-3.284c-9.877,-3.532 -31.377,-8.722 -60.494,-1.453c-1.41,0.348 -2.664,1.156 -3.564,2.295c-0.9,1.14 -1.395,2.547 -1.408,3.999z"/>
  <path id="svg_31" fill="url(#paint20_linear)" d="m458.396,236.311l5.509,133.011l47.063,0l3.568,-134.537c0.054,-1.802 -0.486,-3.573 -1.537,-5.038c-1.05,-1.466 -2.553,-2.546 -4.277,-3.074c-15.264,-4.593 -30.527,-5.044 -45.522,1.818c-1.49,0.675 -2.743,1.781 -3.599,3.175c-0.856,1.393 -1.276,3.011 -1.205,4.645z"/>
  <path id="svg_32" fill="white" d="m462.677,241.29l0.559,7.232c0.082,1.054 0.574,2.033 1.371,2.728c0.796,0.694 1.834,1.048 2.889,0.986l38.449,-2.231c0.975,-0.06 1.895,-0.471 2.591,-1.156c0.696,-0.685 1.121,-1.599 1.196,-2.573l0.371,-5c0.046,-0.556 -0.024,-1.115 -0.205,-1.642c-0.181,-0.528 -0.469,-1.012 -0.847,-1.422c-0.378,-0.41 -0.837,-0.737 -1.348,-0.96c-0.511,-0.223 -1.062,-0.338 -1.62,-0.337l-39.38,0c-0.559,-0.001 -1.112,0.114 -1.624,0.338c-0.513,0.224 -0.973,0.552 -1.351,0.964c-0.379,0.411 -0.668,0.897 -0.849,1.426c-0.181,0.529 -0.25,1.09 -0.202,1.647z" opacity="0.57"/>
  <path id="svg_33" fill="white" d="m464.268,258.589l0,2.638c-0.001,0.483 0.096,0.962 0.284,1.407c0.189,0.445 0.466,0.847 0.815,1.182c0.348,0.335 0.761,0.596 1.213,0.767c0.452,0.17 0.934,0.248 1.417,0.227l36.836,-1.533c0.924,-0.04 1.797,-0.435 2.436,-1.102c0.639,-0.668 0.996,-1.557 0.995,-2.482l0,-2.798c0,-0.485 -0.098,-0.965 -0.288,-1.411c-0.19,-0.446 -0.469,-0.849 -0.82,-1.184c-0.351,-0.335 -0.766,-0.595 -1.22,-0.765c-0.454,-0.17 -0.938,-0.246 -1.423,-0.223l-36.828,1.693c-0.921,0.045 -1.789,0.442 -2.425,1.109c-0.636,0.667 -0.991,1.553 -0.992,2.475z" opacity="0.57"/>
  <path id="svg_34" fill="url(#paint21_linear)" d="m791.432,368.486c-0.002,0.863 -0.345,1.691 -0.956,2.301c-0.61,0.61 -1.437,0.954 -2.3,0.956l-638.89,0l0.204,-6.542l638.671,0c0.865,0.002 1.693,0.347 2.303,0.959c0.611,0.611 0.954,1.44 0.954,2.305l0.014,0.021z"/>
  <path id="svg_35" fill="url(#paint22_linear)" d="m123.934,307.745l-100.7903,0l0,-15.46l100.7903,0c-2.159,0 -2.159,15.46 0,15.46z"/>
  <path id="svg_36" fill="url(#paint23_linear)" d="m23.1437,303.878l0,-7.079c-0.0038,-0.591 0.1091,-1.177 0.3323,-1.724c0.2232,-0.547 0.5523,-1.044 0.9683,-1.464c0.416,-0.419 0.9109,-0.752 1.456,-0.98c0.5452,-0.228 1.1299,-0.345 1.7207,-0.346l95.942,0c1.934,0 3.497,-1.199 3.497,-2.682c-0.037,-0.247 -0.168,-0.471 -0.366,-0.623c-0.198,-0.152 -0.448,-0.22 -0.696,-0.191l-104.8822,0c-2.4058,0 -6.2217,2.907 -6.2217,6.469l0,9.885c0,3.365 3.7069,6.098 5.9746,6.098l104.5193,0c0.378,0.045 0.759,-0.059 1.061,-0.292c0.301,-0.232 0.5,-0.574 0.552,-0.951c0,-1.243 -1.315,-2.253 -2.907,-2.253l-97.1417,0c-0.504,-0.004 -1.0023,-0.107 -1.4664,-0.304c-0.4642,-0.196 -0.8851,-0.482 -1.2388,-0.841c-0.3536,-0.359 -0.6331,-0.784 -0.8224,-1.251c-0.1894,-0.467 -0.2848,-0.967 -0.281,-1.471z"/>
  <path id="svg_37" fill="white" d="m25.942,295.897l94.489,0c0.062,0.008 0.126,0.003 0.186,-0.015c0.06,-0.019 0.116,-0.05 0.163,-0.092c0.048,-0.041 0.085,-0.092 0.111,-0.15c0.026,-0.057 0.04,-0.119 0.04,-0.182c0,-0.063 -0.014,-0.126 -0.04,-0.183c-0.026,-0.058 -0.063,-0.109 -0.111,-0.15c-0.047,-0.042 -0.103,-0.073 -0.163,-0.091c-0.06,-0.019 -0.124,-0.024 -0.186,-0.016l-94.489,0c-0.0625,-0.008 -0.126,-0.003 -0.1862,0.016c-0.0603,0.018 -0.1159,0.049 -0.1632,0.091c-0.0474,0.041 -0.0853,0.092 -0.1112,0.15c-0.026,0.057 -0.0394,0.12 -0.0394,0.183c0,0.063 0.0134,0.125 0.0394,0.182c0.0259,0.058 0.0638,0.109 0.1112,0.15c0.0473,0.042 0.1029,0.073 0.1632,0.092c0.0602,0.018 0.1237,0.023 0.1862,0.015z"/>
  <path id="svg_38" fill="white" d="m25.942,298.194l94.489,0c0.117,0 0.23,-0.047 0.313,-0.13c0.083,-0.083 0.13,-0.196 0.13,-0.313c0,-0.058 -0.011,-0.116 -0.034,-0.17c-0.022,-0.054 -0.054,-0.103 -0.096,-0.144c-0.041,-0.041 -0.09,-0.074 -0.144,-0.096c-0.053,-0.022 -0.111,-0.034 -0.169,-0.034l-94.489,0c-0.0582,0 -0.1159,0.012 -0.1697,0.034c-0.0538,0.022 -0.1026,0.055 -0.1438,0.096c-0.0412,0.041 -0.0738,0.09 -0.0961,0.144c-0.0223,0.054 -0.0338,0.112 -0.0338,0.17c0,0.117 0.0467,0.23 0.1299,0.313c0.0831,0.083 0.1959,0.13 0.3135,0.13z"/>
  <path id="svg_39" fill="white" d="m25.942,300.491l94.489,0c0.117,0 0.23,-0.047 0.313,-0.13c0.083,-0.083 0.13,-0.196 0.13,-0.313c0,-0.118 -0.047,-0.231 -0.13,-0.314c-0.083,-0.083 -0.196,-0.13 -0.313,-0.13l-94.489,0c-0.1176,0 -0.2304,0.047 -0.3135,0.13c-0.0832,0.083 -0.1299,0.196 -0.1299,0.314c0,0.117 0.0467,0.23 0.1299,0.313c0.0831,0.083 0.1959,0.13 0.3135,0.13z"/>
  <path id="svg_40" fill="white" d="m25.942,302.781l94.489,0c0.062,0.008 0.126,0.003 0.186,-0.016c0.06,-0.018 0.116,-0.049 0.163,-0.091c0.048,-0.042 0.085,-0.093 0.111,-0.15c0.026,-0.058 0.04,-0.12 0.04,-0.183c0,-0.063 -0.014,-0.125 -0.04,-0.183c-0.026,-0.057 -0.063,-0.108 -0.111,-0.15c-0.047,-0.041 -0.103,-0.073 -0.163,-0.091c-0.06,-0.018 -0.124,-0.024 -0.186,-0.016l-94.489,0c-0.0625,-0.008 -0.126,-0.002 -0.1862,0.016c-0.0603,0.018 -0.1159,0.05 -0.1632,0.091c-0.0474,0.042 -0.0853,0.093 -0.1112,0.15c-0.026,0.058 -0.0394,0.12 -0.0394,0.183c0,0.063 0.0134,0.125 0.0394,0.183c0.0259,0.057 0.0638,0.108 0.1112,0.15c0.0473,0.042 0.1029,0.073 0.1632,0.091c0.0602,0.019 0.1237,0.024 0.1862,0.016z"/>
  <path id="svg_41" fill="white" d="m25.942,305.077l94.489,0c0.117,0 0.23,-0.046 0.313,-0.129c0.083,-0.084 0.13,-0.196 0.13,-0.314c0,-0.118 -0.047,-0.23 -0.13,-0.313c-0.083,-0.084 -0.196,-0.13 -0.313,-0.13l-94.489,0c-0.1176,0 -0.2304,0.046 -0.3135,0.13c-0.0832,0.083 -0.1299,0.195 -0.1299,0.313c0,0.118 0.0467,0.23 0.1299,0.314c0.0831,0.083 0.1959,0.129 0.3135,0.129z"/>
  <path id="svg_42" fill="url(#paint24_linear)" d="m19.3568,371.402l142.2422,0c4.905,0 8.882,-3.977 8.882,-8.882l0,-12.466c0,-4.905 -3.977,-8.882 -8.882,-8.882l-142.2422,0c-4.9053,0 -8.8819,3.977 -8.8819,8.882l0,12.466c0,4.905 3.9766,8.882 8.8819,8.882z"/>
  <path id="svg_43" fill="white" d="m136.799,367.927l12.4,0c1.766,0 3.198,-1.432 3.198,-3.198l0,-16.884c0,-1.767 -1.432,-3.199 -3.198,-3.199l-12.4,0c-1.766,0 -3.198,1.432 -3.198,3.199l0,16.884c0,1.766 1.432,3.198 3.198,3.198z" opacity="0.6"/>
  <path id="svg_44" fill="url(#paint25_linear)" d="m13.2078,312.92l0,5.204c0.0237,0.479 0.1697,0.945 0.4242,1.352c0.2544,0.407 0.6088,0.742 1.0295,0.974l0.894,0.581c0.7268,0.473 0.5815,1.352 -0.2907,1.672c-0.5815,0.211 -0.6833,0.785 -0.2108,1.105l1.1339,0.727c0.1674,0.088 0.3075,0.22 0.4052,0.382c0.0978,0.162 0.1495,0.348 0.1495,0.537c0,0.189 -0.0517,0.375 -0.1495,0.537c-0.0977,0.162 -0.2378,0.294 -0.4052,0.383l-0.8068,0.545c-0.1585,0.085 -0.2903,0.213 -0.3806,0.368c-0.0904,0.156 -0.1358,0.334 -0.1313,0.514c0.0045,0.18 0.0588,0.355 0.1569,0.506c0.098,0.151 0.236,0.272 0.3986,0.349l0.8649,0.538c0.1364,0.063 0.2551,0.16 0.3455,0.28c0.0904,0.12 0.1497,0.261 0.1727,0.41c0.023,0.149 0.0089,0.301 -0.0409,0.443c-0.0498,0.142 -0.1338,0.269 -0.2447,0.371l-0.4797,0.473c-0.1622,0.149 -0.2928,0.33 -0.3839,0.531c-0.0911,0.201 -0.141,0.418 -0.1467,0.639l0,8.22l117.9581,0l0,-28.135l-120.2622,0.494z"/>
  <path id="svg_45" fill="white" d="m129.378,318.946l-112.0345,0c-0.2471,0 -0.4434,-0.146 -0.4434,-0.327c0.0162,-0.103 0.0715,-0.195 0.1542,-0.257c0.0827,-0.063 0.1864,-0.09 0.2892,-0.078l112.0345,0c0.24,0 0.444,0.153 0.444,0.335c0,0.181 -0.197,0.327 -0.444,0.327z" opacity="0.78"/>
  <path id="svg_46" fill="white" d="m129.378,323.852l-109.3815,0c-0.1028,0.012 -0.2065,-0.016 -0.2892,-0.078c-0.0827,-0.062 -0.138,-0.154 -0.1542,-0.257c0,-0.181 0.1963,-0.327 0.4434,-0.327l109.3815,0c0.24,0 0.444,0.146 0.444,0.327c0,0.182 -0.197,0.335 -0.444,0.335z" opacity="0.78"/>
  <path id="svg_47" fill="white" d="m129.378,327.457l-108.0223,0c-0.2472,0 -0.4434,-0.146 -0.4434,-0.327c0,-0.182 0.1962,-0.328 0.4434,-0.328l108.0223,0c0.24,0 0.444,0.146 0.444,0.328c0,0.181 -0.197,0.327 -0.444,0.327z" opacity="0.78"/>
  <path id="svg_48" fill="url(#paint26_linear)" d="m135.614,310.63l-124.9865,0c-0.95211,0 -1.80251,0.516 -1.897,1.221c-0.10175,0.815 0.72684,1.498 1.8171,1.498l115.9234,0c2.035,0 3.794,1.061 4.215,2.551c1.898,6.65 1.752,13.585 0,20.737c-0.414,1.657 -2.354,2.856 -4.615,2.856l-113.1539,0c-0.9522,0 -1.8026,0.523 -1.8971,1.228c-0.0944,0.705 0.7269,1.498 1.8171,1.498l121.9489,0c2.907,0 5.422,-1.556 5.945,-3.7c2.101,-8.671 2.29,-17.001 0,-24.872c-0.516,-1.766 -2.631,-3.017 -5.087,-3.017l-0.03,0z"/>
  <path id="svg_49" fill="url(#paint27_linear)" d="m172.262,322.18c-0.08,-0.036 -45.944,-80.345 -52.144,-87.904c-0.511,-0.625 -1.173,-1.111 -1.922,-1.412c-0.75,-0.302 -1.564,-0.408 -2.366,-0.31l-12.8,1.526l-15.0379,32.533l25.0539,-14.595c-2.478,17.146 29.706,42.622 40.703,51.926c0.266,0.222 0.484,0.497 0.639,0.807c0.156,0.31 0.246,0.648 0.265,0.994c0.019,0.347 -0.033,0.693 -0.154,1.018c-0.12,0.326 -0.306,0.623 -0.546,0.873l-4.405,4.608c6.782,7.06 15.468,11.999 25.003,14.217l-2.289,-4.281z"/>
  <path id="svg_50" fill="url(#paint28_linear)" d="m152.143,309.758c0,0 -2.806,0.909 -3.758,3.409c-0.208,0.593 -0.216,1.238 -0.022,1.835c0.195,0.598 0.58,1.115 1.098,1.472c4.63,3.314 19.893,14.028 26.951,16.121c0.133,0.039 0.273,0.042 0.408,0.01c0.134,-0.033 0.258,-0.099 0.359,-0.194c0.102,-0.094 0.176,-0.213 0.218,-0.346c0.041,-0.132 0.047,-0.272 0.018,-0.407c-0.364,-1.636 -1.534,-4.906 -5.306,-9.696l0.342,0.683c0.093,0.188 0.125,0.401 0.088,0.608c-0.036,0.207 -0.137,0.397 -0.29,0.541c-0.152,0.145 -0.346,0.237 -0.555,0.263c-0.208,0.026 -0.42,-0.015 -0.603,-0.118c-4.717,-2.661 -14.318,-8.512 -18.948,-14.181z"/>
  <path id="svg_51" fill="url(#paint29_linear)" d="m154.418,341.892c-0.08,-0.051 -6.963,-16.63 -7.036,-16.674c-6.309,-38.413 -21.703,-71.31 -26.239,-79.952c-0.376,-0.715 -0.926,-1.323 -1.599,-1.769c-0.673,-0.446 -1.448,-0.715 -2.253,-0.782l-12.843,-1.098l-21.3112,28.812l27.4892,-9.216c-5.902,16.288 20.46,47.753 29.386,59.092c0.211,0.271 0.366,0.582 0.453,0.915c0.087,0.333 0.105,0.68 0.053,1.021c-0.051,0.34 -0.172,0.666 -0.354,0.958c-0.182,0.292 -0.422,0.544 -0.705,0.74l-5.247,3.634c5.217,8.283 12.722,14.878 21.609,18.985l-1.403,-4.666z"/>
  <path id="svg_52" fill="url(#paint30_linear)" d="m137.213,325.647c0,0 -2.907,0.327 -4.361,2.58c-0.324,0.538 -0.462,1.167 -0.392,1.792c0.07,0.624 0.343,1.207 0.778,1.66c3.866,4.187 16.652,17.772 23.135,21.253c0.123,0.065 0.26,0.097 0.399,0.092c0.139,-0.005 0.274,-0.046 0.392,-0.12c0.118,-0.074 0.214,-0.177 0.279,-0.3c0.066,-0.122 0.098,-0.26 0.093,-0.399c0,-1.679 -0.502,-5.088 -3.227,-10.568l0.196,0.727c0.053,0.203 0.039,0.417 -0.039,0.611c-0.078,0.194 -0.215,0.359 -0.393,0.469c-0.178,0.11 -0.386,0.161 -0.595,0.145c-0.209,-0.017 -0.407,-0.1 -0.565,-0.237c-4.092,-3.539 -12.32,-11.207 -15.7,-17.705z"/>
  <path id="svg_53" fill="url(#paint31_linear)" d="m44.3383,235.534c0,0 -11.6294,17.284 -12.5743,25.163c-0.9449,7.879 3.2126,10.611 15.3798,11.629c36.1893,2.995 54.0262,-7.85 54.0262,-7.85c2.478,-15.787 4.237,-19.806 24.916,-28.346c0,0 -26.1665,2.071 -31.4143,0c-5.2477,-2.072 -50.3334,-0.596 -50.3334,-0.596z"/>
  <path id="svg_54" fill="url(#paint32_linear)" d="m75.7449,233.244c0,0 13.5337,-12.88 20.1915,-21.413c1.7728,-2.275 2.9762,-4.941 3.5097,-7.776c0.5335,-2.834 0.3819,-5.755 -0.4424,-8.519c-3.0382,-10.249 -8.4459,-20.861 -8.9401,-22.532c-0.7487,-2.508 -15.925,-2.406 -15.925,-2.406c0,0 -29.8512,19.377 -41.5824,52.201l13.1703,4.1c0,0 7.799,-13.084 15.5034,-21.391c0,0 -13.3301,17.604 -13.8099,24.814l28.3249,2.922z"/>
  <path id="svg_55" fill="url(#paint33_linear)" d="m91.9025,158.881c-0.1599,0.524 -4.1212,13.65 -4.4265,13.927c-0.3052,0.276 -8.6857,0.719 -12.6106,-1.97l8.0461,-17.8l8.991,5.843z"/>
  <path id="svg_56" fill="url(#paint34_linear)" d="m102.79,144.134c0,0 2.821,6.542 -0.494,16.412c-3.3141,9.87 -8.7218,10.764 -12.1525,8.315c-3.4306,-2.449 -7.8716,-6.796 -8.424,-15.794c-0.5524,-8.998 17.1897,-17.168 21.0705,-8.933z"/>
  <path id="svg_57" fill="url(#paint35_linear)" d="m88.4064,152.485c0,0 5.9819,-13.396 14.9586,-5.052l0.69,3.453c0,0 8.548,-2.435 5.735,-10.176c-2.813,-7.741 -13.0177,-12.996 -22.1541,-7.995c-9.1363,5.001 -12.2472,10.903 -11.7529,17.982c0.4942,7.079 5.7711,4.63 5.7711,4.63c0,0 1.0175,-5.182 3.4961,-6.098c2.4785,-0.916 2.4349,3.002 2.4349,3.002l0.8213,0.254z"/>
  <path id="svg_58" fill="url(#paint36_linear)" d="m86.3494,152.652c0,0 3.1182,-6.868 -1.2429,-7.123c-4.361,-0.254 -2.5875,6.629 -1.7226,9.129l2.9655,-2.006z"/>
  <path id="svg_59" fill="url(#paint37_linear)" d="m101.526,238.332l-10.1759,-11.063l-11.7384,3.162c0,0 -13.6864,2.122 -21.5217,0l-7.8353,-2.122l-17.7057,-5.51l-2.7475,7.857c-0.3412,0.972 -0.357,2.027 -0.0449,3.008c0.3121,0.981 0.9351,1.834 1.7748,2.429c1.4108,1.053 2.9086,1.985 4.4773,2.784c2.3259,1.018 53.706,0.32 53.706,0.32l11.8113,-0.865z"/>
  <path id="svg_60" fill="url(#paint38_linear)" d="m83.8782,137.694c0.5527,-0.084 1.0718,-0.318 1.5009,-0.676c0.4291,-0.359 0.7518,-0.828 0.9331,-1.357c0.1812,-0.529 0.2142,-1.097 0.0952,-1.643c-0.119,-0.547 -0.3854,-1.05 -0.7703,-1.455c-5.364,-5.866 -15.4961,-12.357 -29.9311,-2.384c-16.2594,11.244 -25.0541,16.332 -29.0735,15.263c-0.5733,-0.167 -1.1829,-0.165 -1.7547,0.008c-0.5718,0.172 -1.0812,0.507 -1.4663,0.964c-0.385,0.456 -0.629,1.015 -0.7023,1.608c-0.0734,0.592 0.0271,1.194 0.2891,1.73c0.9158,1.788 2.7838,3.634 6.229,5.357c26.5659,13.112 40.3104,-15.663 54.6509,-17.415z"/>
  <path id="svg_61" fill="url(#paint39_linear)" d="m67.8732,242.744l0.1091,0l46.7647,-0.051c0.555,0 1.088,-0.221 1.48,-0.613c0.393,-0.393 0.613,-0.925 0.613,-1.48c0,-0.556 -0.22,-1.088 -0.613,-1.481c-0.392,-0.392 -0.925,-0.613 -1.48,-0.613l-46.7647,0.051c-0.5552,-0.013 -1.093,0.194 -1.4951,0.577c-0.4021,0.383 -0.6356,0.91 -0.6491,1.466c-0.0135,0.555 0.1941,1.093 0.5771,1.495c0.3831,0.402 0.9101,0.635 1.4653,0.649l-0.0073,0z"/>
  <path id="svg_62" fill="url(#paint40_linear)" d="m156.78,200.253l-38.944,0c-1.406,-0.001 -2.784,0.399 -3.972,1.152c-1.188,0.753 -2.137,1.828 -2.737,3.1l-18.0034,38.181l48.3924,0c0.905,0 1.79,-0.273 2.538,-0.782c0.748,-0.51 1.325,-1.233 1.656,-2.075l13.963,-35.324c0.186,-0.472 0.254,-0.982 0.197,-1.486c-0.056,-0.503 -0.234,-0.986 -0.519,-1.405c-0.285,-0.419 -0.669,-0.762 -1.117,-1c-0.448,-0.237 -0.947,-0.361 -1.454,-0.361z"/>
  <path id="svg_63" fill="#39122E" d="m129.378,219.827c-0.85,2.616 -0.225,5.167 1.388,5.684c1.614,0.516 3.635,-1.185 4.449,-3.809c0.814,-2.624 0.225,-5.168 -1.389,-5.684c-1.613,-0.516 -3.634,1.185 -4.448,3.809z"/>
  <path id="svg_64" fill="url(#paint41_linear)" d="m656.844,369.788c3.343,0.291 9.136,0.727 13.701,0.959c2.747,0.117 4.361,-0.152 5.24,-0.516c0,0.102 0,0.204 0,0.291c-0.014,0.234 -0.113,0.454 -0.28,0.619c-0.166,0.165 -0.387,0.263 -0.621,0.275c-5.975,0.336 -11.964,0.336 -17.938,0c-0.116,-0.005 -0.228,-0.04 -0.326,-0.102c-0.098,-0.061 -0.179,-0.147 -0.233,-0.249c-0.055,-0.101 -0.083,-0.216 -0.081,-0.331c0.003,-0.116 0.035,-0.229 0.095,-0.328c0.133,-0.216 0.281,-0.422 0.443,-0.618z"/>
  <path id="svg_65" fill="url(#paint42_linear)" d="m670.545,370.747c-4.565,-0.203 -10.358,-0.668 -13.701,-0.959c3.285,-4.027 13.701,-6.745 13.701,-6.745l2.943,0c1.497,2.098 2.3,4.611 2.297,7.188c-0.908,0.364 -2.493,0.632 -5.24,0.516z"/>
  <path id="svg_66" fill="url(#paint43_linear)" d="m673.983,358.239l-0.269,5.451c-0.016,0.288 -0.131,0.562 -0.325,0.776c-0.195,0.213 -0.458,0.352 -0.744,0.394c-0.731,0.108 -1.477,0.046 -2.18,-0.182c-0.263,-0.071 -0.501,-0.216 -0.686,-0.416c-0.185,-0.201 -0.31,-0.449 -0.361,-0.718l-0.952,-5.305l5.517,0z"/>
  <path id="svg_67" fill="url(#paint44_linear)" d="m712.207,370.703c0.526,-0.023 1.034,-0.203 1.457,-0.516c0.424,-0.314 0.744,-0.746 0.92,-1.243c0.086,0.45 0.005,0.917 -0.228,1.311c-0.232,0.395 -0.601,0.691 -1.037,0.833c-1.118,0.439 -2.319,0.627 -3.518,0.553c-0.491,-0.006 -0.975,-0.115 -1.42,-0.321c-0.446,-0.205 -0.844,-0.502 -1.167,-0.871c1.046,0.53 2.58,0.596 4.993,0.254z"/>
  <path id="svg_68" fill="url(#paint45_linear)" d="m705.382,358.209l2.428,0c3.692,-0.08 6.018,7.719 6.774,10.736c-0.176,0.496 -0.496,0.929 -0.92,1.242c-0.423,0.314 -0.931,0.493 -1.457,0.517c-2.413,0.341 -3.947,0.276 -5.037,-0.262c-1.999,-2.631 -2.987,-6.483 -3.46,-8.722c-0.172,-0.688 -0.1,-1.415 0.205,-2.056c0.305,-0.641 0.824,-1.155 1.467,-1.455z"/>
  <path id="svg_69" fill="url(#paint46_linear)" d="m707.497,353.15l1.345,5.357c0.082,0.317 0.055,0.652 -0.077,0.951c-0.132,0.3 -0.361,0.546 -0.65,0.699c-0.849,0.483 -1.816,0.717 -2.791,0.676c-0.224,-0.03 -0.436,-0.122 -0.61,-0.266c-0.175,-0.144 -0.306,-0.334 -0.379,-0.548l-1.977,-5.633l5.139,-1.236z"/>
  <path id="svg_70" fill="url(#paint47_linear)" d="m709.103,354.677c-1.679,1.454 -7.13,1.679 -7.13,1.679c-19.624,-47.143 -27.678,-53.844 -27.678,-53.844c2.835,17.8 0.458,57.195 0.458,57.195c-3.242,1.453 -7.421,0 -7.421,0c-0.241,-25.178 -3.611,-50.228 -10.03,-74.574c13.272,-0.298 20.351,-4.841 22.641,-6.665c11.069,17.866 29.16,76.209 29.16,76.209z"/>
  <path id="svg_71" fill="url(#paint48_linear)" d="m676.57,224.275c2.515,12.531 1.614,34.968 1.018,45.202c-0.16,2.907 1.846,6.861 3.467,9.587c0.061,0.1 0.1,0.211 0.116,0.327c0.015,0.117 0.007,0.234 -0.025,0.347c-0.032,0.113 -0.087,0.217 -0.162,0.308c-0.074,0.09 -0.166,0.164 -0.271,0.217c-2.718,1.396 -11.927,5.72 -22.59,6.258c-0.347,0.015 -0.688,-0.09 -0.967,-0.296c-0.279,-0.206 -0.479,-0.502 -0.567,-0.838c-7.915,-29.56 -17.102,-48.458 -17.102,-48.458c10.147,-16.179 37.083,-12.654 37.083,-12.654z"/>
  <path id="svg_72" fill="url(#paint49_linear)" d="m672.951,301.421c0.116,0.002 0.229,-0.031 0.327,-0.094c0.071,-0.043 0.133,-0.099 0.182,-0.166c0.049,-0.066 0.084,-0.142 0.104,-0.223c0.02,-0.08 0.023,-0.164 0.01,-0.245c-0.013,-0.082 -0.042,-0.161 -0.086,-0.231c-1.947,-2.905 -4.634,-5.239 -7.784,-6.76c-0.075,-0.046 -0.16,-0.076 -0.247,-0.088c-0.088,-0.011 -0.177,-0.004 -0.262,0.021c-0.085,0.025 -0.164,0.067 -0.231,0.124c-0.068,0.058 -0.122,0.128 -0.161,0.208c-0.038,0.08 -0.059,0.167 -0.062,0.255c-0.002,0.089 0.014,0.177 0.047,0.259c0.034,0.082 0.084,0.156 0.148,0.217c0.064,0.061 0.14,0.108 0.223,0.138c2.926,1.428 5.431,3.592 7.268,6.28c0.055,0.09 0.132,0.165 0.223,0.219c0.092,0.053 0.195,0.083 0.301,0.086z"/>
  <path id="svg_73" fill="url(#paint50_linear)" d="m692.335,260.246c-0.806,5.814 -3.19,12.211 -7.995,18.977l-1.81,-1.453c1.29,-5.967 1.594,-12.106 0.902,-18.171c2.972,-0.567 6.447,0.029 8.903,0.647z"/>
  <path id="svg_74" fill="url(#paint51_linear)" d="m673.779,239.742l2.806,-15.467c0,0 18.752,14.333 15.765,35.971c-2.457,-0.618 -5.931,-1.214 -8.875,-0.64c-0.872,-6.941 -3.43,-14.478 -9.696,-19.864z"/>
  <path id="svg_75" fill="url(#paint52_linear)" d="m639.487,236.929l7.268,15.591c-1.17,9.413 -6.229,13.483 -11.68,15.046c-0.265,-3.5 -1.087,-6.935 -2.435,-10.176c6.978,-7.145 6.847,-20.461 6.847,-20.461z"/>
  <path id="svg_76" fill="url(#paint53_linear)" d="m632.611,257.441c1.348,3.24 2.17,6.676 2.435,10.175c-14.537,5.641 -18.396,-5.306 -18.396,-5.306l2.689,-0.472c6.069,0.618 10.314,-1.337 13.272,-4.397z"/>
  <path id="svg_77" fill="url(#paint54_linear)" d="m646.159,217.711l3.496,12.844c0.092,0.341 0.255,0.658 0.478,0.932c0.224,0.273 0.503,0.496 0.819,0.653c0.316,0.157 0.662,0.246 1.015,0.259c0.353,0.014 0.705,-0.047 1.032,-0.18c1.719,-0.674 3.401,-1.44 5.037,-2.297c0.414,-0.222 0.777,-0.528 1.066,-0.899c0.289,-0.37 0.497,-0.798 0.611,-1.254c0.113,-0.456 0.13,-0.93 0.049,-1.393c-0.081,-0.463 -0.258,-0.904 -0.52,-1.294l-7.268,-10.838l-5.815,3.467z"/>
  <path id="svg_78" fill="url(#paint55_linear)" d="m609.985,253.69l89.553,32.599c0.888,0.324 1.699,0.827 2.383,1.48c0.684,0.652 1.226,1.438 1.592,2.31c0.366,0.871 0.548,1.809 0.534,2.754c-0.014,0.945 -0.222,1.877 -0.613,2.737l-0.276,0.596c-0.348,0.765 -0.844,1.453 -1.459,2.026c-0.615,0.572 -1.337,1.018 -2.124,1.31c-0.788,0.293 -1.625,0.427 -2.465,0.394c-0.839,-0.032 -1.664,-0.23 -2.427,-0.582l-86.952,-40.231l2.254,-5.393z"/>
  <path id="svg_79" fill="url(#paint56_linear)" d="m568.824,277.494c24.414,0 44.206,-19.434 44.206,-43.407c0,-23.973 -19.792,-43.407 -44.206,-43.407c-24.415,0 -44.206,19.434 -44.206,43.407c0,23.973 19.791,43.407 44.206,43.407z" opacity="0.5"/>
  <path id="svg_80" fill="url(#paint57_linear)" d="m519.632,234.087c0,26.675 22.023,48.306 49.192,48.306c27.169,0 49.192,-21.631 49.192,-48.306c0,-26.675 -22.008,-48.305 -49.192,-48.305c-27.184,0 -49.192,21.63 -49.192,48.305zm7.224,0c0,-22.757 18.789,-41.204 41.968,-41.204c23.179,0 41.967,18.447 41.967,41.204c0,22.758 -18.788,41.205 -41.967,41.205c-23.179,0 -41.968,-18.447 -41.968,-41.205z"/>
  <path id="svg_81" fill="white" d="m614.273,240.018c-0.036,-0.004 -0.071,-0.014 -0.103,-0.032c-0.032,-0.017 -0.06,-0.041 -0.082,-0.069c-0.022,-0.029 -0.039,-0.062 -0.048,-0.097c-0.01,-0.035 -0.012,-0.071 -0.007,-0.107c0.145,-1.127 0.247,-2.275 0.305,-3.416c0.001,-0.037 0.01,-0.073 0.025,-0.106c0.015,-0.034 0.037,-0.063 0.064,-0.088c0.028,-0.024 0.059,-0.043 0.094,-0.055c0.035,-0.012 0.072,-0.016 0.108,-0.013c0.036,0.002 0.072,0.011 0.105,0.026c0.033,0.016 0.062,0.038 0.086,0.065c0.025,0.027 0.043,0.059 0.055,0.093c0.013,0.034 0.018,0.07 0.016,0.107c-0.058,1.155 -0.16,2.318 -0.305,3.459c-0.013,0.072 -0.052,0.136 -0.11,0.179c-0.059,0.043 -0.131,0.063 -0.203,0.054zm-0.334,-13.512c-0.066,0.001 -0.129,-0.021 -0.18,-0.062c-0.05,-0.041 -0.085,-0.099 -0.097,-0.163c-0.55,-3.07 -1.427,-6.072 -2.616,-8.955c-3.463,-8.327 -9.329,-15.433 -16.85,-20.411c-7.52,-4.978 -16.354,-7.601 -25.372,-7.536c-8.636,-0.008 -17.099,2.415 -24.422,6.992c-0.031,0.02 -0.065,0.033 -0.102,0.04c-0.036,0.006 -0.073,0.005 -0.109,-0.003c-0.035,-0.008 -0.069,-0.024 -0.099,-0.045c-0.03,-0.021 -0.056,-0.048 -0.075,-0.079c-0.02,-0.031 -0.033,-0.065 -0.039,-0.101c-0.006,-0.037 -0.005,-0.074 0.003,-0.109c0.008,-0.036 0.023,-0.07 0.044,-0.1c0.021,-0.03 0.048,-0.055 0.079,-0.075c7.422,-4.634 15.999,-7.085 24.749,-7.072c9.128,-0.066 18.068,2.589 25.679,7.628c7.611,5.039 13.548,12.232 17.052,20.66c1.188,2.922 2.058,5.963 2.594,9.071c0.007,0.036 0.006,0.073 -0.002,0.108c-0.008,0.036 -0.023,0.069 -0.044,0.099c-0.021,0.03 -0.047,0.055 -0.078,0.074c-0.031,0.02 -0.065,0.033 -0.101,0.039l-0.014,0z"/>
  <path id="svg_82" fill="url(#paint58_linear)" d="m638.506,207.95c0,0.218 2.907,14.66 2.907,14.66l8.213,-1.86l-0.726,-14.101c0,0 -9.856,-2.391 -10.394,1.301z"/>
  <path id="svg_83" fill="url(#paint59_linear)" d="m647.024,209.796l0.982,7.392c0.014,0.094 0.014,0.19 0,0.284c-0.08,0.574 -0.517,2.551 -2.501,1.984c-1.81,-0.509 -3.467,-0.952 -4.608,-0.603c-0.25,0.073 -0.464,0.237 -0.599,0.461c-0.135,0.224 -0.18,0.49 -0.128,0.745c0.457,2.289 1.089,4.539 1.89,6.731c0.096,0.241 0.28,0.438 0.514,0.551c0.234,0.113 0.502,0.134 0.751,0.059c2.517,-0.701 4.945,-1.694 7.232,-2.958c0.16,-0.097 0.292,-0.235 0.382,-0.4c0.089,-0.164 0.133,-0.35 0.127,-0.538c-0.08,-1.868 -0.298,-7.537 -0.117,-9.129c0.182,-1.591 2.006,-2.391 2.806,-2.711c0.129,-0.049 0.246,-0.126 0.343,-0.223c0.098,-0.098 0.174,-0.215 0.224,-0.344c0.37,-0.923 0.879,-3.06 -1.817,-3.939c-0.133,-0.044 -0.256,-0.113 -0.361,-0.205c-0.106,-0.091 -0.192,-0.203 -0.253,-0.328c-0.062,-0.125 -0.098,-0.262 -0.106,-0.401c-0.008,-0.14 0.012,-0.279 0.058,-0.411c0.4,-1.112 0.567,-2.805 -1.512,-3.743c-0.773,-0.348 -1.641,-0.428 -2.466,-0.23c-0.824,0.199 -1.56,0.666 -2.091,1.327c-0.167,0.178 -0.39,0.291 -0.632,0.32c-0.242,0.03 -0.486,-0.027 -0.691,-0.16c-0.137,-0.095 -0.301,-0.147 -0.468,-0.147c-0.168,0 -0.332,0.052 -0.469,0.147c-0.123,0.074 -0.259,0.122 -0.401,0.139c-0.142,0.018 -0.286,0.006 -0.423,-0.035c-0.137,-0.041 -0.263,-0.11 -0.372,-0.203c-0.108,-0.093 -0.196,-0.208 -0.258,-0.337c-0.29,-0.685 -0.816,-1.244 -1.483,-1.575c-0.667,-0.331 -1.43,-0.411 -2.151,-0.227c-3.678,0.625 -4.092,4.702 -3.118,7.094c0.974,2.391 4.913,1.453 6.897,0.276c1.505,-0.916 3.46,0.043 4.311,0.552c0.14,0.082 0.26,0.195 0.348,0.332c0.088,0.136 0.143,0.292 0.16,0.453z"/>
  <path id="svg_84" fill="url(#paint60_linear)" d="m651.291,217.072c0,0 -1.512,-4.238 0.043,-5.277c1.556,-1.039 3.853,-0.494 3.344,2.573c-0.625,3.816 -3.387,2.704 -3.387,2.704z"/>
  <path id="svg_85" fill="url(#paint61_linear)" d="m683.301,277.487l-8.461,-0.727l-3.67,3.38c0,0 0.872,1.199 3.583,0.508c2.114,-0.465 4.263,-0.752 6.425,-0.857c0,0 3.744,1.686 3.787,-1.454l-1.664,-0.85z"/>
  <path id="svg_86" fill="url(#paint62_linear)" d="m617.733,264.294c-0.727,0.567 -3.242,-0.625 -4.776,-1.453c-0.363,-0.193 -0.648,-0.508 -0.805,-0.888c-0.156,-0.381 -0.175,-0.805 -0.052,-1.198c0.37,-1.163 0.988,-2.668 1.744,-2.857c1.258,-0.312 6.876,4.034 3.889,6.396z"/>
  <path id="svg_87" fill="white" d="m697.765,297.983c-0.066,0.002 -0.131,-0.02 -0.182,-0.062c-0.051,-0.042 -0.085,-0.101 -0.097,-0.166c-0.011,-0.065 0.001,-0.132 0.035,-0.189c0.034,-0.057 0.087,-0.099 0.149,-0.121c2.551,-0.879 3.889,-2.311 3.969,-4.252c0.023,-0.984 -0.263,-1.952 -0.817,-2.766c-0.553,-0.815 -1.348,-1.436 -2.272,-1.776l-10.75,-4.194c-0.038,-0.01 -0.074,-0.028 -0.104,-0.052c-0.031,-0.025 -0.056,-0.056 -0.073,-0.091c-0.018,-0.035 -0.028,-0.073 -0.03,-0.112c-0.001,-0.04 0.005,-0.079 0.02,-0.115c0.014,-0.036 0.036,-0.069 0.065,-0.097c0.028,-0.027 0.062,-0.048 0.099,-0.061c0.037,-0.013 0.076,-0.018 0.115,-0.015c0.039,0.004 0.077,0.015 0.111,0.034l10.75,4.194c1.034,0.381 1.921,1.078 2.538,1.99c0.617,0.913 0.932,1.997 0.9,3.098c-0.094,2.18 -1.555,3.787 -4.361,4.753l-0.065,0z"/>
  <path id="svg_88" fill="white" d="m684.595,283.207l-0.102,0l-1.388,-0.545c-0.067,-0.028 -0.119,-0.08 -0.148,-0.146c-0.028,-0.066 -0.03,-0.14 -0.004,-0.207c0.025,-0.067 0.076,-0.122 0.141,-0.152c0.065,-0.031 0.139,-0.035 0.207,-0.011l1.395,0.545c0.067,0.027 0.121,0.08 0.15,0.147c0.028,0.066 0.029,0.141 0.003,0.209c-0.022,0.049 -0.058,0.09 -0.103,0.119c-0.045,0.028 -0.098,0.042 -0.151,0.041z"/>
 </g>
</svg>