<svg width="375" height="231" viewBox="0 0 375 231" fill="none" xmlns="http://www.w3.org/2000/svg">
<g opacity="0.3">
<g opacity="0.5">
<g opacity="0.6">
<path opacity="0.42" d="M41.1682 195.887C45.8666 234.577 92.5975 237.262 141.292 230.261C210.71 220.285 223.752 296.571 301.602 260.4C357.229 234.545 386.725 68.2352 195.199 86.5046C147.434 91.0605 119.501 94.3889 90.8874 111.256C66.3289 125.733 37.6697 167.062 41.1682 195.887Z" fill="url(#paint0_linear)"/>
<path opacity="0.62" d="M50.2844 176.804C30.976 222.776 83.9041 243.877 129.817 229.617C215.739 202.925 248.37 295.293 310.838 248.006C358.649 211.798 360.217 85.1621 235.742 88.394C166.696 90.1731 82.9157 99.0274 50.2844 176.804Z" fill="url(#paint1_linear)"/>
</g>
<path opacity="0.6" d="M260.948 252.902C260.738 252.706 260.585 252.456 260.504 252.18C260.424 251.904 260.419 251.611 260.49 251.332C260.562 251.053 260.707 250.799 260.91 250.596C261.114 250.392 261.368 250.247 261.647 250.176C275.439 246.958 332.486 230.408 320.175 179.944C306.208 122.653 298.687 107.045 321.903 81.9766C343.051 59.1513 365.195 57.294 383.709 62.259C383.984 62.3376 384.224 62.5059 384.393 62.7371C384.561 62.9682 384.647 63.249 384.638 63.5348C384.628 63.8207 384.524 64.0951 384.34 64.3146C384.157 64.534 383.905 64.6859 383.626 64.7461C372.321 66.893 346.848 73.8946 340.871 94.0489C333.162 120.148 345.846 178.79 326.018 211.458C306.429 243.731 284.909 247.119 262.396 253.261C262.144 253.33 261.878 253.333 261.623 253.27C261.369 253.208 261.135 253.081 260.944 252.902H260.948Z" fill="url(#paint2_linear)"/>
<path d="M452.86 115.624C453.178 115.437 453.444 115.175 453.634 114.861C453.825 114.546 453.935 114.189 453.954 113.822C453.972 113.455 453.899 113.088 453.741 112.756C453.584 112.424 453.346 112.136 453.049 111.918C449.505 109.358 443.317 103.887 438.025 94.0489C432.734 84.2108 418.62 62.7601 389.083 68.3043C359.546 73.8486 349.707 125.802 343.736 176.974C337.764 228.146 280.004 246.71 280.004 246.71L264.507 252.686C264.507 252.686 319.54 243.781 340.587 205.459C361.633 167.136 358.617 107.827 392.315 108.82C424.679 109.776 429.097 129.181 452.86 115.624Z" fill="url(#paint3_linear)"/>
<path opacity="0.6" d="M458.414 173.903C458.784 174.05 459.191 174.076 459.577 173.978C459.962 173.88 460.307 173.662 460.562 173.356C460.817 173.051 460.969 172.672 460.996 172.275C461.023 171.878 460.924 171.482 460.712 171.145C455.416 162.153 443.146 145.589 424.803 146.081C399.67 146.747 381.18 158.176 357.095 198.949C333.686 238.577 280.142 252.337 265.67 252.686C265.341 252.693 265.025 252.817 264.78 253.036C264.535 253.256 264.376 253.555 264.332 253.881C264.298 254.086 264.311 254.296 264.368 254.495C264.426 254.695 264.527 254.879 264.664 255.035C264.801 255.19 264.971 255.314 265.162 255.396C265.352 255.478 265.559 255.516 265.766 255.509C275.935 255.003 329.346 251.725 356.332 237.423C384.619 222.418 426.196 160.856 458.414 173.903Z" fill="url(#paint4_linear)"/>
<path opacity="0.71" d="M443.4 162.12C441.411 161.314 439.354 160.689 437.253 160.254C435.151 159.797 433.018 159.489 430.872 159.334C429.801 159.238 428.725 159.233 427.654 159.206C426.583 159.178 425.507 159.206 424.436 159.312C422.294 159.447 420.163 159.718 418.055 160.121C413.848 160.965 409.762 162.329 405.891 164.18C402.021 166.055 398.351 168.316 394.935 170.929C388.09 176.137 382.293 182.624 377.218 189.584C375.976 191.354 374.777 193.133 373.54 194.931C372.303 196.728 371.131 198.567 369.862 200.337L367.996 203.036L366.046 205.666C364.768 207.435 363.385 209.127 362.047 210.856C359.288 214.239 356.452 217.572 353.413 220.721C350.38 223.881 347.173 226.871 343.81 229.677C337.053 235.286 329.504 239.864 321.407 243.262C313.33 246.659 304.857 248.912 296.292 250.571C292.017 251.408 287.719 252.116 283.42 252.769C279.122 253.422 274.814 254.029 270.506 254.608C270.479 254.612 270.452 254.611 270.425 254.605C270.399 254.599 270.374 254.587 270.352 254.571C270.33 254.554 270.312 254.534 270.298 254.51C270.284 254.486 270.275 254.46 270.272 254.433C270.267 254.406 270.268 254.379 270.274 254.353C270.28 254.327 270.292 254.302 270.308 254.28C270.323 254.258 270.343 254.24 270.367 254.226C270.39 254.212 270.415 254.203 270.442 254.199C279.016 252.76 287.613 251.44 296.095 249.601C300.333 248.682 304.549 247.657 308.696 246.425C312.843 245.207 316.912 243.735 320.878 242.016C328.795 238.56 336.173 233.982 342.784 228.422C346.086 225.642 349.231 222.682 352.204 219.554C355.188 216.428 357.974 213.118 360.691 209.757C362.005 208.038 363.366 206.355 364.626 204.594L366.547 201.979L368.386 199.317C369.646 197.556 370.809 195.726 372.023 193.933C373.236 192.14 374.487 190.315 375.747 188.532C380.932 181.479 386.867 174.887 393.906 169.577C400.944 164.267 409.1 160.383 417.811 158.81C419.981 158.426 422.174 158.189 424.376 158.102C425.475 158.038 426.578 158.07 427.677 158.075C428.776 158.079 429.875 158.167 430.969 158.295C435.36 158.669 439.661 159.756 443.703 161.514C443.787 161.552 443.852 161.621 443.885 161.707C443.918 161.794 443.915 161.889 443.878 161.973C443.86 162.016 443.834 162.054 443.801 162.086C443.768 162.118 443.729 162.143 443.686 162.16C443.643 162.176 443.597 162.184 443.551 162.183C443.505 162.182 443.46 162.172 443.418 162.153L443.4 162.12Z" fill="white"/>
<path opacity="0.71" d="M450.608 113.095C447.549 113.15 444.513 112.553 441.703 111.344C438.874 110.153 436.275 108.476 434.025 106.388C432.912 105.332 431.875 104.198 430.922 102.995C429.981 101.786 429.118 100.517 428.339 99.1978C427.962 98.5358 427.589 97.8646 427.244 97.1842L426.261 95.1568C425.604 93.8533 424.856 92.5982 424.022 91.4009C420.674 86.5611 416.404 82.429 411.458 79.2412C409.018 77.6571 406.375 76.4106 403.601 75.5358C402.224 75.1156 400.816 74.8081 399.39 74.6163C397.968 74.4357 396.533 74.3788 395.101 74.4462C394.383 74.4738 393.675 74.5658 392.967 74.6531C392.259 74.7405 391.556 74.8968 390.862 75.0852C389.47 75.4349 388.114 75.9151 386.812 76.5196C385.498 77.1207 384.237 77.8312 383.042 78.6435C381.833 79.4521 380.679 80.3381 379.585 81.2961C375.204 85.1716 371.705 90.0309 368.712 95.1292C367.209 97.6899 365.876 100.347 364.607 103.041C363.338 105.735 362.193 108.489 361.095 111.266C358.911 116.824 357.072 122.52 355.357 128.275C355.347 128.311 355.33 128.344 355.307 128.373C355.284 128.402 355.255 128.426 355.223 128.444C355.19 128.461 355.154 128.472 355.117 128.476C355.08 128.479 355.043 128.475 355.008 128.464C354.94 128.443 354.882 128.398 354.846 128.336C354.81 128.275 354.799 128.202 354.815 128.133C356.21 122.285 357.897 116.512 359.872 110.833C360.879 107.992 361.964 105.183 363.182 102.42C364.378 99.6422 365.715 96.9263 367.186 94.2833C370.128 89.0011 373.673 83.9533 378.247 79.8158C380.54 77.7251 383.133 75.9882 385.938 74.6623C387.352 73.9982 388.827 73.4717 390.342 73.09C391.096 72.8832 391.869 72.7498 392.641 72.6073C393.413 72.4648 394.195 72.4051 394.976 72.3729C396.54 72.2868 398.109 72.3483 399.661 72.5568C401.204 72.7758 402.727 73.1234 404.212 73.5957C407.158 74.526 409.965 75.8497 412.556 77.531C417.684 80.9129 422.08 85.2903 425.484 90.4033C426.338 91.6854 427.097 93.0283 427.755 94.4213L428.674 96.4578C428.991 97.1198 429.336 97.7681 429.681 98.4163C430.389 99.6999 431.175 100.939 432.035 102.126C432.909 103.301 433.866 104.412 434.899 105.45C436.969 107.541 439.391 109.252 442.052 110.507C443.382 111.13 444.767 111.628 446.19 111.992C447.614 112.377 449.078 112.593 450.553 112.636C450.582 112.636 450.612 112.642 450.64 112.653C450.667 112.665 450.692 112.682 450.713 112.703C450.734 112.725 450.751 112.75 450.762 112.778C450.773 112.806 450.778 112.835 450.778 112.865C450.781 112.918 450.766 112.97 450.735 113.012C450.704 113.054 450.659 113.083 450.608 113.095Z" fill="white"/>
<path d="M61.2855 261.568C61.2855 261.568 67.5699 188.224 26.9027 165.647C-12.1096 143.984 -23.0004 163.164 -40.8837 134.399C-41.0634 134.112 -41.3272 133.887 -41.6392 133.754C-41.9513 133.622 -42.2965 133.589 -42.6279 133.66C-42.9594 133.731 -43.261 133.902 -43.4918 134.15C-43.7226 134.398 -43.8713 134.712 -43.9179 135.047C-46.0648 151.501 -49.6966 207.224 -2.60245 218.322C51.7876 231.143 61.2855 261.568 61.2855 261.568Z" fill="url(#paint5_linear)"/>
<path opacity="0.69" d="M-36.6863 151.165C-36.2377 152.582 -35.6639 153.956 -34.9716 155.271C-34.6084 155.923 -34.2866 156.604 -33.8912 157.238L-32.7189 159.151C-31.8454 160.369 -31.0363 161.633 -30.0663 162.778C-29.6066 163.362 -29.1468 163.955 -28.6549 164.529L-27.1378 166.189C-23.018 170.559 -18.3875 174.418 -13.3461 177.682C-8.37189 181.057 -2.94714 183.691 2.50519 186.192L6.68409 187.879C8.06326 188.444 9.44244 189.01 10.8952 189.557L13.0191 190.389L15.12 191.285C16.5314 191.86 17.8784 192.54 19.2851 193.175C22.0435 194.522 24.7421 195.933 27.3441 197.538C28.6681 198.305 29.9324 199.179 31.2196 200.011C32.5068 200.843 33.7297 201.767 34.9296 202.728C39.8286 206.479 44.1758 210.9 47.8432 215.862C51.4681 220.854 54.439 226.289 56.6837 232.035C58.9824 237.731 60.6787 243.607 62.3935 249.395C62.4539 249.595 62.4742 249.805 62.4533 250.014C62.4323 250.222 62.3706 250.424 62.2715 250.608C62.1725 250.793 62.0381 250.956 61.876 251.088C61.714 251.221 61.5274 251.32 61.327 251.381C61.1265 251.441 60.9162 251.461 60.7079 251.44C60.4996 251.419 60.2975 251.358 60.1131 251.259C59.9286 251.16 59.7655 251.025 59.633 250.863C59.5006 250.701 59.4013 250.514 59.3409 250.314V250.286C57.7227 244.453 56.1504 238.665 54.0173 233.097C51.9514 227.528 49.1813 222.246 45.7745 217.379C42.3257 212.538 38.2139 208.205 33.5596 204.507C32.4149 203.555 31.1966 202.696 30.0013 201.808C28.806 200.921 27.551 200.108 26.2684 199.335C23.7537 197.722 21.1194 196.301 18.453 194.936C17.1015 194.287 15.7728 193.598 14.3937 193.005L12.3387 192.085L10.2561 191.226C8.87698 190.669 7.47022 190.072 6.06806 189.474L1.86618 187.69C-3.64592 185.052 -9.08906 182.289 -14.0817 178.776C-19.1407 175.378 -23.7714 171.381 -27.8734 166.874C-31.9006 162.323 -35.5002 157.261 -37.3621 151.34C-37.3902 151.25 -37.3812 151.152 -37.3372 151.068C-37.2933 150.985 -37.2179 150.922 -37.1277 150.894C-37.0374 150.866 -36.9398 150.875 -36.8561 150.919C-36.7725 150.963 -36.7098 151.038 -36.6817 151.128L-36.6863 151.165Z" fill="white"/>
<path d="M69.3124 253.927L63.9336 250.741C66.646 208.985 59.0421 132.28 17.3129 111.376C-10.9463 97.221 -21.4556 81.4387 -19.3501 47.7225C-17.9433 25.2282 -25.4047 9.6803 -30.526 1.82361C-30.7515 1.4801 -30.8576 1.07191 -30.828 0.662078C-30.7984 0.252244 -30.6347 -0.136451 -30.3622 -0.443996C-30.0897 -0.751541 -29.7236 -0.960831 -29.3203 -1.03956C-28.917 -1.11828 -28.499 -1.06206 -28.1308 -0.879575C-10.9004 7.62073 33.9917 32.7631 54.5276 72.7407C80.2354 122.782 69.3124 253.927 69.3124 253.927Z" fill="url(#paint6_linear)"/>
<path opacity="0.69" d="M-1.53142 27.0948C0.601361 28.318 2.63224 29.7108 4.54154 31.2599C5.49317 32.0184 6.454 32.7678 7.35046 33.5861L8.72964 34.7906L9.41463 35.3928L10.0674 36.0272L12.6833 38.5603C13.5292 39.4292 14.3475 40.3256 15.1842 41.2083L16.4254 42.5323C16.8392 42.992 17.2162 43.4518 17.6161 43.9115L19.9699 46.6698C26.0883 54.1878 31.5109 62.2462 36.1706 70.7456L37.9451 73.9131L38.4049 74.7039L38.8094 75.5176L39.6231 77.1404L42.8688 83.6317L45.8202 90.2609L47.2913 93.5755C47.7511 94.6927 48.1786 95.8236 48.6245 96.9499L51.245 103.735C51.7047 104.857 52.0955 106.002 52.4954 107.142L53.6999 110.567C54.4538 112.866 55.2124 115.164 55.9296 117.463L56.9639 120.938L57.4834 122.681L57.9432 124.428C60.5299 133.751 62.689 143.174 64.4207 152.696C66.1523 162.219 67.5315 171.784 68.5582 181.392C69.0823 186.196 69.4776 191.014 69.873 195.832C70.2684 200.65 70.5074 205.486 70.7143 210.304C70.9212 215.122 71.0407 219.958 71.0775 224.799C71.1143 229.64 71.0775 234.454 70.8798 239.34C70.8621 239.762 70.6776 240.16 70.3668 240.446C70.056 240.731 69.6444 240.882 69.2225 240.864C68.8006 240.847 68.4031 240.662 68.1173 240.351C67.8315 240.041 67.6808 239.629 67.6985 239.207V239.17C67.933 234.426 67.9973 229.603 68.0019 224.813C68.0065 220.023 67.91 215.214 67.7399 210.419C67.5698 205.624 67.3307 200.825 67.0135 196.034C66.6963 191.244 66.2963 186.458 65.809 181.682C64.8528 172.126 63.5518 162.615 61.906 153.151C60.2602 143.687 58.1929 134.316 55.7043 125.039L55.2446 123.301L54.7389 121.573L53.7367 118.12C53.0425 115.822 52.3069 113.523 51.5806 111.257L50.4083 107.873C50.0221 106.737 49.6405 105.602 49.1992 104.485L46.6247 97.759C46.188 96.6419 45.7788 95.5156 45.3237 94.4076L43.8894 91.1068L41.0115 84.5144L37.8394 78.0782L37.0441 76.4646L36.6487 75.6555L36.2166 74.8694L34.4834 71.7202C29.9338 63.2823 24.6299 55.2735 18.6367 47.7916L16.3381 45.0332C15.9473 44.5735 15.5795 44.1138 15.175 43.6541L13.9567 42.3346C13.143 41.4612 12.3431 40.5739 11.5156 39.7096L8.9595 37.1995L8.30669 36.5697L7.64009 35.9721L6.31149 34.7768C5.43801 33.9631 4.50477 33.2229 3.55314 32.4781C2.60151 31.7334 1.66367 31.0346 0.712042 30.322C-0.239588 29.6095 -1.26018 28.975 -2.24399 28.428H-2.28536C-2.45911 28.331 -2.58723 28.1691 -2.64155 27.9777C-2.69586 27.7863 -2.67192 27.5811 -2.57499 27.4074C-2.47806 27.2336 -2.31608 27.1055 -2.12468 27.0512C-1.93328 26.9969 -1.72815 27.0208 -1.5544 27.1178L-1.53142 27.0948Z" fill="white"/>
</g>
</g>
<path d="M101.511 232.825V143.924C101.507 142.94 101.811 141.979 102.379 141.177C102.948 140.374 103.753 139.769 104.683 139.446C114.401 136.133 124.118 136.593 133.834 140.825C134.854 141.262 135.715 142.005 136.296 142.95C136.877 143.896 137.151 144.999 137.079 146.107L131.167 232.628L101.511 232.825Z" fill="url(#paint7_linear)"/>
<path d="M107.087 147.666V169.319C107.087 170.163 107.409 170.976 107.989 171.591C108.568 172.205 109.361 172.575 110.204 172.624L125.945 173.544C126.798 173.594 127.637 173.314 128.288 172.76C128.939 172.207 129.351 171.424 129.439 170.574L131.737 148.305C131.828 147.436 131.571 146.566 131.024 145.885C130.476 145.204 129.682 144.767 128.813 144.668C124.143 144.149 115.481 143.418 109.841 144.37C109.065 144.504 108.363 144.909 107.859 145.512C107.354 146.116 107.081 146.879 107.087 147.666Z" fill="url(#paint8_linear)"/>
<path d="M138.234 148.783L132.993 232.614H164.415V151.137C164.413 149.994 164.054 148.881 163.388 147.953C162.722 147.024 161.782 146.328 160.7 145.96C156.563 144.54 149.474 142.742 142.527 143.997C141.38 144.2 140.333 144.782 139.555 145.649C138.777 146.517 138.311 147.62 138.234 148.783Z" fill="url(#paint9_linear)"/>
<path opacity="0.57" d="M138.316 201.591L137.254 224.968C137.234 225.427 137.306 225.886 137.468 226.316C137.629 226.746 137.876 227.139 138.194 227.471C138.511 227.803 138.893 228.067 139.315 228.248C139.738 228.429 140.192 228.522 140.652 228.522H156.526C157.428 228.522 158.293 228.164 158.931 227.526C159.569 226.888 159.928 226.022 159.928 225.12V201.748C159.928 200.845 159.569 199.98 158.931 199.342C158.293 198.704 157.428 198.346 156.526 198.346H141.718C140.842 198.345 140 198.682 139.366 199.286C138.733 199.891 138.356 200.716 138.316 201.591Z" fill="white"/>
<path d="M194.669 232.628V145.97C194.672 144.916 194.336 143.888 193.711 143.039C193.086 142.19 192.205 141.564 191.198 141.253C184.177 139.132 176.682 139.156 169.674 141.322C168.762 141.603 167.964 142.169 167.397 142.937C166.83 143.705 166.525 144.634 166.525 145.588V232.628H194.669Z" fill="url(#paint10_linear)"/>
<path d="M169.31 147.404L169.991 160.198C170.032 160.966 170.366 161.689 170.925 162.217C171.483 162.746 172.224 163.04 172.993 163.039H188.081C188.86 163.038 189.609 162.735 190.169 162.193C190.729 161.651 191.057 160.913 191.083 160.134L191.492 147.514C191.516 146.812 191.293 146.125 190.862 145.57C190.431 145.016 189.82 144.63 189.134 144.48C185.456 143.694 178.27 142.604 171.604 144.328C170.924 144.495 170.324 144.893 169.905 145.454C169.487 146.015 169.276 146.705 169.31 147.404Z" fill="#39122E"/>
<path d="M170.483 168.551C170.535 169.309 170.873 170.019 171.429 170.538C171.984 171.057 172.716 171.346 173.476 171.346H187.907C188.306 171.346 188.702 171.266 189.07 171.11C189.438 170.955 189.772 170.728 190.051 170.443C190.331 170.157 190.55 169.819 190.698 169.448C190.845 169.076 190.917 168.679 190.909 168.28C190.892 167.494 190.568 166.747 190.007 166.197C189.446 165.647 188.692 165.339 187.907 165.338H173.476C173.064 165.338 172.657 165.423 172.279 165.587C171.901 165.752 171.561 165.992 171.281 166.294C171 166.595 170.784 166.951 170.647 167.339C170.51 167.728 170.454 168.14 170.483 168.551Z" fill="url(#paint11_linear)"/>
<path d="M292.6 148.783C292.6 148.783 290.034 132.826 297.868 127.663C297.949 127.611 298.043 127.583 298.139 127.58C298.235 127.577 298.33 127.601 298.413 127.648C298.497 127.695 298.566 127.765 298.614 127.848C298.661 127.932 298.684 128.027 298.682 128.123V131.157C298.685 131.315 298.734 131.469 298.823 131.6C298.911 131.732 299.035 131.835 299.18 131.898C299.325 131.96 299.485 131.98 299.641 131.955C299.798 131.93 299.943 131.86 300.061 131.755C301.748 130.169 304.764 127.751 307.964 127.25C308.155 127.217 308.352 127.238 308.533 127.309C308.714 127.379 308.872 127.498 308.991 127.652C309.109 127.806 309.184 127.99 309.206 128.183C309.228 128.376 309.198 128.571 309.118 128.748C307.155 132.946 302.015 144.705 302.222 152.406L292.6 148.783Z" fill="url(#paint12_linear)"/>
<path d="M284.283 148.783L279.038 232.628H310.46V151.137C310.459 149.994 310.1 148.88 309.434 147.952C308.768 147.024 307.828 146.327 306.745 145.96C302.608 144.54 295.519 142.742 288.577 143.997C287.429 144.199 286.381 144.78 285.603 145.648C284.824 146.516 284.36 147.62 284.283 148.783Z" fill="url(#paint13_linear)"/>
<path d="M284.366 201.591L283.3 224.968C283.279 225.427 283.352 225.886 283.513 226.316C283.675 226.746 283.922 227.139 284.239 227.471C284.557 227.803 284.938 228.067 285.36 228.248C285.783 228.429 286.237 228.522 286.697 228.522H302.553C303.455 228.522 304.32 228.164 304.958 227.526C305.596 226.888 305.955 226.022 305.955 225.12V201.748C305.955 200.845 305.596 199.98 304.958 199.342C304.32 198.704 303.455 198.346 302.553 198.346H287.763C286.888 198.345 286.046 198.682 285.413 199.287C284.78 199.891 284.405 200.717 284.366 201.591Z" fill="url(#paint14_linear)"/>
<path d="M78.7678 143.997C77.6198 144.199 76.5728 144.781 75.7944 145.648C75.0159 146.516 74.551 147.62 74.474 148.783L69.2332 232.614H100.655V151.137C100.654 149.994 100.295 148.881 99.6285 147.952C98.9624 147.024 98.0226 146.328 96.9408 145.96C92.7802 144.54 85.7143 142.765 78.7678 143.997Z" fill="url(#paint15_linear)"/>
<path d="M74.5568 201.591L73.4948 224.968C73.4744 225.427 73.547 225.886 73.7085 226.316C73.87 226.746 74.1169 227.139 74.4344 227.471C74.7519 227.803 75.1333 228.067 75.5557 228.248C75.9782 228.429 76.4328 228.522 76.8922 228.522H92.7665C93.6688 228.522 94.5341 228.164 95.172 227.526C95.81 226.888 96.1685 226.022 96.1685 225.12V201.748C96.1685 200.845 95.81 199.98 95.172 199.342C94.5341 198.704 93.6688 198.346 92.7665 198.346H77.9542C77.0791 198.346 76.2379 198.683 75.6052 199.288C74.9725 199.892 74.597 200.717 74.5568 201.591Z" fill="#663A57"/>
<path d="M340.71 232.628V145.969C340.713 144.915 340.377 143.888 339.752 143.039C339.127 142.19 338.246 141.564 337.239 141.253C330.219 139.132 322.726 139.156 315.719 141.322C314.807 141.602 314.008 142.168 313.44 142.935C312.872 143.703 312.566 144.633 312.566 145.588V232.628H340.71Z" fill="url(#paint16_linear)"/>
<path d="M315.356 147.404L316.041 160.198C316.081 160.966 316.415 161.688 316.973 162.217C317.53 162.746 318.27 163.04 319.039 163.039H334.108C334.889 163.041 335.638 162.738 336.199 162.196C336.76 161.653 337.087 160.913 337.11 160.134L337.52 147.514C337.543 146.812 337.32 146.125 336.89 145.57C336.459 145.016 335.847 144.63 335.161 144.48C331.483 143.694 324.303 142.604 317.637 144.328C316.959 144.498 316.362 144.897 315.946 145.458C315.53 146.019 315.322 146.706 315.356 147.404Z" fill="url(#paint17_linear)"/>
<path d="M316.528 168.551C316.581 169.31 316.919 170.021 317.476 170.54C318.032 171.059 318.765 171.347 319.526 171.346H333.952C334.351 171.346 334.747 171.266 335.115 171.11C335.483 170.955 335.817 170.728 336.096 170.443C336.376 170.157 336.595 169.819 336.743 169.448C336.89 169.076 336.962 168.679 336.954 168.28C336.938 167.494 336.615 166.746 336.054 166.196C335.492 165.646 334.738 165.337 333.952 165.338H319.526C319.113 165.338 318.706 165.423 318.328 165.587C317.95 165.752 317.61 165.992 317.329 166.293C317.048 166.595 316.832 166.951 316.694 167.339C316.556 167.727 316.5 168.14 316.528 168.551Z" fill="url(#paint18_linear)"/>
<path d="M197 146.553L195.896 233.037H246.135L242.375 148.857C242.322 147.669 241.916 146.525 241.209 145.569C240.503 144.613 239.527 143.89 238.407 143.492C232.159 141.257 218.561 137.975 200.144 142.572C199.253 142.793 198.46 143.303 197.89 144.024C197.321 144.745 197.008 145.635 197 146.553Z" fill="url(#paint19_linear)"/>
<path d="M244.935 148.392L248.42 232.522H278.187L280.445 147.427C280.478 146.287 280.137 145.167 279.472 144.24C278.808 143.313 277.857 142.63 276.767 142.296C267.112 139.391 257.458 139.106 247.974 143.445C247.032 143.873 246.239 144.572 245.698 145.454C245.156 146.335 244.891 147.358 244.935 148.392Z" fill="url(#paint20_linear)"/>
<path opacity="0.57" d="M247.643 151.541L247.997 156.116C248.049 156.782 248.36 157.402 248.864 157.841C249.368 158.28 250.024 158.504 250.691 158.465L275.01 157.054C275.627 157.015 276.209 156.756 276.649 156.322C277.089 155.889 277.358 155.311 277.406 154.695L277.64 151.532C277.669 151.181 277.625 150.827 277.511 150.494C277.396 150.16 277.214 149.854 276.975 149.595C276.736 149.335 276.446 149.129 276.122 148.987C275.799 148.846 275.45 148.773 275.098 148.774H250.19C249.836 148.773 249.486 148.846 249.162 148.988C248.838 149.13 248.547 149.337 248.308 149.598C248.068 149.858 247.886 150.165 247.771 150.5C247.657 150.834 247.613 151.189 247.643 151.541Z" fill="white"/>
<path opacity="0.57" d="M248.65 162.483V164.151C248.649 164.457 248.71 164.76 248.83 165.041C248.949 165.323 249.124 165.577 249.345 165.789C249.565 166.001 249.826 166.166 250.112 166.274C250.398 166.382 250.703 166.431 251.008 166.418L274.307 165.448C274.891 165.423 275.443 165.173 275.848 164.751C276.252 164.328 276.478 163.766 276.477 163.181V161.411C276.478 161.105 276.416 160.801 276.295 160.519C276.175 160.237 275.998 159.982 275.776 159.77C275.555 159.558 275.292 159.394 275.005 159.286C274.718 159.179 274.411 159.131 274.105 159.145L250.811 160.216C250.229 160.245 249.68 160.496 249.277 160.917C248.875 161.339 248.651 161.9 248.65 162.483Z" fill="white"/>
<path d="M455.581 231.993C455.58 232.539 455.363 233.062 454.977 233.448C454.591 233.834 454.068 234.051 453.522 234.053H49.424L49.5527 229.915H453.513C454.059 229.916 454.583 230.134 454.969 230.521C455.355 230.908 455.572 231.433 455.572 231.979L455.581 231.993Z" fill="url(#paint21_linear)"/>
<path d="M33.3882 193.574H-30.3618V183.796H33.3882C32.0228 183.796 32.0228 193.574 33.3882 193.574Z" fill="url(#paint22_linear)"/>
<path d="M-30.3614 191.128V186.651C-30.3638 186.277 -30.2923 185.907 -30.1512 185.561C-30.01 185.215 -29.8019 184.9 -29.5387 184.635C-29.2756 184.369 -28.9626 184.159 -28.6178 184.015C-28.273 183.871 -27.9031 183.796 -27.5294 183.796H33.1542C34.3771 183.796 35.3655 183.037 35.3655 182.099C35.3426 181.943 35.2597 181.802 35.1344 181.706C35.009 181.61 34.8512 181.566 34.6943 181.584H-31.644C-33.1657 181.584 -35.5792 183.423 -35.5792 185.676V191.928C-35.5792 194.057 -33.2346 195.785 -31.8003 195.785H34.3081C34.5473 195.814 34.7882 195.748 34.9791 195.601C35.1699 195.454 35.2955 195.238 35.3287 194.999C35.3287 194.213 34.4966 193.574 33.4898 193.574H-27.9524C-28.2712 193.572 -28.5863 193.507 -28.8799 193.382C-29.1735 193.258 -29.4397 193.077 -29.6634 192.85C-29.8871 192.623 -30.0639 192.354 -30.1836 192.059C-30.3034 191.763 -30.3638 191.447 -30.3614 191.128Z" fill="url(#paint23_linear)"/>
<path d="M-28.5915 186.081H31.1727C31.2123 186.086 31.2524 186.082 31.2905 186.071C31.3286 186.059 31.3638 186.039 31.3938 186.013C31.4237 185.987 31.4477 185.954 31.4641 185.918C31.4805 185.882 31.489 185.842 31.489 185.802C31.489 185.763 31.4805 185.723 31.4641 185.687C31.4477 185.651 31.4237 185.618 31.3938 185.592C31.3638 185.566 31.3286 185.546 31.2905 185.534C31.2524 185.523 31.2123 185.519 31.1727 185.524H-28.5915C-28.631 185.519 -28.6711 185.523 -28.7092 185.534C-28.7474 185.546 -28.7826 185.566 -28.8125 185.592C-28.8424 185.618 -28.8664 185.651 -28.8828 185.687C-28.8992 185.723 -28.9077 185.763 -28.9077 185.802C-28.9077 185.842 -28.8992 185.882 -28.8828 185.918C-28.8664 185.954 -28.8424 185.987 -28.8125 186.013C-28.7826 186.039 -28.7474 186.059 -28.7092 186.071C-28.6711 186.082 -28.631 186.086 -28.5915 186.081Z" fill="white"/>
<path d="M-28.5915 187.533H31.1727C31.2471 187.533 31.3184 187.503 31.371 187.451C31.4236 187.398 31.4531 187.327 31.4531 187.253C31.4531 187.216 31.4459 187.179 31.4318 187.145C31.4177 187.111 31.397 187.08 31.371 187.054C31.3449 187.028 31.314 187.008 31.28 186.994C31.246 186.979 31.2095 186.972 31.1727 186.972H-28.5915C-28.6283 186.972 -28.6648 186.979 -28.6988 186.994C-28.7329 187.008 -28.7638 187.028 -28.7898 187.054C-28.8159 187.08 -28.8365 187.111 -28.8506 187.145C-28.8647 187.179 -28.8719 187.216 -28.8719 187.253C-28.8719 187.327 -28.8424 187.398 -28.7898 187.451C-28.7372 187.503 -28.6659 187.533 -28.5915 187.533Z" fill="white"/>
<path d="M-28.5915 188.986H31.1727C31.2471 188.986 31.3184 188.956 31.371 188.904C31.4236 188.851 31.4531 188.78 31.4531 188.705C31.4531 188.631 31.4236 188.56 31.371 188.507C31.3184 188.455 31.2471 188.425 31.1727 188.425H-28.5915C-28.6659 188.425 -28.7372 188.455 -28.7898 188.507C-28.8424 188.56 -28.8719 188.631 -28.8719 188.705C-28.8719 188.78 -28.8424 188.851 -28.7898 188.904C-28.7372 188.956 -28.6659 188.986 -28.5915 188.986Z" fill="white"/>
<path d="M-28.5915 190.435H31.1727C31.2123 190.44 31.2524 190.436 31.2905 190.425C31.3286 190.413 31.3638 190.393 31.3938 190.367C31.4237 190.341 31.4477 190.308 31.4641 190.272C31.4805 190.236 31.489 190.196 31.489 190.156C31.489 190.117 31.4805 190.077 31.4641 190.041C31.4477 190.005 31.4237 189.972 31.3938 189.946C31.3638 189.92 31.3286 189.9 31.2905 189.888C31.2524 189.877 31.2123 189.873 31.1727 189.878H-28.5915C-28.631 189.873 -28.6711 189.877 -28.7092 189.888C-28.7474 189.9 -28.7826 189.92 -28.8125 189.946C-28.8424 189.972 -28.8664 190.005 -28.8828 190.041C-28.8992 190.077 -28.9077 190.117 -28.9077 190.156C-28.9077 190.196 -28.8992 190.236 -28.8828 190.272C-28.8664 190.308 -28.8424 190.341 -28.8125 190.367C-28.7826 190.393 -28.7474 190.413 -28.7092 190.425C-28.6711 190.436 -28.631 190.44 -28.5915 190.435Z" fill="white"/>
<path d="M-28.5915 191.887H31.1727C31.2471 191.887 31.3184 191.857 31.371 191.805C31.4236 191.752 31.4531 191.681 31.4531 191.607C31.4531 191.532 31.4236 191.461 31.371 191.408C31.3184 191.356 31.2471 191.326 31.1727 191.326H-28.5915C-28.6659 191.326 -28.7372 191.356 -28.7898 191.408C-28.8424 191.461 -28.8719 191.532 -28.8719 191.607C-28.8719 191.681 -28.8424 191.752 -28.7898 191.805C-28.7372 191.857 -28.6659 191.887 -28.5915 191.887Z" fill="white"/>
<path d="M-32.7568 233.837H57.2113C60.3139 233.837 62.8291 231.322 62.8291 228.219V220.335C62.8291 217.232 60.3139 214.717 57.2113 214.717H-32.7568C-35.8595 214.717 -38.3747 217.232 -38.3747 220.335V228.219C-38.3747 231.322 -35.8595 233.837 -32.7568 233.837Z" fill="url(#paint24_linear)"/>
<path opacity="0.6" d="M41.5258 231.639H49.3687C50.4858 231.639 51.3915 230.734 51.3915 229.616V218.937C51.3915 217.82 50.4858 216.914 49.3687 216.914H41.5258C40.4086 216.914 39.503 217.82 39.503 218.937V229.616C39.503 230.734 40.4086 231.639 41.5258 231.639Z" fill="white"/>
<path d="M-36.6462 196.847V200.139C-36.6313 200.442 -36.5389 200.737 -36.378 200.994C-36.217 201.252 -35.9929 201.464 -35.7268 201.61L-35.1613 201.978C-34.7016 202.277 -34.7936 202.833 -35.3452 203.035C-35.713 203.168 -35.7774 203.532 -35.4785 203.734L-34.7614 204.194C-34.6555 204.249 -34.5669 204.333 -34.505 204.436C-34.4432 204.538 -34.4105 204.656 -34.4105 204.775C-34.4105 204.895 -34.4432 205.012 -34.505 205.115C-34.5669 205.217 -34.6555 205.301 -34.7614 205.357L-35.2717 205.702C-35.3719 205.756 -35.4552 205.836 -35.5124 205.935C-35.5695 206.033 -35.5983 206.146 -35.5954 206.259C-35.5926 206.373 -35.5582 206.484 -35.4962 206.58C-35.4342 206.675 -35.3469 206.751 -35.2441 206.8L-34.697 207.141C-34.6107 207.181 -34.5357 207.242 -34.4785 207.318C-34.4213 207.394 -34.3838 207.483 -34.3693 207.577C-34.3547 207.671 -34.3636 207.767 -34.3951 207.857C-34.4266 207.947 -34.4798 208.028 -34.5499 208.092L-34.8533 208.391C-34.9559 208.486 -35.0385 208.6 -35.0961 208.727C-35.1538 208.854 -35.1853 208.992 -35.1889 209.131V214.331H39.4198V196.535L-36.6462 196.847Z" fill="url(#paint25_linear)"/>
<path opacity="0.78" d="M36.8321 200.658H-34.0299C-34.1862 200.658 -34.3103 200.566 -34.3103 200.451C-34.3001 200.387 -34.2651 200.328 -34.2128 200.289C-34.1605 200.25 -34.0949 200.232 -34.0299 200.24H36.8321C36.9838 200.24 37.1125 200.336 37.1125 200.451C37.1125 200.566 36.9884 200.658 36.8321 200.658Z" fill="white"/>
<path opacity="0.78" d="M36.8321 203.761H-32.3519C-32.4169 203.769 -32.4825 203.752 -32.5348 203.712C-32.5871 203.673 -32.6221 203.615 -32.6323 203.55C-32.6323 203.435 -32.5082 203.343 -32.3519 203.343H36.8321C36.9838 203.343 37.1125 203.435 37.1125 203.55C37.1125 203.665 36.9884 203.761 36.8321 203.761Z" fill="white"/>
<path opacity="0.78" d="M36.8317 206.041H-31.4925C-31.6488 206.041 -31.7729 205.949 -31.7729 205.835C-31.7729 205.72 -31.6488 205.628 -31.4925 205.628H36.8317C36.9835 205.628 37.1122 205.72 37.1122 205.835C37.1122 205.949 36.9881 206.041 36.8317 206.041Z" fill="white"/>
<path d="M40.7763 195.399H-38.2779C-38.8802 195.399 -39.418 195.726 -39.4778 196.172C-39.5422 196.686 -39.0181 197.119 -38.3285 197.119H34.993C36.2802 197.119 37.3927 197.79 37.6594 198.732C38.8593 202.939 38.7673 207.324 37.6594 211.848C37.3973 212.896 36.1699 213.655 34.7401 213.655H-36.8298C-37.432 213.655 -37.9699 213.986 -38.0297 214.432C-38.0894 214.878 -37.5699 215.379 -36.8804 215.379H40.2522C42.0911 215.379 43.6818 214.395 44.0128 213.039C45.3414 207.554 45.4609 202.286 44.0128 197.307C43.6864 196.19 42.3486 195.399 40.7947 195.399H40.7763Z" fill="url(#paint26_linear)"/>
<path d="M63.9555 202.704C63.9049 202.681 34.8963 151.886 30.9749 147.105C30.6513 146.71 30.233 146.402 29.7588 146.212C29.2845 146.021 28.7698 145.954 28.2625 146.016L20.1667 146.981L10.655 167.558L26.5017 158.327C24.9341 169.172 45.2907 185.285 52.2463 191.17C52.4147 191.311 52.5523 191.484 52.6506 191.68C52.749 191.876 52.806 192.091 52.818 192.31C52.8301 192.529 52.797 192.748 52.7208 192.953C52.6446 193.159 52.5269 193.347 52.375 193.505L49.5891 196.42C53.8789 200.885 59.3727 204.009 65.4036 205.412L63.9555 202.704Z" fill="url(#paint27_linear)"/>
<path d="M51.2306 194.847C51.2306 194.847 49.4561 195.422 48.8538 197.004C48.722 197.379 48.7172 197.786 48.8402 198.164C48.9631 198.543 49.207 198.87 49.5342 199.095C52.4627 201.192 62.1169 207.968 66.5808 209.292C66.6649 209.316 66.7539 209.318 66.839 209.298C66.9241 209.277 67.0024 209.235 67.0664 209.176C67.1303 209.116 67.1776 209.04 67.2037 208.957C67.2298 208.873 67.2338 208.784 67.2152 208.699C66.9854 207.665 66.2452 205.596 63.8593 202.566L64.0753 202.998C64.1348 203.117 64.1545 203.252 64.1316 203.383C64.1087 203.514 64.0444 203.634 63.9481 203.725C63.8519 203.817 63.7288 203.875 63.5969 203.892C63.4651 203.908 63.3314 203.882 63.2156 203.817C60.232 202.134 54.1591 198.433 51.2306 194.847Z" fill="url(#paint28_linear)"/>
<path d="M52.6697 215.172C52.6191 215.14 48.2655 204.653 48.2195 204.626C44.2291 180.329 34.4922 159.522 31.6235 154.056C31.3857 153.604 31.0378 153.219 30.6119 152.937C30.186 152.655 29.6959 152.485 29.1869 152.442L21.0636 151.748L7.58447 169.972L24.9713 164.142C21.2383 174.445 37.9125 194.346 43.5579 201.518C43.6918 201.69 43.7893 201.887 43.8443 202.097C43.8994 202.308 43.911 202.527 43.8783 202.743C43.8456 202.958 43.7693 203.164 43.6541 203.349C43.539 203.533 43.3873 203.693 43.2085 203.817L39.8893 206.115C43.1891 211.355 47.9364 215.525 53.5569 218.123L52.6697 215.172Z" fill="url(#paint29_linear)"/>
<path d="M41.7874 204.897C41.7874 204.897 39.9485 205.104 39.0291 206.529C38.824 206.869 38.7368 207.267 38.7808 207.662C38.8248 208.057 38.9977 208.426 39.2727 208.713C41.7185 211.361 49.805 219.953 53.9058 222.155C53.9834 222.196 54.0705 222.216 54.1583 222.213C54.2461 222.21 54.3316 222.184 54.4061 222.137C54.4806 222.091 54.5416 222.025 54.5829 221.948C54.6241 221.87 54.6443 221.783 54.6413 221.695C54.6413 220.633 54.3241 218.477 52.6001 215.011L52.7243 215.471C52.7575 215.599 52.7489 215.734 52.6997 215.857C52.6506 215.98 52.5634 216.084 52.4509 216.154C52.3385 216.224 52.2067 216.256 52.0747 216.245C51.9428 216.235 51.8176 216.182 51.7175 216.096C49.1292 213.857 43.9251 209.007 41.7874 204.897Z" fill="url(#paint30_linear)"/>
<path d="M-16.956 147.9C-16.956 147.9 -24.3116 158.833 -24.9092 163.816C-25.5069 168.799 -22.8773 170.528 -15.1815 171.172C7.70821 173.066 18.9899 166.207 18.9899 166.207C20.5575 156.221 21.67 153.679 34.7492 148.277C34.7492 148.277 18.1991 149.587 14.8799 148.277C11.5607 146.967 -16.956 147.9 -16.956 147.9Z" fill="url(#paint31_linear)"/>
<path d="M2.90863 146.452C2.90863 146.452 11.4687 138.306 15.6798 132.909C16.8011 131.47 17.5622 129.783 17.8997 127.99C18.2371 126.198 18.1412 124.35 17.6198 122.602C15.6982 116.12 12.2778 109.408 11.9652 108.35C11.4917 106.764 1.89264 106.828 1.89264 106.828C1.89264 106.828 -16.9882 119.085 -24.4082 139.846L-16.078 142.439C-16.078 142.439 -11.1452 134.164 -6.27207 128.909C-6.27207 128.909 -14.7034 140.044 -15.0068 144.604L2.90863 146.452Z" fill="url(#paint32_linear)"/>
<path d="M13.1282 99.4181C13.0271 99.7491 10.5216 108.052 10.3285 108.226C10.1354 108.401 4.83481 108.682 2.35229 106.981L7.44145 95.7219L13.1282 99.4181Z" fill="url(#paint33_linear)"/>
<path d="M20.0153 90.0903C20.0153 90.0903 21.7991 94.2278 19.7027 100.471C17.6064 106.714 14.186 107.279 12.0161 105.73C9.84622 104.181 7.03731 101.432 6.68792 95.7403C6.33852 90.0489 17.5604 84.8816 20.0153 90.0903Z" fill="url(#paint34_linear)"/>
<path d="M10.9173 95.372C10.9173 95.372 14.7009 86.8993 20.3785 92.177L20.8152 94.3606C20.8152 94.3606 26.2216 92.8206 24.4424 87.9245C22.6633 83.0284 16.2087 79.7046 10.43 82.8675C4.65127 86.0304 2.68365 89.7634 2.99627 94.2411C3.30888 98.7188 6.64648 97.1696 6.64648 97.1696C6.64648 97.1696 7.29009 93.8917 8.85775 93.3125C10.4254 92.7332 10.3978 95.2111 10.3978 95.2111L10.9173 95.372Z" fill="url(#paint35_linear)"/>
<path d="M9.61612 95.4779C9.61612 95.4779 11.5883 91.1335 8.82999 90.9726C6.07164 90.8117 7.19337 95.1653 7.74044 96.7467L9.61612 95.4779Z" fill="url(#paint36_linear)"/>
<path d="M19.2154 149.67L12.7793 142.673L5.35471 144.673C5.35471 144.673 -3.3019 146.015 -8.25773 144.673L-13.2136 143.331L-24.4125 139.846L-26.1502 144.816C-26.366 145.43 -26.376 146.098 -26.1786 146.718C-25.9812 147.338 -25.5872 147.878 -25.0561 148.254C-24.1637 148.92 -23.2164 149.51 -22.2242 150.015C-20.753 150.659 11.7449 150.217 11.7449 150.217L19.2154 149.67Z" fill="url(#paint37_linear)"/>
<path d="M8.05306 86.0167C8.40265 85.9635 8.73097 85.8155 9.00237 85.5888C9.27377 85.3622 9.47789 85.0655 9.59255 84.7309C9.70721 84.3964 9.72804 84.0369 9.65277 83.6914C9.5775 83.3459 9.40901 83.0276 9.1656 82.7711C5.77283 79.0611 -0.635731 74.9558 -9.76586 81.2632C-20.0499 88.3751 -25.6126 91.5932 -28.1548 90.9174C-28.5174 90.8114 -28.903 90.813 -29.2647 90.9221C-29.6264 91.0312 -29.9486 91.243 -30.1921 91.5318C-30.4356 91.8206 -30.59 92.174 -30.6364 92.5489C-30.6828 92.9238 -30.6192 93.3041 -30.4535 93.6436C-29.8742 94.7745 -28.6927 95.9422 -26.5136 97.0317C-9.71069 105.325 -1.0173 87.1247 8.05306 86.0167Z" fill="url(#paint38_linear)"/>
<path d="M-2.0698 152.461H-2.00084L27.5778 152.429C27.929 152.429 28.2657 152.289 28.514 152.041C28.7623 151.793 28.9018 151.456 28.9018 151.105C28.9018 150.754 28.7623 150.417 28.514 150.169C28.2657 149.92 27.929 149.781 27.5778 149.781L-2.00084 149.813C-2.35199 149.804 -2.69215 149.936 -2.94648 150.178C-3.20082 150.42 -3.3485 150.754 -3.35703 151.105C-3.36557 151.456 -3.23426 151.796 -2.99199 152.05C-2.74973 152.305 -2.41635 152.452 -2.06521 152.461H-2.0698Z" fill="url(#paint39_linear)"/>
<path d="M54.1634 125.585H29.5314C28.6418 125.585 27.7706 125.838 27.0192 126.314C26.2679 126.79 25.6675 127.47 25.2881 128.275L13.9008 152.424H44.5092C45.0817 152.424 45.6408 152.252 46.114 151.929C46.5871 151.607 46.9522 151.15 47.1618 150.617L55.9931 128.275C56.1108 127.976 56.1537 127.654 56.1182 127.335C56.0827 127.016 55.9699 126.711 55.7895 126.446C55.6091 126.181 55.3667 125.964 55.0833 125.814C54.7999 125.664 54.4841 125.585 54.1634 125.585Z" fill="url(#paint40_linear)"/>
<path d="M36.8316 137.966C36.2938 139.621 36.6891 141.234 37.7097 141.561C38.7303 141.887 40.0083 140.812 40.5232 139.152C41.0381 137.492 40.6657 135.883 39.6452 135.557C38.6246 135.23 37.3465 136.306 36.8316 137.966Z" fill="#39122E"/>
<path d="M379.12 233.423C376.233 233.294 372.569 233 370.454 232.816C372.532 230.269 379.12 228.55 379.12 228.55H380.982C381.928 229.877 382.436 231.467 382.435 233.096C381.86 233.326 380.858 233.496 379.12 233.423Z" fill="url(#paint41_linear)"/>
<path d="M403.508 223.259C402.446 224.178 398.998 224.32 398.998 224.32C386.586 194.503 381.492 190.264 381.492 190.264C383.285 201.523 381.782 226.44 381.782 226.44C379.731 227.359 377.088 226.44 377.088 226.44C376.935 210.515 374.804 194.671 370.744 179.272C379.138 179.084 383.616 176.21 385.064 175.056C392.066 186.356 403.508 223.259 403.508 223.259Z" fill="url(#paint42_linear)"/>
<path d="M382.931 140.78C384.521 148.705 383.951 162.897 383.574 169.37C383.473 171.209 384.742 173.71 385.767 175.434C385.806 175.497 385.831 175.567 385.84 175.641C385.85 175.714 385.845 175.789 385.825 175.86C385.804 175.931 385.77 175.998 385.723 176.055C385.676 176.112 385.617 176.159 385.551 176.192C383.832 177.075 378.007 179.81 371.263 180.15C371.044 180.16 370.828 180.094 370.651 179.963C370.475 179.833 370.348 179.646 370.293 179.433C365.286 160.736 359.476 148.783 359.476 148.783C365.893 138.55 382.931 140.78 382.931 140.78Z" fill="url(#paint43_linear)"/>
<path d="M359.475 148.783L364.073 158.645C363.333 164.598 360.133 167.172 356.685 168.161C356.517 165.947 355.997 163.774 355.145 161.725C359.558 157.206 359.475 148.783 359.475 148.783Z" fill="url(#paint44_linear)"/>
<path d="M355.127 161.756C355.979 163.806 356.499 165.979 356.667 168.192C347.472 171.76 345.031 164.837 345.031 164.837L346.732 164.538C350.571 164.928 353.256 163.692 355.127 161.756Z" fill="url(#paint45_linear)"/>
<path d="M363.696 136.628L365.907 144.752C365.965 144.967 366.068 145.168 366.21 145.341C366.351 145.514 366.527 145.655 366.727 145.754C366.927 145.854 367.146 145.91 367.369 145.918C367.592 145.927 367.815 145.888 368.022 145.804C369.109 145.378 370.173 144.893 371.208 144.352C371.47 144.211 371.7 144.018 371.882 143.783C372.065 143.549 372.196 143.278 372.268 142.99C372.34 142.701 372.351 142.401 372.3 142.108C372.248 141.816 372.137 141.537 371.971 141.29L367.374 134.435L363.696 136.628Z" fill="url(#paint46_linear)"/>
<path d="M340.816 159.385L397.458 180.003C398.02 180.208 398.533 180.527 398.966 180.939C399.398 181.352 399.741 181.849 399.972 182.4C400.204 182.952 400.319 183.545 400.31 184.142C400.301 184.74 400.169 185.33 399.922 185.874L399.748 186.251C399.528 186.735 399.214 187.17 398.825 187.532C398.436 187.894 397.98 188.176 397.481 188.361C396.983 188.546 396.453 188.63 395.922 188.61C395.391 188.59 394.87 188.464 394.387 188.241L339.39 162.796L340.816 159.385Z" fill="url(#paint47_linear)"/>
<path opacity="0.5" d="M314.781 174.44C330.223 174.44 342.742 162.148 342.742 146.986C342.742 131.823 330.223 119.531 314.781 119.531C299.339 119.531 286.821 131.823 286.821 146.986C286.821 162.148 299.339 174.44 314.781 174.44Z" fill="url(#paint48_linear)"/>
<path d="M283.667 146.985C283.667 163.857 297.597 177.539 314.781 177.539C331.966 177.539 345.895 163.857 345.895 146.985C345.895 130.114 331.975 116.432 314.781 116.432C297.588 116.432 283.667 130.114 283.667 146.985ZM288.237 146.985C288.237 132.591 300.121 120.924 314.781 120.924C329.442 120.924 341.326 132.591 341.326 146.985C341.326 161.379 329.442 173.047 314.781 173.047C300.121 173.047 288.237 161.379 288.237 146.985Z" fill="url(#paint49_linear)"/>
<path d="M343.528 150.737C343.505 150.735 343.483 150.728 343.463 150.717C343.443 150.706 343.425 150.691 343.411 150.673C343.397 150.655 343.386 150.634 343.38 150.612C343.374 150.59 343.373 150.566 343.376 150.544C343.468 149.831 343.533 149.105 343.569 148.383C343.57 148.36 343.575 148.337 343.585 148.316C343.594 148.295 343.608 148.276 343.626 148.261C343.643 148.245 343.663 148.233 343.685 148.226C343.707 148.219 343.73 148.216 343.753 148.218C343.776 148.219 343.799 148.224 343.819 148.234C343.84 148.244 343.859 148.258 343.874 148.275C343.889 148.292 343.901 148.312 343.909 148.334C343.917 148.356 343.92 148.378 343.919 148.401C343.882 149.132 343.818 149.868 343.726 150.59C343.718 150.635 343.693 150.675 343.656 150.703C343.619 150.73 343.573 150.742 343.528 150.737ZM343.316 142.191C343.275 142.191 343.235 142.177 343.203 142.151C343.171 142.125 343.149 142.089 343.142 142.048C342.794 140.107 342.239 138.208 341.487 136.384C339.296 131.117 335.586 126.623 330.829 123.474C326.073 120.326 320.485 118.666 314.781 118.708C309.319 118.702 303.966 120.235 299.335 123.13C299.315 123.143 299.293 123.151 299.27 123.155C299.247 123.159 299.224 123.158 299.201 123.153C299.179 123.148 299.157 123.139 299.138 123.125C299.119 123.112 299.103 123.095 299.091 123.075C299.079 123.056 299.07 123.034 299.066 123.011C299.062 122.988 299.063 122.965 299.068 122.942C299.073 122.919 299.083 122.898 299.096 122.879C299.11 122.86 299.127 122.844 299.146 122.832C303.841 119.901 309.265 118.35 314.8 118.358C320.573 118.316 326.228 119.996 331.042 123.183C335.856 126.37 339.611 130.92 341.827 136.251C342.579 138.099 343.129 140.022 343.468 141.988C343.472 142.011 343.472 142.034 343.467 142.057C343.462 142.079 343.452 142.1 343.439 142.119C343.426 142.138 343.409 142.154 343.389 142.166C343.37 142.178 343.348 142.187 343.326 142.191H343.316Z" fill="white"/>
<path d="M358.855 130.454C358.855 130.592 360.694 139.727 360.694 139.727L365.889 138.55L365.429 129.631C365.429 129.631 359.195 128.119 358.855 130.454Z" fill="url(#paint50_linear)"/>
<path d="M364.243 131.622L364.864 136.297C364.873 136.356 364.873 136.417 364.864 136.476C364.813 136.839 364.537 138.09 363.282 137.731C362.137 137.409 361.089 137.129 360.367 137.35C360.209 137.396 360.074 137.5 359.989 137.642C359.903 137.783 359.875 137.951 359.908 138.113C360.197 139.56 360.596 140.984 361.103 142.37C361.164 142.523 361.28 142.647 361.428 142.719C361.576 142.79 361.745 142.803 361.903 142.756C363.495 142.313 365.03 141.685 366.477 140.885C366.579 140.824 366.662 140.736 366.719 140.632C366.775 140.528 366.803 140.41 366.799 140.292C366.748 139.11 366.61 135.525 366.725 134.518C366.84 133.511 367.994 133.005 368.5 132.803C368.581 132.772 368.655 132.723 368.717 132.662C368.779 132.6 368.827 132.526 368.859 132.444C369.093 131.861 369.415 130.509 367.709 129.953C367.625 129.925 367.548 129.881 367.481 129.823C367.414 129.766 367.36 129.695 367.321 129.616C367.282 129.536 367.259 129.45 367.254 129.362C367.249 129.274 367.261 129.186 367.291 129.102C367.544 128.399 367.649 127.328 366.335 126.735C365.845 126.515 365.297 126.464 364.775 126.589C364.253 126.715 363.788 127.01 363.452 127.429C363.347 127.541 363.205 127.613 363.052 127.631C362.899 127.65 362.745 127.614 362.615 127.53C362.528 127.469 362.425 127.437 362.319 127.437C362.213 127.437 362.109 127.469 362.022 127.53C361.945 127.577 361.859 127.607 361.769 127.618C361.679 127.629 361.588 127.622 361.502 127.596C361.415 127.57 361.335 127.526 361.266 127.467C361.198 127.408 361.142 127.336 361.103 127.254C360.92 126.821 360.587 126.467 360.165 126.258C359.743 126.049 359.261 125.998 358.804 126.114C356.478 126.509 356.216 129.088 356.832 130.601C357.448 132.113 359.94 131.52 361.195 130.776C362.147 130.196 363.383 130.803 363.921 131.125C364.01 131.177 364.086 131.248 364.141 131.335C364.197 131.421 364.232 131.519 364.243 131.622Z" fill="url(#paint51_linear)"/>
<path d="M366.942 136.223C366.942 136.223 365.985 133.543 366.969 132.886C367.953 132.228 369.406 132.573 369.084 134.513C368.689 136.927 366.942 136.223 366.942 136.223Z" fill="url(#paint52_linear)"/>
<path d="M345.716 166.091C345.257 166.45 343.666 165.696 342.696 165.172C342.466 165.05 342.286 164.851 342.187 164.61C342.088 164.369 342.076 164.101 342.153 163.852C342.388 163.117 342.779 162.165 343.257 162.046C344.052 161.848 347.606 164.597 345.716 166.091Z" fill="url(#paint53_linear)"/>
<defs>
<linearGradient id="paint0_linear" x1="91.3911" y1="241.358" x2="362.646" y2="97.5309" gradientUnits="userSpaceOnUse">
<stop stop-color="#663A57" stop-opacity="0.6"/>
<stop offset="1" stop-color="#956684" stop-opacity="0.6"/>
</linearGradient>
<linearGradient id="paint1_linear" x1="88655.1" y1="98419.1" x2="210249" y2="-42625" gradientUnits="userSpaceOnUse">
<stop stop-color="#663A57" stop-opacity="0.6"/>
<stop offset="1" stop-color="#956684" stop-opacity="0.6"/>
</linearGradient>
<linearGradient id="paint2_linear" x1="156540" y1="66389.1" x2="122985" y2="66389.1" gradientUnits="userSpaceOnUse">
<stop stop-color="#663A57" stop-opacity="0.6"/>
<stop offset="1" stop-color="#956684" stop-opacity="0.6"/>
</linearGradient>
<linearGradient id="paint3_linear" x1="214277" y1="77354.5" x2="300708" y2="-16759" gradientUnits="userSpaceOnUse">
<stop stop-color="#663A57" stop-opacity="0.6"/>
<stop offset="1" stop-color="#956684" stop-opacity="0.6"/>
</linearGradient>
<linearGradient id="paint4_linear" x1="460.993" y1="200.797" x2="264.318" y2="200.797" gradientUnits="userSpaceOnUse">
<stop stop-color="#663A57"/>
<stop offset="1" stop-color="#956684"/>
</linearGradient>
<linearGradient id="paint5_linear" x1="7879.11" y1="62917.3" x2="25545.1" y2="43029.8" gradientUnits="userSpaceOnUse">
<stop stop-color="#663A57" stop-opacity="0.6"/>
<stop offset="1" stop-color="#956684" stop-opacity="0.6"/>
</linearGradient>
<linearGradient id="paint6_linear" x1="3128.74" y1="70723.6" x2="25962.9" y2="70723.6" gradientUnits="userSpaceOnUse">
<stop stop-color="#663A57" stop-opacity="0.6"/>
<stop offset="1" stop-color="#956684" stop-opacity="0.6"/>
</linearGradient>
<linearGradient id="paint7_linear" x1="152.967" y1="117.871" x2="94.3572" y2="229.58" gradientUnits="userSpaceOnUse">
<stop stop-color="#F18434"/>
<stop offset="1" stop-color="#BC5817"/>
</linearGradient>
<linearGradient id="paint8_linear" x1="9686.29" y1="3149.91" x2="7967.12" y2="5516.66" gradientUnits="userSpaceOnUse">
<stop stop-color="#F18434"/>
<stop offset="1" stop-color="#BC5817"/>
</linearGradient>
<linearGradient id="paint9_linear" x1="132.993" y1="188.103" x2="164.415" y2="188.103" gradientUnits="userSpaceOnUse">
<stop stop-color="#663A57"/>
<stop offset="1" stop-color="#39122E"/>
</linearGradient>
<linearGradient id="paint10_linear" x1="15573.9" y1="11462.6" x2="11938.7" y2="13361.8" gradientUnits="userSpaceOnUse">
<stop stop-color="#F18434"/>
<stop offset="1" stop-color="#BC5817"/>
</linearGradient>
<linearGradient id="paint11_linear" x1="10638" y1="982.928" x2="10516.8" y2="1730.92" gradientUnits="userSpaceOnUse">
<stop stop-color="#663A57"/>
<stop offset="1" stop-color="#39122E"/>
</linearGradient>
<linearGradient id="paint12_linear" x1="311.14" y1="118.386" x2="293.363" y2="151.178" gradientUnits="userSpaceOnUse">
<stop stop-color="#F7EA4A"/>
<stop offset="1" stop-color="#D93D66"/>
</linearGradient>
<linearGradient id="paint13_linear" x1="25497.2" y1="9950.19" x2="21326.8" y2="12774.6" gradientUnits="userSpaceOnUse">
<stop stop-color="#663A57"/>
<stop offset="1" stop-color="#39122E"/>
</linearGradient>
<linearGradient id="paint14_linear" x1="16192.1" y1="9089.2" x2="17309.9" y2="9089.2" gradientUnits="userSpaceOnUse">
<stop stop-color="#F18434"/>
<stop offset="1" stop-color="#BC5817"/>
</linearGradient>
<linearGradient id="paint15_linear" x1="10947.3" y1="9947.63" x2="6777.51" y2="12771.7" gradientUnits="userSpaceOnUse">
<stop stop-color="#663A57"/>
<stop offset="1" stop-color="#39122E"/>
</linearGradient>
<linearGradient id="paint16_linear" x1="24217.5" y1="12533.4" x2="10032" y2="21229.5" gradientUnits="userSpaceOnUse">
<stop stop-color="#663A57"/>
<stop offset="1" stop-color="#39122E"/>
</linearGradient>
<linearGradient id="paint17_linear" x1="18491.1" y1="2434.11" x2="17775.6" y2="4022.56" gradientUnits="userSpaceOnUse">
<stop stop-color="#F7EA4A"/>
<stop offset="1" stop-color="#D93D66"/>
</linearGradient>
<linearGradient id="paint18_linear" x1="17351.1" y1="908.662" x2="17265.6" y2="1480.75" gradientUnits="userSpaceOnUse">
<stop stop-color="#F7EA4A"/>
<stop offset="1" stop-color="#D93D66"/>
</linearGradient>
<linearGradient id="paint19_linear" x1="31703.1" y1="12948.1" x2="22945.5" y2="21265.8" gradientUnits="userSpaceOnUse">
<stop stop-color="#663A57"/>
<stop offset="1" stop-color="#39122E"/>
</linearGradient>
<linearGradient id="paint20_linear" x1="28002.3" y1="3468.51" x2="8954.46" y2="15422.9" gradientUnits="userSpaceOnUse">
<stop stop-color="#F18434"/>
<stop offset="1" stop-color="#BC5817"/>
</linearGradient>
<linearGradient id="paint21_linear" x1="78604.3" y1="1616.03" x2="437428" y2="1616.03" gradientUnits="userSpaceOnUse">
<stop stop-color="#663A57"/>
<stop offset="1" stop-color="#39122E"/>
</linearGradient>
<linearGradient id="paint22_linear" x1="458520" y1="2418.63" x2="457921" y2="4950.32" gradientUnits="userSpaceOnUse">
<stop stop-color="#663A57"/>
<stop offset="1" stop-color="#39122E"/>
</linearGradient>
<linearGradient id="paint23_linear" x1="-137011" y1="3394.69" x2="-145453" y2="10355.3" gradientUnits="userSpaceOnUse">
<stop stop-color="#F18434"/>
<stop offset="1" stop-color="#BC5817"/>
</linearGradient>
<linearGradient id="paint24_linear" x1="252524" y1="5378.44" x2="252516" y2="6975.13" gradientUnits="userSpaceOnUse">
<stop stop-color="#663A57"/>
<stop offset="1" stop-color="#39122E"/>
</linearGradient>
<linearGradient id="paint25_linear" x1="51.5335" y1="174.017" x2="-26.8909" y2="223.406" gradientUnits="userSpaceOnUse">
<stop stop-color="#937DB9"/>
<stop offset="1" stop-color="#DA99C4"/>
</linearGradient>
<linearGradient id="paint26_linear" x1="-39.4824" y1="205.389" x2="45.0563" y2="205.389" gradientUnits="userSpaceOnUse">
<stop stop-color="#7C4997"/>
<stop offset="1" stop-color="#EA4B7B"/>
</linearGradient>
<linearGradient id="paint27_linear" x1="70.9203" y1="160.152" x2="25.1915" y2="186.255" gradientUnits="userSpaceOnUse">
<stop stop-color="#F9B877"/>
<stop offset="1" stop-color="#EF7A62"/>
</linearGradient>
<linearGradient id="paint28_linear" x1="58.5372" y1="191.712" x2="38.0135" y2="241.704" gradientUnits="userSpaceOnUse">
<stop stop-color="#CC246E"/>
<stop offset="1" stop-color="#4C266C"/>
</linearGradient>
<linearGradient id="paint29_linear" x1="-12076.3" y1="12954.8" x2="6256.01" y2="5005.94" gradientUnits="userSpaceOnUse">
<stop stop-color="#F9B877"/>
<stop offset="1" stop-color="#EF7A62"/>
</linearGradient>
<linearGradient id="paint30_linear" x1="-96294.6" y1="-23562.3" x2="-97416.4" y2="-21874" gradientUnits="userSpaceOnUse">
<stop stop-color="#CC246E"/>
<stop offset="1" stop-color="#4C266C"/>
</linearGradient>
<linearGradient id="paint31_linear" x1="-365615" y1="6201.83" x2="-365795" y2="4545.01" gradientUnits="userSpaceOnUse">
<stop stop-color="#663A57"/>
<stop offset="1" stop-color="#39122E"/>
</linearGradient>
<linearGradient id="paint32_linear" x1="-15392.4" y1="2892.4" x2="-24684.8" y2="12507.8" gradientUnits="userSpaceOnUse">
<stop stop-color="#F18434"/>
<stop offset="1" stop-color="#BC5817"/>
</linearGradient>
<linearGradient id="paint33_linear" x1="-63882.4" y1="1242.06" x2="-63783.1" y2="698.812" gradientUnits="userSpaceOnUse">
<stop stop-color="#F9B877"/>
<stop offset="1" stop-color="#EF7A62"/>
</linearGradient>
<linearGradient id="paint34_linear" x1="-85786.4" y1="-20900.4" x2="-86548.2" y2="-21126.4" gradientUnits="userSpaceOnUse">
<stop stop-color="#F9B877"/>
<stop offset="1" stop-color="#EF7A62"/>
</linearGradient>
<linearGradient id="paint35_linear" x1="-113431" y1="-57839.5" x2="-113726" y2="-55965.8" gradientUnits="userSpaceOnUse">
<stop stop-color="#663A57"/>
<stop offset="1" stop-color="#39122E"/>
</linearGradient>
<linearGradient id="paint36_linear" x1="-20361.2" y1="-1426.64" x2="-20539.4" y2="-1501.78" gradientUnits="userSpaceOnUse">
<stop stop-color="#F9B877"/>
<stop offset="1" stop-color="#EF7A62"/>
</linearGradient>
<linearGradient id="paint37_linear" x1="-280394" y1="1675.62" x2="-284906" y2="1675.62" gradientUnits="userSpaceOnUse">
<stop stop-color="#F9B877"/>
<stop offset="1" stop-color="#EF7A62"/>
</linearGradient>
<linearGradient id="paint38_linear" x1="-212194" y1="-111300" x2="-212807" y2="-108339" gradientUnits="userSpaceOnUse">
<stop stop-color="#663A57"/>
<stop offset="1" stop-color="#39122E"/>
</linearGradient>
<linearGradient id="paint39_linear" x1="-195607" y1="-8294.13" x2="-195481" y2="-7787.45" gradientUnits="userSpaceOnUse">
<stop stop-color="#663A57"/>
<stop offset="1" stop-color="#39122E"/>
</linearGradient>
<linearGradient id="paint40_linear" x1="-256719" y1="3114.61" x2="-255845" y2="4566.73" gradientUnits="userSpaceOnUse">
<stop stop-color="#663A57"/>
<stop offset="1" stop-color="#39122E"/>
</linearGradient>
<linearGradient id="paint41_linear" x1="382.435" y1="230.996" x2="370.454" y2="230.996" gradientUnits="userSpaceOnUse">
<stop stop-color="#2A3780"/>
<stop offset="1" stop-color="#201D3F"/>
</linearGradient>
<linearGradient id="paint42_linear" x1="116822" y1="18073.9" x2="110964" y2="13881.3" gradientUnits="userSpaceOnUse">
<stop stop-color="#663A57"/>
<stop offset="1" stop-color="#39122E"/>
</linearGradient>
<linearGradient id="paint43_linear" x1="90163.8" y1="5315.67" x2="97339" y2="9473.59" gradientUnits="userSpaceOnUse">
<stop stop-color="#F18434"/>
<stop offset="1" stop-color="#BC5817"/>
</linearGradient>
<linearGradient id="paint44_linear" x1="29305.2" y1="3034.47" x2="32088.6" y2="4149.86" gradientUnits="userSpaceOnUse">
<stop stop-color="#F18434"/>
<stop offset="1" stop-color="#BC5817"/>
</linearGradient>
<linearGradient id="paint45_linear" x1="39017" y1="1581" x2="38722.5" y2="1581" gradientUnits="userSpaceOnUse">
<stop stop-color="#F9B877"/>
<stop offset="1" stop-color="#EF7A62"/>
</linearGradient>
<linearGradient id="paint46_linear" x1="28729.7" y1="1543.32" x2="28733.9" y2="2086.06" gradientUnits="userSpaceOnUse">
<stop stop-color="#F9B877"/>
<stop offset="1" stop-color="#EF7A62"/>
</linearGradient>
<linearGradient id="paint47_linear" x1="-218278" y1="6263.75" x2="-210205" y2="6263.75" gradientUnits="userSpaceOnUse">
<stop stop-color="#2A3780"/>
<stop offset="1" stop-color="#201D3F"/>
</linearGradient>
<linearGradient id="paint48_linear" x1="192099" y1="8360.9" x2="185297" y2="8360.9" gradientUnits="userSpaceOnUse">
<stop stop-color="#937DB9"/>
<stop offset="1" stop-color="#DA99C4"/>
</linearGradient>
<linearGradient id="paint49_linear" x1="-215663" y1="9287.92" x2="-207240" y2="9287.92" gradientUnits="userSpaceOnUse">
<stop stop-color="#2A3780"/>
<stop offset="1" stop-color="#201D3F"/>
</linearGradient>
<linearGradient id="paint50_linear" x1="23101.5" y1="16332.7" x2="23321.4" y2="16589.2" gradientUnits="userSpaceOnUse">
<stop stop-color="#F9B877"/>
<stop offset="1" stop-color="#EF7A62"/>
</linearGradient>
<linearGradient id="paint51_linear" x1="42951.3" y1="27132.3" x2="42607.5" y2="27083.6" gradientUnits="userSpaceOnUse">
<stop stop-color="#663A57"/>
<stop offset="1" stop-color="#39122E"/>
</linearGradient>
<linearGradient id="paint52_linear" x1="7583.25" y1="5486.91" x2="7524.49" y2="5430.95" gradientUnits="userSpaceOnUse">
<stop stop-color="#F9B877"/>
<stop offset="1" stop-color="#EF7A62"/>
</linearGradient>
<linearGradient id="paint53_linear" x1="12808.6" y1="939.311" x2="12770.9" y2="939.311" gradientUnits="userSpaceOnUse">
<stop stop-color="#F9B877"/>
<stop offset="1" stop-color="#EF7A62"/>
</linearGradient>
</defs>
</svg>
