<svg width="60" height="40" viewBox="0 0 60 40" fill="none" xmlns="http://www.w3.org/2000/svg">
<path d="M56.2739 29.8335C60.0579 23.1044 59.9948 16.1166 55.9208 9.52622C51.7142 2.69615 45.3572 -0.627432 37.291 0.0978289C34.7684 0.324867 32.2457 1.35915 29.8807 2.30514C23.4921 4.90347 17.5765 8.43517 11.7745 12.1309C7.87066 14.6157 4.04885 17.2203 0 19.9006C0.630662 20.3358 0.983832 20.6259 1.38115 20.897C4.45247 22.9593 7.48595 25.072 10.6014 27.0649C16.7441 31.0065 23.0002 34.7464 29.7357 37.6096C32.5358 38.8015 35.4116 39.9809 38.483 39.9998C46.3347 40.0313 52.4143 36.632 56.2739 29.8335Z" fill="#F39200"/>
<path d="M39.0635 36.0518C47.9279 36.0518 55.1139 28.8659 55.1139 20.0015C55.1139 11.1372 47.9279 3.95117 39.0635 3.95117C30.1992 3.95117 23.0132 11.1372 23.0132 20.0015C23.0132 28.8659 30.1992 36.0518 39.0635 36.0518Z" fill="white"/>
<path d="M27.4818 24V17.08H28.9218L31.5718 23.32H31.7818V17.08H32.5418V24H31.1318L28.4418 17.76H28.2518V24H27.4818ZM34.7496 20.57C34.7496 21.5833 34.883 22.3133 35.1496 22.76C35.4163 23.2 35.9296 23.42 36.6896 23.42C37.4563 23.42 37.9696 23.2033 38.2296 22.77C38.4963 22.3367 38.6296 21.61 38.6296 20.59C38.6296 19.57 38.493 18.8267 38.2196 18.36C37.9463 17.8933 37.433 17.66 36.6796 17.66C35.933 17.66 35.423 17.8933 35.1496 18.36C34.883 18.82 34.7496 19.5567 34.7496 20.57ZM39.4296 20.59C39.4296 21.8233 39.233 22.7167 38.8396 23.27C38.4463 23.8233 37.7296 24.1 36.6896 24.1C35.6563 24.1 34.943 23.8167 34.5496 23.25C34.1563 22.6833 33.9596 21.7933 33.9596 20.58C33.9596 19.36 34.1596 18.4567 34.5596 17.87C34.9596 17.2767 35.6696 16.98 36.6896 16.98C37.7096 16.98 38.4196 17.2733 38.8196 17.86C39.2263 18.4467 39.4296 19.3567 39.4296 20.59ZM44.654 17.08H45.454L43.644 24H41.924L40.114 17.08H40.914L42.504 23.32H43.064L44.654 17.08ZM45.6511 24L47.5511 17.08H49.2311L51.1311 24H50.3711L49.8711 22.22H46.9111L46.4111 24H45.6511ZM48.1311 17.74L47.0811 21.53H49.7011L48.6511 17.74H48.1311Z" fill="#FB8C00"/>
</svg>
