<svg width="1101" height="591" viewBox="0 0 1101 591" fill="none" xmlns="http://www.w3.org/2000/svg">
<g opacity="0.3">
<g opacity="0.6">
<path opacity="0.42" d="M187.434 428.45C197.654 512.61 299.304 518.45 405.224 503.22C556.224 481.52 584.594 647.46 753.934 568.78C874.934 512.54 939.094 150.78 522.484 190.52C418.584 200.43 357.824 207.67 295.584 244.36C242.164 275.85 179.824 365.75 187.434 428.45Z" fill="url(#paint0_linear)"/>
<path opacity="0.62" d="M207.264 386.94C165.264 486.94 280.394 532.84 380.264 501.82C567.164 443.76 638.144 644.68 774.024 541.82C878.024 463.06 881.434 187.6 610.674 194.63C460.484 198.5 278.244 217.76 207.264 386.94Z" fill="url(#paint1_linear)"/>
</g>
<path opacity="0.6" d="M665.504 552.47C665.047 552.042 664.713 551.5 664.538 550.899C664.362 550.298 664.352 549.661 664.507 549.055C664.663 548.448 664.978 547.895 665.421 547.453C665.864 547.01 666.417 546.695 667.024 546.54C697.024 539.54 821.114 503.54 794.334 393.77C763.954 269.15 747.594 235.2 798.094 180.67C844.094 131.02 892.264 126.98 932.534 137.78C933.132 137.951 933.656 138.317 934.022 138.82C934.388 139.323 934.576 139.933 934.555 140.555C934.534 141.177 934.307 141.774 933.908 142.251C933.509 142.729 932.962 143.059 932.354 143.19C907.764 147.86 852.354 163.09 839.354 206.93C822.584 263.7 850.174 391.26 807.044 462.32C764.434 532.52 717.624 539.89 668.654 553.25C668.104 553.4 667.525 553.407 666.972 553.271C666.419 553.134 665.91 552.859 665.494 552.47H665.504Z" fill="url(#paint2_linear)"/>
<path d="M1082.95 253.86C1083.64 253.455 1084.22 252.884 1084.64 252.2C1085.05 251.516 1085.29 250.74 1085.33 249.94C1085.37 249.141 1085.21 248.345 1084.87 247.622C1084.53 246.899 1084.01 246.273 1083.36 245.8C1075.65 240.23 1062.19 228.33 1050.68 206.93C1039.17 185.53 1008.47 138.87 944.224 150.93C879.974 162.99 858.574 276 845.584 387.31C832.594 498.62 706.954 539 706.954 539L673.244 552C673.244 552 792.954 532.63 838.734 449.27C884.514 365.91 877.954 236.9 951.254 239.06C1021.65 241.14 1031.26 283.35 1082.95 253.86Z" fill="url(#paint3_linear)"/>
<path opacity="0.6" d="M1095.03 380.63C1095.84 380.949 1096.72 381.006 1097.56 380.793C1098.4 380.579 1099.15 380.106 1099.71 379.441C1100.26 378.776 1100.59 377.952 1100.65 377.088C1100.71 376.224 1100.49 375.364 1100.03 374.63C1088.51 355.07 1061.82 319.04 1021.92 320.11C967.254 321.56 927.034 346.42 874.644 435.11C823.724 521.31 707.254 551.24 675.774 552C675.058 552.015 674.372 552.285 673.838 552.762C673.305 553.239 672.959 553.891 672.864 554.6C672.791 555.045 672.818 555.502 672.943 555.935C673.068 556.369 673.287 556.77 673.586 557.109C673.884 557.447 674.254 557.715 674.669 557.894C675.083 558.072 675.533 558.156 675.984 558.14C698.104 557.04 814.284 549.91 872.984 518.8C934.514 486.16 1024.95 352.25 1095.03 380.63Z" fill="url(#paint4_linear)"/>
<path opacity="0.71" d="M1062.37 355C1058.05 353.246 1053.57 351.887 1049 350.94C1044.43 349.945 1039.79 349.277 1035.12 348.94C1032.79 348.73 1030.45 348.72 1028.12 348.66C1025.79 348.6 1023.45 348.66 1021.12 348.89C1016.46 349.186 1011.83 349.774 1007.24 350.65C998.092 352.487 989.204 355.453 980.784 359.48C972.367 363.56 964.383 368.478 956.954 374.16C942.064 385.49 929.454 399.6 918.414 414.74C915.714 418.59 913.104 422.46 910.414 426.37C907.724 430.28 905.174 434.28 902.414 438.13L898.354 444L894.114 449.72C891.334 453.57 888.324 457.25 885.414 461.01C879.414 468.37 873.244 475.62 866.634 482.47C860.035 489.344 853.061 495.847 845.744 501.95C831.048 514.151 814.626 524.109 797.014 531.5C779.444 538.89 761.014 543.79 742.384 547.4C733.084 549.22 723.734 550.76 714.384 552.18C705.034 553.6 695.664 554.92 686.294 556.18C686.235 556.19 686.175 556.188 686.117 556.174C686.06 556.16 686.005 556.135 685.957 556.099C685.91 556.064 685.87 556.019 685.84 555.967C685.81 555.916 685.791 555.859 685.784 555.8C685.774 555.742 685.775 555.683 685.789 555.626C685.802 555.569 685.827 555.515 685.861 555.467C685.896 555.42 685.939 555.379 685.99 555.349C686.04 555.319 686.096 555.299 686.154 555.29C704.804 552.16 723.504 549.29 741.954 545.29C751.174 543.29 760.344 541.06 769.364 538.38C778.386 535.731 787.236 532.528 795.864 528.79C813.085 521.273 829.133 511.314 843.514 499.22C850.695 493.174 857.536 486.734 864.004 479.93C870.494 473.13 876.554 465.93 882.464 458.62C885.324 454.88 888.284 451.22 891.024 447.39L895.204 441.7L899.204 435.91C901.944 432.08 904.474 428.1 907.114 424.2C909.754 420.3 912.474 416.33 915.214 412.45C926.494 397.11 939.404 382.77 954.714 371.22C970.024 359.67 987.764 351.22 1006.71 347.8C1011.43 346.963 1016.2 346.448 1020.99 346.26C1023.38 346.12 1025.78 346.19 1028.17 346.2C1030.56 346.21 1032.95 346.4 1035.33 346.68C1044.89 347.493 1054.24 349.858 1063.03 353.68C1063.22 353.763 1063.36 353.915 1063.43 354.102C1063.5 354.289 1063.49 354.497 1063.41 354.68C1063.37 354.772 1063.32 354.856 1063.25 354.925C1063.17 354.995 1063.09 355.049 1063 355.086C1062.9 355.122 1062.8 355.139 1062.7 355.137C1062.6 355.134 1062.5 355.111 1062.41 355.07L1062.37 355Z" fill="white"/>
<path opacity="0.71" d="M1078.05 248.36C1071.4 248.478 1064.8 247.18 1058.68 244.55C1052.53 241.96 1046.88 238.311 1041.98 233.77C1039.56 231.473 1037.31 229.007 1035.23 226.39C1033.19 223.759 1031.31 221 1029.61 218.13C1028.79 216.69 1027.98 215.23 1027.23 213.75L1025.09 209.34C1023.67 206.505 1022.04 203.774 1020.22 201.17C1012.94 190.642 1003.65 181.654 992.894 174.72C987.587 171.274 981.838 168.563 975.804 166.66C972.81 165.746 969.746 165.077 966.644 164.66C963.55 164.267 960.429 164.143 957.314 164.29C955.754 164.35 954.214 164.55 952.674 164.74C951.134 164.93 949.604 165.27 948.094 165.68C945.065 166.44 942.116 167.485 939.284 168.8C936.426 170.108 933.683 171.653 931.084 173.42C928.455 175.179 925.943 177.106 923.564 179.19C914.034 187.62 906.424 198.19 899.914 209.28C896.644 214.85 893.744 220.63 890.984 226.49C888.224 232.35 885.734 238.34 883.344 244.38C878.594 256.47 874.594 268.86 870.864 281.38C870.842 281.458 870.805 281.53 870.755 281.593C870.704 281.656 870.642 281.708 870.571 281.746C870.5 281.785 870.422 281.808 870.342 281.816C870.261 281.823 870.181 281.814 870.104 281.79C869.955 281.746 869.83 281.647 869.752 281.513C869.674 281.379 869.649 281.221 869.684 281.07C872.717 268.35 876.389 255.791 880.684 243.44C882.874 237.26 885.234 231.15 887.884 225.14C890.486 219.097 893.393 213.189 896.594 207.44C902.994 195.95 910.704 184.97 920.654 175.97C925.642 171.422 931.281 167.644 937.384 164.76C940.46 163.315 943.668 162.17 946.964 161.34C948.604 160.89 950.284 160.6 951.964 160.29C953.644 159.98 955.344 159.85 957.044 159.78C960.445 159.593 963.857 159.727 967.234 160.18C970.591 160.656 973.902 161.412 977.134 162.44C983.541 164.464 989.647 167.343 995.284 171C1006.44 178.356 1016 187.878 1023.4 199C1025.26 201.789 1026.91 204.71 1028.34 207.74L1030.34 212.17C1031.03 213.61 1031.78 215.02 1032.53 216.43C1034.07 219.222 1035.78 221.917 1037.65 224.5C1039.56 227.055 1041.64 229.471 1043.88 231.73C1048.39 236.278 1053.65 240.001 1059.44 242.73C1062.34 244.086 1065.35 245.168 1068.44 245.96C1071.54 246.797 1074.73 247.267 1077.93 247.36C1078 247.36 1078.06 247.373 1078.12 247.398C1078.18 247.423 1078.24 247.46 1078.28 247.507C1078.33 247.554 1078.37 247.609 1078.39 247.669C1078.41 247.73 1078.43 247.795 1078.42 247.86C1078.43 247.974 1078.4 248.086 1078.33 248.178C1078.26 248.27 1078.16 248.334 1078.05 248.36Z" fill="white"/>
<path d="M231.194 571.32C231.194 571.32 244.864 411.78 156.404 362.67C71.5438 315.55 47.8538 357.27 8.95381 294.7C8.56299 294.075 7.98919 293.585 7.31039 293.298C6.63159 293.01 5.8807 292.938 5.15975 293.092C4.43879 293.246 3.78274 293.619 3.28072 294.159C2.77871 294.698 2.45508 295.38 2.35381 296.11C-2.31619 331.9 -10.2162 453.11 92.2238 477.25C210.534 505.14 231.194 571.32 231.194 571.32Z" fill="url(#paint5_linear)"/>
<path opacity="0.69" d="M18.0838 331.17C19.0595 334.252 20.3078 337.24 21.8138 340.1C22.6038 341.52 23.3038 343 24.1638 344.38L26.7138 348.54C28.6138 351.19 30.3738 353.94 32.4838 356.43C33.4838 357.7 34.4838 358.99 35.5538 360.24L38.8538 363.85C47.8153 373.356 57.8877 381.75 68.8538 388.85C79.6738 396.19 91.4738 401.92 103.334 407.36L112.424 411.03C115.424 412.26 118.424 413.49 121.584 414.68L126.204 416.49L130.774 418.44C133.844 419.69 136.774 421.17 139.834 422.55C145.834 425.48 151.704 428.55 157.364 432.04C160.244 433.71 162.994 435.61 165.794 437.42C168.594 439.23 171.254 441.24 173.864 443.33C184.52 451.489 193.976 461.107 201.954 471.9C209.839 482.758 216.301 494.581 221.184 507.08C226.184 519.47 229.874 532.25 233.604 544.84C233.735 545.276 233.779 545.734 233.734 546.187C233.688 546.64 233.554 547.079 233.338 547.481C233.123 547.882 232.831 548.237 232.478 548.525C232.126 548.813 231.72 549.029 231.284 549.16C230.848 549.291 230.39 549.336 229.937 549.29C229.484 549.245 229.044 549.11 228.643 548.895C228.242 548.679 227.887 548.387 227.599 548.034C227.311 547.682 227.095 547.276 226.964 546.84V546.78C223.444 534.09 220.024 521.5 215.384 509.39C210.89 497.275 204.864 485.785 197.454 475.2C189.952 464.669 181.008 455.243 170.884 447.2C168.394 445.13 165.744 443.26 163.144 441.33C160.544 439.4 157.814 437.63 155.024 435.95C149.554 432.44 143.824 429.35 138.024 426.38C135.084 424.97 132.194 423.47 129.194 422.18L124.724 420.18L120.194 418.31C117.194 417.1 114.134 415.8 111.084 414.5L101.944 410.62C89.9538 404.88 78.1138 398.87 67.2538 391.23C56.2493 383.838 46.1766 375.145 37.2538 365.34C28.4938 355.44 20.6638 344.43 16.6138 331.55C16.5528 331.354 16.5722 331.141 16.6679 330.959C16.7635 330.778 16.9275 330.641 17.1238 330.58C17.32 330.519 17.5325 330.539 17.7144 330.634C17.8963 330.73 18.0328 330.894 18.0938 331.09L18.0838 331.17Z" fill="white"/>
<path d="M248.654 554.7L236.954 547.77C242.854 456.94 226.314 290.09 135.544 244.62C74.0739 213.83 51.2139 179.5 55.7939 106.16C58.8539 57.23 42.6239 23.41 31.4839 6.31999C30.9935 5.57279 30.7626 4.6849 30.827 3.79342C30.8914 2.90194 31.2474 2.05645 31.8402 1.38747C32.4329 0.718496 33.2294 0.263244 34.1066 0.0920016C34.9839 -0.0792406 35.8931 0.0430506 36.6939 0.439995C74.1739 18.93 171.824 73.62 216.494 160.58C272.414 269.43 248.654 554.7 248.654 554.7Z" fill="url(#paint6_linear)"/>
<path opacity="0.69" d="M94.5539 61.2901C99.1932 63.9508 103.611 66.9806 107.764 70.3501C109.834 72.0001 111.924 73.6301 113.874 75.4101L116.874 78.0301L118.364 79.3401L119.784 80.7201L125.474 86.2301C127.314 88.1201 129.094 90.0701 130.914 91.9901L133.614 94.8701C134.514 95.8701 135.334 96.8701 136.204 97.8701L141.324 103.87C154.633 120.223 166.428 137.752 176.564 156.24L180.424 163.13L181.424 164.85L182.304 166.62L184.074 170.15L191.134 184.27L197.554 198.69L200.754 205.9C201.754 208.33 202.684 210.79 203.654 213.24L209.354 228C210.354 230.44 211.204 232.93 212.074 235.41L214.694 242.86C216.334 247.86 217.984 252.86 219.544 257.86L221.794 265.42L222.924 269.21L223.924 273.01C229.551 293.29 234.247 313.787 238.014 334.5C241.781 355.213 244.781 376.02 247.014 396.92C248.154 407.37 249.014 417.85 249.874 428.33C250.734 438.81 251.254 449.33 251.704 459.81C252.154 470.29 252.414 480.81 252.494 491.34C252.574 501.87 252.494 512.34 252.064 522.97C252.025 523.888 251.624 524.753 250.948 525.374C250.272 525.996 249.377 526.323 248.459 526.285C247.541 526.247 246.676 525.845 246.055 525.169C245.433 524.493 245.105 523.598 245.144 522.68V522.6C245.654 512.28 245.794 501.79 245.804 491.37C245.814 480.95 245.604 470.49 245.234 460.06C244.864 449.63 244.344 439.19 243.654 428.77C242.964 418.35 242.094 407.94 241.034 397.55C238.954 376.763 236.124 356.077 232.544 335.49C228.964 314.903 224.467 294.52 219.054 274.34L218.054 270.56L216.954 266.8L214.774 259.29C213.264 254.29 211.664 249.29 210.084 244.36L207.534 237C206.694 234.53 205.864 232.06 204.904 229.63L199.304 215C198.354 212.57 197.464 210.12 196.474 207.71L193.354 200.53L187.094 186.19L180.194 172.19L178.464 168.68L177.604 166.92L176.664 165.21L172.894 158.36C162.998 140.006 151.46 122.585 138.424 106.31L133.424 100.31C132.574 99.3101 131.774 98.3101 130.894 97.3101L128.244 94.4401C126.474 92.5401 124.734 90.6101 122.934 88.7301L117.374 83.2701L115.954 81.9001L114.504 80.6001L111.614 78.0001C109.714 76.2301 107.684 74.6201 105.614 73.0001C103.544 71.3801 101.504 69.8601 99.4339 68.3101C97.3639 66.7601 95.1439 65.3801 93.0039 64.1901H92.9139C92.536 63.9792 92.2573 63.6269 92.1391 63.2105C92.021 62.7942 92.0731 62.348 92.2839 61.9701C92.4948 61.5921 92.8471 61.3134 93.2634 61.1953C93.6798 61.0771 94.126 61.1292 94.5039 61.3401L94.5539 61.2901Z" fill="white"/>
</g>
<path d="M318.692 508.799V315.419C318.684 313.279 319.344 311.19 320.581 309.444C321.818 307.698 323.57 306.382 325.592 305.679C346.732 298.473 367.868 299.473 389.002 308.679C391.222 309.63 393.093 311.245 394.357 313.303C395.622 315.36 396.217 317.759 396.062 320.169L383.202 508.369L318.692 508.799Z" fill="url(#paint7_linear)"/>
<path d="M330.822 323.559V370.659C330.821 372.497 331.523 374.265 332.783 375.601C334.044 376.938 335.768 377.742 337.602 377.849L371.842 379.849C373.697 379.96 375.523 379.349 376.939 378.146C378.355 376.942 379.252 375.238 379.442 373.389L384.442 324.949C384.638 323.059 384.08 321.167 382.889 319.686C381.698 318.204 379.97 317.253 378.082 317.039C367.922 315.909 349.082 314.319 336.812 316.389C335.126 316.681 333.598 317.562 332.501 318.875C331.404 320.188 330.809 321.848 330.822 323.559Z" fill="url(#paint8_linear)"/>
<path d="M398.572 325.989L387.172 508.339H455.522V331.109C455.518 328.624 454.737 326.202 453.288 324.183C451.839 322.164 449.795 320.649 447.442 319.849C438.442 316.759 423.022 312.849 407.912 315.579C405.415 316.021 403.139 317.286 401.446 319.173C399.753 321.06 398.741 323.46 398.572 325.989Z" fill="url(#paint9_linear)"/>
<path opacity="0.57" d="M398.752 440.859L396.442 491.709C396.397 492.708 396.555 493.705 396.906 494.64C397.258 495.576 397.795 496.431 398.485 497.153C399.176 497.875 400.006 498.45 400.925 498.843C401.843 499.236 402.832 499.439 403.832 499.439H438.362C440.324 499.439 442.207 498.66 443.594 497.272C444.982 495.884 445.762 494.002 445.762 492.039V441.199C445.762 439.237 444.982 437.355 443.594 435.967C442.207 434.579 440.324 433.799 438.362 433.799H406.152C404.247 433.797 402.414 434.53 401.036 435.845C399.657 437.16 398.839 438.956 398.752 440.859Z" fill="white"/>
<path d="M521.332 508.37V319.87C521.337 317.576 520.607 315.342 519.248 313.495C517.889 311.648 515.973 310.286 513.782 309.61C498.508 304.997 482.205 305.049 466.962 309.76C464.978 310.371 463.242 311.602 462.009 313.272C460.777 314.942 460.111 316.964 460.112 319.04V508.37H521.332Z" fill="url(#paint10_linear)"/>
<path d="M466.172 322.989L467.652 350.819C467.741 352.49 468.469 354.062 469.684 355.212C470.899 356.362 472.509 357.002 474.182 356.999H507.002C508.697 356.998 510.325 356.338 511.544 355.159C512.762 353.98 513.475 352.374 513.532 350.679L514.422 323.229C514.473 321.703 513.988 320.207 513.051 319.001C512.114 317.795 510.783 316.956 509.292 316.629C501.292 314.919 485.662 312.549 471.162 316.299C469.683 316.662 468.376 317.528 467.465 318.748C466.555 319.969 466.098 321.468 466.172 322.989Z" fill="#39122E"/>
<path d="M468.722 368.99C468.835 370.639 469.571 372.183 470.779 373.312C471.987 374.44 473.578 375.068 475.232 375.07H506.622C507.491 375.068 508.351 374.894 509.152 374.557C509.952 374.219 510.678 373.726 511.286 373.105C511.894 372.484 512.372 371.748 512.692 370.94C513.013 370.132 513.169 369.268 513.152 368.4C513.115 366.691 512.411 365.065 511.191 363.869C509.97 362.673 508.33 362.002 506.622 362H475.232C474.336 362 473.449 362.185 472.628 362.543C471.806 362.9 471.067 363.423 470.457 364.079C469.846 364.735 469.377 365.509 469.078 366.354C468.78 367.199 468.658 368.096 468.722 368.99Z" fill="url(#paint11_linear)"/>
<path d="M734.352 325.989C734.352 325.989 728.772 291.279 745.812 280.049C745.988 279.937 746.191 279.874 746.4 279.868C746.609 279.862 746.816 279.914 746.998 280.017C747.18 280.119 747.33 280.27 747.433 280.452C747.536 280.634 747.587 280.84 747.582 281.049V287.649C747.59 287.993 747.696 288.328 747.888 288.613C748.08 288.899 748.35 289.123 748.666 289.26C748.981 289.397 749.329 289.44 749.669 289.385C750.009 289.33 750.325 289.179 750.582 288.949C754.252 285.499 760.812 280.239 767.772 279.149C768.189 279.079 768.617 279.123 769.01 279.278C769.404 279.432 769.748 279.691 770.006 280.025C770.264 280.36 770.426 280.759 770.474 281.179C770.523 281.599 770.456 282.024 770.282 282.409C766.012 291.539 754.832 317.119 755.282 333.869L734.352 325.989Z" fill="url(#paint12_linear)"/>
<path d="M716.262 325.989L704.852 508.369H773.202V331.109C773.199 328.624 772.419 326.201 770.97 324.182C769.521 322.162 767.476 320.647 765.122 319.849C756.122 316.759 740.702 312.849 725.602 315.579C723.104 316.018 720.825 317.282 719.132 319.169C717.438 321.057 716.427 323.459 716.262 325.989Z" fill="url(#paint13_linear)"/>
<path d="M716.442 440.859L714.122 491.709C714.077 492.708 714.235 493.705 714.586 494.64C714.938 495.576 715.475 496.431 716.165 497.153C716.856 497.875 717.686 498.45 718.605 498.843C719.523 499.236 720.512 499.439 721.512 499.439H756.002C757.964 499.439 759.846 498.66 761.234 497.272C762.622 495.884 763.402 494.002 763.402 492.039V441.199C763.402 439.237 762.622 437.355 761.234 435.967C759.846 434.579 757.964 433.799 756.002 433.799H723.832C721.928 433.797 720.096 434.531 718.719 435.846C717.343 437.161 716.527 438.957 716.442 440.859Z" fill="url(#paint14_linear)"/>
<path d="M269.222 315.579C266.725 316.019 264.447 317.284 262.754 319.171C261.06 321.059 260.049 323.459 259.882 325.989L248.482 508.339H316.832V331.109C316.828 328.624 316.047 326.202 314.598 324.183C313.149 322.164 311.105 320.649 308.752 319.849C299.702 316.759 284.332 312.899 269.222 315.579Z" fill="url(#paint15_linear)"/>
<path d="M260.062 440.859L257.752 491.709C257.707 492.708 257.865 493.705 258.217 494.64C258.568 495.576 259.105 496.431 259.795 497.153C260.486 497.875 261.316 498.45 262.235 498.843C263.153 499.236 264.142 499.439 265.142 499.439H299.672C301.634 499.439 303.517 498.66 304.904 497.272C306.292 495.884 307.072 494.002 307.072 492.039V441.199C307.072 439.237 306.292 437.355 304.904 435.967C303.517 434.579 301.634 433.799 299.672 433.799H267.452C265.548 433.8 263.718 434.534 262.342 435.849C260.966 437.163 260.149 438.958 260.062 440.859Z" fill="#663A57"/>
<path d="M839.002 508.369V319.869C839.007 317.576 838.277 315.342 836.918 313.495C835.559 311.648 833.643 310.286 831.452 309.609C816.182 304.996 799.882 305.048 784.642 309.759C782.656 310.369 780.918 311.599 779.684 313.27C778.449 314.94 777.782 316.962 777.782 319.039V508.369H839.002Z" fill="url(#paint16_linear)"/>
<path d="M783.852 322.989L785.342 350.819C785.429 352.489 786.154 354.061 787.367 355.211C788.581 356.362 790.19 357.002 791.862 356.999H824.642C826.338 357.003 827.97 356.345 829.189 355.164C830.408 353.984 831.12 352.375 831.172 350.679L832.062 323.229C832.113 321.703 831.628 320.207 830.691 319.001C829.754 317.795 828.424 316.956 826.932 316.629C818.932 314.919 803.312 312.549 788.812 316.299C787.338 316.668 786.038 317.536 785.134 318.756C784.229 319.976 783.776 321.472 783.852 322.989Z" fill="url(#paint17_linear)"/>
<path d="M786.402 368.99C786.516 370.641 787.252 372.187 788.463 373.315C789.673 374.444 791.267 375.071 792.922 375.07H824.302C825.171 375.068 826.031 374.894 826.832 374.557C827.633 374.219 828.358 373.726 828.966 373.105C829.574 372.484 830.052 371.748 830.373 370.94C830.693 370.132 830.849 369.268 830.832 368.4C830.798 366.69 830.095 365.063 828.874 363.866C827.653 362.669 826.011 361.999 824.302 362H792.922C792.025 362 791.139 362.185 790.317 362.543C789.495 362.9 788.755 363.423 788.144 364.079C787.532 364.734 787.062 365.508 786.763 366.353C786.463 367.198 786.34 368.095 786.402 368.99Z" fill="url(#paint18_linear)"/>
<path d="M526.402 321.139L524.002 509.259H633.282L625.102 326.149C624.987 323.567 624.104 321.077 622.567 318.998C621.03 316.919 618.908 315.346 616.472 314.479C602.882 309.619 573.302 302.479 533.242 312.479C531.302 312.959 529.577 314.07 528.339 315.638C527.1 317.206 526.419 319.141 526.402 321.139Z" fill="url(#paint19_linear)"/>
<path d="M630.672 325.139L638.252 508.139H703.002L707.912 323.039C707.985 320.56 707.242 318.124 705.797 316.108C704.352 314.092 702.284 312.606 699.912 311.879C678.912 305.559 657.912 304.939 637.282 314.379C635.232 315.309 633.508 316.83 632.33 318.748C631.152 320.665 630.574 322.891 630.672 325.139Z" fill="url(#paint20_linear)"/>
<path opacity="0.57" d="M636.562 331.989L637.332 341.939C637.444 343.389 638.122 344.737 639.217 345.692C640.313 346.648 641.74 347.135 643.192 347.049L696.092 343.98C697.433 343.897 698.699 343.332 699.656 342.389C700.614 341.446 701.198 340.189 701.302 338.849L701.812 331.969C701.875 331.205 701.78 330.436 701.53 329.71C701.281 328.985 700.884 328.319 700.364 327.755C699.845 327.191 699.213 326.741 698.511 326.434C697.808 326.126 697.049 325.968 696.282 325.969H642.102C641.332 325.968 640.571 326.127 639.866 326.435C639.162 326.744 638.529 327.195 638.008 327.761C637.487 328.327 637.089 328.995 636.84 329.723C636.591 330.451 636.497 331.223 636.562 331.989Z" fill="white"/>
<path opacity="0.57" d="M638.752 355.789V359.419C638.75 360.084 638.883 360.743 639.142 361.355C639.402 361.967 639.783 362.52 640.263 362.981C640.742 363.442 641.31 363.801 641.932 364.036C642.554 364.271 643.217 364.378 643.882 364.349L694.562 362.239C695.833 362.185 697.033 361.642 697.913 360.723C698.792 359.804 699.283 358.581 699.282 357.309V353.459C699.282 352.792 699.148 352.132 698.886 351.518C698.624 350.904 698.24 350.35 697.757 349.889C697.275 349.428 696.704 349.07 696.079 348.836C695.454 348.603 694.788 348.498 694.122 348.529L643.452 350.859C642.185 350.921 640.991 351.467 640.116 352.385C639.241 353.302 638.753 354.521 638.752 355.789Z" fill="white"/>
<path d="M1088.87 506.989C1088.87 508.177 1088.4 509.315 1087.56 510.154C1086.72 510.994 1085.58 511.467 1084.39 511.469H205.392L205.672 502.469H1084.37C1085.56 502.472 1086.7 502.946 1087.54 503.788C1088.38 504.63 1088.85 505.77 1088.85 506.959L1088.87 506.989Z" fill="url(#paint21_linear)"/>
<path d="M170.512 423.419H31.8416V402.149H170.512C167.542 402.149 167.542 423.419 170.512 423.419Z" fill="url(#paint22_linear)"/>
<path d="M31.8417 418.099V408.359C31.8364 407.547 31.9918 406.741 32.2989 405.988C32.606 405.236 33.0587 404.551 33.6311 403.974C34.2035 403.397 34.8843 402.939 35.6343 402.626C36.3844 402.313 37.1889 402.151 38.0017 402.149H170.002C172.662 402.149 174.812 400.499 174.812 398.459C174.762 398.119 174.582 397.812 174.309 397.603C174.036 397.394 173.693 397.299 173.352 397.339H29.0517C25.7417 397.339 20.4917 401.339 20.4917 406.239V419.839C20.4917 424.469 25.5917 428.229 28.7117 428.229H172.512C173.032 428.292 173.556 428.148 173.971 427.828C174.386 427.508 174.659 427.038 174.732 426.519C174.732 424.809 172.922 423.419 170.732 423.419H37.0817C36.3883 423.414 35.7027 423.272 35.0642 423.002C34.4256 422.732 33.8464 422.339 33.3598 421.845C32.8733 421.351 32.4888 420.766 32.2283 420.123C31.9678 419.48 31.8364 418.793 31.8417 418.099Z" fill="url(#paint23_linear)"/>
<path d="M35.6916 407.119H165.692C165.778 407.13 165.865 407.123 165.948 407.098C166.031 407.072 166.107 407.03 166.172 406.972C166.237 406.915 166.29 406.845 166.325 406.766C166.361 406.687 166.38 406.601 166.38 406.514C166.38 406.428 166.361 406.342 166.325 406.263C166.29 406.184 166.237 406.113 166.172 406.056C166.107 405.999 166.031 405.956 165.948 405.931C165.865 405.906 165.778 405.898 165.692 405.909H35.6916C35.6056 405.898 35.5183 405.906 35.4354 405.931C35.3525 405.956 35.2759 405.999 35.2108 406.056C35.1457 406.113 35.0936 406.184 35.0579 406.263C35.0221 406.342 35.0037 406.428 35.0037 406.514C35.0037 406.601 35.0221 406.687 35.0579 406.766C35.0936 406.845 35.1457 406.915 35.2108 406.972C35.2759 407.03 35.3525 407.072 35.4354 407.098C35.5183 407.123 35.6056 407.13 35.6916 407.119Z" fill="white"/>
<path d="M35.6915 410.279H165.692C165.853 410.279 166.008 410.215 166.123 410.101C166.237 409.986 166.302 409.831 166.302 409.669C166.302 409.589 166.286 409.51 166.255 409.436C166.224 409.362 166.18 409.295 166.123 409.238C166.066 409.181 165.999 409.136 165.925 409.106C165.851 409.075 165.772 409.059 165.692 409.059H35.6915C35.6114 409.059 35.5321 409.075 35.4581 409.106C35.3841 409.136 35.3169 409.181 35.2602 409.238C35.2036 409.295 35.1586 409.362 35.128 409.436C35.0973 409.51 35.0815 409.589 35.0815 409.669C35.0815 409.831 35.1458 409.986 35.2602 410.101C35.3746 410.215 35.5298 410.279 35.6915 410.279Z" fill="white"/>
<path d="M35.6915 413.439H165.692C165.853 413.439 166.008 413.375 166.123 413.261C166.237 413.146 166.302 412.991 166.302 412.829C166.302 412.668 166.237 412.513 166.123 412.398C166.008 412.284 165.853 412.219 165.692 412.219H35.6915C35.5298 412.219 35.3746 412.284 35.2602 412.398C35.1458 412.513 35.0815 412.668 35.0815 412.829C35.0815 412.991 35.1458 413.146 35.2602 413.261C35.3746 413.375 35.5298 413.439 35.6915 413.439Z" fill="white"/>
<path d="M35.6916 416.59H165.692C165.778 416.601 165.865 416.593 165.948 416.568C166.031 416.543 166.107 416.5 166.172 416.443C166.237 416.385 166.29 416.315 166.325 416.236C166.361 416.157 166.38 416.071 166.38 415.985C166.38 415.898 166.361 415.812 166.325 415.733C166.29 415.654 166.237 415.584 166.172 415.526C166.107 415.469 166.031 415.426 165.948 415.401C165.865 415.376 165.778 415.368 165.692 415.38H35.6916C35.6056 415.368 35.5183 415.376 35.4354 415.401C35.3525 415.426 35.2759 415.469 35.2108 415.526C35.1457 415.584 35.0936 415.654 35.0579 415.733C35.0221 415.812 35.0037 415.898 35.0037 415.985C35.0037 416.071 35.0221 416.157 35.0579 416.236C35.0936 416.315 35.1457 416.385 35.2108 416.443C35.2759 416.5 35.3525 416.543 35.4354 416.568C35.5183 416.593 35.6056 416.601 35.6916 416.59Z" fill="white"/>
<path d="M35.6915 419.749H165.692C165.853 419.749 166.008 419.685 166.123 419.571C166.237 419.456 166.302 419.301 166.302 419.139C166.302 418.978 166.237 418.822 166.123 418.708C166.008 418.594 165.853 418.529 165.692 418.529H35.6915C35.5298 418.529 35.3746 418.594 35.2602 418.708C35.1458 418.822 35.0815 418.978 35.0815 419.139C35.0815 419.301 35.1458 419.456 35.2602 419.571C35.3746 419.685 35.5298 419.749 35.6915 419.749Z" fill="white"/>
<path d="M26.6317 511H222.332C229.081 511 234.552 505.528 234.552 498.78V481.63C234.552 474.881 229.081 469.41 222.332 469.41H26.6317C19.8828 469.41 14.4118 474.881 14.4118 481.63V498.78C14.4118 505.528 19.8828 511 26.6317 511Z" fill="url(#paint24_linear)"/>
<path opacity="0.6" d="M188.212 506.219H205.272C207.702 506.219 209.672 504.249 209.672 501.819V478.589C209.672 476.159 207.702 474.189 205.272 474.189H188.212C185.782 474.189 183.812 476.159 183.812 478.589V501.819C183.812 504.249 185.782 506.219 188.212 506.219Z" fill="white"/>
<path d="M18.1716 430.539V437.699C18.2042 438.359 18.4051 439 18.7552 439.56C19.1053 440.12 19.5929 440.581 20.1716 440.899L21.4016 441.699C22.4016 442.349 22.2016 443.559 21.0016 443.999C20.2016 444.289 20.0616 445.079 20.7116 445.519L22.2716 446.519C22.5019 446.641 22.6947 446.823 22.8292 447.046C22.9637 447.269 23.0348 447.524 23.0348 447.784C23.0348 448.045 22.9637 448.3 22.8292 448.523C22.6947 448.746 22.5019 448.928 22.2716 449.049L21.1616 449.799C20.9436 449.917 20.7623 450.092 20.638 450.307C20.5137 450.521 20.4512 450.765 20.4574 451.013C20.4636 451.26 20.5383 451.501 20.6732 451.709C20.8081 451.917 20.998 452.083 21.2216 452.189L22.4116 452.929C22.5993 453.017 22.7626 453.149 22.8869 453.315C23.0113 453.481 23.0929 453.674 23.1245 453.879C23.1561 454.084 23.1369 454.293 23.0683 454.488C22.9998 454.684 22.8842 454.859 22.7316 454.999L22.0716 455.649C21.8485 455.855 21.6689 456.104 21.5435 456.38C21.4181 456.657 21.3494 456.956 21.3416 457.259V468.569H183.632V429.859L18.1716 430.539Z" fill="url(#paint25_linear)"/>
<path opacity="0.78" d="M178.002 438.829H23.8617C23.5217 438.829 23.2517 438.629 23.2517 438.379C23.274 438.239 23.35 438.112 23.4638 438.026C23.5776 437.94 23.7202 437.902 23.8617 437.919H178.002C178.332 437.919 178.612 438.129 178.612 438.379C178.612 438.629 178.342 438.829 178.002 438.829Z" fill="white"/>
<path opacity="0.78" d="M178.002 445.579H27.5116C27.3701 445.597 27.2275 445.558 27.1137 445.473C26.9999 445.387 26.9239 445.26 26.9016 445.119C26.9016 444.869 27.1716 444.669 27.5116 444.669H178.002C178.332 444.669 178.612 444.869 178.612 445.119C178.612 445.369 178.342 445.579 178.002 445.579Z" fill="white"/>
<path opacity="0.78" d="M178.002 450.539H29.3817C29.0417 450.539 28.7717 450.339 28.7717 450.089C28.7717 449.839 29.0417 449.639 29.3817 449.639H178.002C178.332 449.639 178.612 449.839 178.612 450.089C178.612 450.339 178.342 450.539 178.002 450.539Z" fill="white"/>
<path d="M186.582 427.389H14.6216C13.3116 427.389 12.1416 428.099 12.0116 429.069C11.8716 430.189 13.0116 431.129 14.5116 431.129H174.002C176.802 431.129 179.222 432.589 179.802 434.639C182.412 443.789 182.212 453.329 179.802 463.169C179.232 465.449 176.562 467.099 173.452 467.099H17.7716C16.4616 467.099 15.2916 467.819 15.1616 468.789C15.0316 469.759 16.1616 470.849 17.6616 470.849H185.442C189.442 470.849 192.902 468.709 193.622 465.759C196.512 453.829 196.772 442.369 193.622 431.539C192.912 429.109 190.002 427.389 186.622 427.389H186.582Z" fill="url(#paint26_linear)"/>
<path d="M237.002 443.279C236.892 443.229 173.792 332.739 165.262 322.339C164.558 321.479 163.648 320.81 162.616 320.396C161.585 319.981 160.465 319.835 159.362 319.969L141.752 322.069L121.062 366.829L155.532 346.749C152.122 370.339 196.402 405.389 211.532 418.189C211.898 418.495 212.197 418.873 212.411 419.3C212.625 419.726 212.749 420.192 212.775 420.669C212.801 421.145 212.729 421.622 212.564 422.069C212.398 422.517 212.142 422.925 211.812 423.269L205.752 429.609C215.083 439.322 227.033 446.117 240.152 449.169L237.002 443.279Z" fill="url(#paint27_linear)"/>
<path d="M209.322 426.189C209.322 426.189 205.462 427.439 204.152 430.879C203.865 431.695 203.854 432.583 204.122 433.405C204.389 434.227 204.92 434.939 205.632 435.429C212.002 439.989 233.002 454.729 242.712 457.609C242.895 457.662 243.088 457.667 243.273 457.622C243.458 457.578 243.629 457.486 243.768 457.356C243.907 457.226 244.01 457.062 244.067 456.881C244.123 456.699 244.132 456.505 244.092 456.319C243.592 454.069 241.982 449.569 236.792 442.979L237.262 443.919C237.391 444.178 237.434 444.471 237.384 444.756C237.334 445.041 237.194 445.302 236.985 445.501C236.776 445.7 236.508 445.827 236.221 445.863C235.934 445.899 235.644 445.841 235.392 445.699C228.902 442.039 215.692 433.989 209.322 426.189Z" fill="url(#paint28_linear)"/>
<path d="M212.452 470.399C212.342 470.329 202.872 447.519 202.772 447.459C194.092 394.609 172.912 349.349 166.672 337.459C166.154 336.476 165.398 335.639 164.471 335.025C163.545 334.412 162.479 334.042 161.372 333.949L143.702 332.439L114.382 372.079L152.202 359.399C144.082 381.809 180.352 425.099 192.632 440.699C192.923 441.073 193.135 441.501 193.255 441.959C193.374 442.417 193.4 442.895 193.328 443.363C193.257 443.831 193.091 444.28 192.841 444.682C192.59 445.083 192.261 445.43 191.872 445.699L184.652 450.699C191.829 462.096 202.156 471.169 214.382 476.819L212.452 470.399Z" fill="url(#paint29_linear)"/>
<path d="M188.782 448.049C188.782 448.049 184.782 448.499 182.782 451.599C182.336 452.339 182.146 453.206 182.242 454.064C182.337 454.923 182.713 455.726 183.312 456.349C188.632 462.109 206.222 480.799 215.142 485.589C215.31 485.679 215.5 485.722 215.691 485.716C215.882 485.709 216.068 485.652 216.23 485.551C216.392 485.449 216.525 485.307 216.614 485.138C216.704 484.97 216.748 484.78 216.742 484.589C216.742 482.279 216.052 477.589 212.302 470.049L212.572 471.049C212.644 471.328 212.625 471.623 212.518 471.89C212.411 472.157 212.222 472.383 211.977 472.535C211.732 472.687 211.446 472.757 211.159 472.734C210.872 472.712 210.599 472.598 210.382 472.409C204.752 467.539 193.432 456.989 188.782 448.049Z" fill="url(#paint30_linear)"/>
<path d="M61.0017 324.069C61.0017 324.069 45.0017 347.849 43.7017 358.689C42.4017 369.529 48.1217 373.289 64.8617 374.689C114.652 378.809 139.192 363.889 139.192 363.889C142.602 342.169 145.022 336.639 173.472 324.889C173.472 324.889 137.472 327.739 130.252 324.889C123.032 322.039 61.0017 324.069 61.0017 324.069Z" fill="url(#paint31_linear)"/>
<path d="M104.212 320.919C104.212 320.919 122.832 303.199 131.992 291.459C134.431 288.329 136.086 284.661 136.82 280.761C137.555 276.861 137.346 272.842 136.212 269.039C132.032 254.939 124.592 240.339 123.912 238.039C122.882 234.589 102.002 234.729 102.002 234.729C102.002 234.729 60.9317 261.389 44.7917 306.549L62.9117 312.189C62.9117 312.189 73.6417 294.189 84.2417 282.759C84.2417 282.759 65.9017 306.979 65.2417 316.899L104.212 320.919Z" fill="url(#paint32_linear)"/>
<path d="M126.442 218.609C126.222 219.329 120.772 237.389 120.352 237.769C119.932 238.149 108.402 238.759 103.002 235.059L114.072 210.569L126.442 218.609Z" fill="url(#paint33_linear)"/>
<path d="M141.422 198.319C141.422 198.319 145.302 207.319 140.742 220.899C136.182 234.479 128.742 235.709 124.022 232.339C119.302 228.969 113.192 222.989 112.432 210.609C111.672 198.229 136.082 186.989 141.422 198.319Z" fill="url(#paint34_linear)"/>
<path d="M121.632 209.809C121.632 209.809 129.862 191.379 142.212 202.859L143.162 207.609C143.162 207.609 154.922 204.259 151.052 193.609C147.182 182.959 133.142 175.729 120.572 182.609C108.002 189.489 103.722 197.609 104.402 207.349C105.082 217.089 112.342 213.719 112.342 213.719C112.342 213.719 113.742 206.589 117.152 205.329C120.562 204.069 120.502 209.459 120.502 209.459L121.632 209.809Z" fill="url(#paint35_linear)"/>
<path d="M118.802 210.039C118.802 210.039 123.092 200.589 117.092 200.239C111.092 199.889 113.532 209.359 114.722 212.799L118.802 210.039Z" fill="url(#paint36_linear)"/>
<path d="M139.682 327.919L125.682 312.699L109.532 317.049C109.532 317.049 90.7017 319.969 79.9217 317.049L69.1417 314.129L44.7817 306.549L41.0017 317.359C40.5323 318.695 40.5106 320.148 40.94 321.498C41.3694 322.847 42.2265 324.02 43.3817 324.839C45.3227 326.288 47.3835 327.57 49.5417 328.669C52.7417 330.069 123.432 329.109 123.432 329.109L139.682 327.919Z" fill="url(#paint37_linear)"/>
<path d="M115.402 189.459C116.162 189.344 116.876 189.022 117.467 188.529C118.057 188.036 118.501 187.39 118.75 186.662C119 185.935 119.045 185.153 118.881 184.401C118.718 183.65 118.351 182.957 117.822 182.399C110.442 174.329 96.5016 165.399 76.6416 179.119C54.2716 194.589 42.1716 201.589 36.6416 200.119C35.8529 199.889 35.0142 199.892 34.2274 200.13C33.4407 200.367 32.7399 200.828 32.2102 201.456C31.6804 202.084 31.3447 202.853 31.2438 203.668C31.1428 204.484 31.2811 205.311 31.6416 206.049C32.9016 208.509 35.4716 211.049 40.2116 213.419C76.7616 231.459 95.6716 191.869 115.402 189.459Z" fill="url(#paint38_linear)"/>
<path d="M93.3817 333.989H93.5317L157.872 333.919C158.635 333.919 159.368 333.616 159.908 333.076C160.448 332.536 160.752 331.803 160.752 331.039C160.752 330.276 160.448 329.543 159.908 329.003C159.368 328.463 158.635 328.159 157.872 328.159L93.5317 328.229C92.7678 328.211 92.0279 328.496 91.4747 329.023C90.9215 329.55 90.6002 330.276 90.5817 331.039C90.5631 331.803 90.8487 332.543 91.3757 333.096C91.9027 333.65 92.6278 333.971 93.3917 333.989H93.3817Z" fill="url(#paint39_linear)"/>
<path d="M215.702 275.529H162.122C160.187 275.529 158.291 276.078 156.657 277.114C155.023 278.15 153.717 279.629 152.892 281.379L128.122 333.909H194.702C195.947 333.909 197.163 333.535 198.192 332.834C199.221 332.133 200.016 331.138 200.472 329.979L219.682 281.379C219.937 280.73 220.031 280.029 219.954 279.336C219.876 278.642 219.631 277.978 219.239 277.402C218.846 276.825 218.319 276.353 217.702 276.027C217.086 275.7 216.399 275.53 215.702 275.529Z" fill="url(#paint40_linear)"/>
<path d="M178.002 302.459C176.832 306.059 177.692 309.569 179.912 310.279C182.132 310.989 184.912 308.649 186.032 305.039C187.152 301.429 186.342 297.929 184.122 297.219C181.902 296.509 179.122 298.849 178.002 302.459Z" fill="#39122E"/>
<path d="M903.702 508.779C908.302 509.179 916.272 509.779 922.552 510.099C926.332 510.259 928.552 509.889 929.762 509.389C929.762 509.529 929.762 509.669 929.762 509.789C929.742 510.111 929.605 510.414 929.376 510.641C929.148 510.868 928.843 511.003 928.522 511.019C920.301 511.482 912.062 511.482 903.842 511.019C903.683 511.012 903.528 510.964 903.393 510.88C903.258 510.795 903.148 510.677 903.072 510.537C902.997 510.397 902.959 510.24 902.962 510.081C902.966 509.922 903.01 509.766 903.092 509.629C903.276 509.333 903.479 509.049 903.702 508.779Z" fill="url(#paint41_linear)"/>
<path d="M922.552 510.099C916.272 509.819 908.302 509.18 903.702 508.78C908.222 503.24 922.552 499.5 922.552 499.5H926.602C928.661 502.386 929.765 505.844 929.762 509.389C928.512 509.889 926.332 510.259 922.552 510.099Z" fill="url(#paint42_linear)"/>
<path d="M927.282 492.889L926.912 500.389C926.89 500.786 926.732 501.164 926.464 501.457C926.196 501.751 925.835 501.942 925.442 501.999C924.436 502.148 923.409 502.062 922.442 501.749C922.079 501.651 921.752 501.452 921.498 501.176C921.243 500.9 921.071 500.558 921.002 500.189L919.692 492.889H927.282Z" fill="url(#paint43_linear)"/>
<path d="M979.872 510.04C980.596 510.008 981.294 509.76 981.876 509.329C982.459 508.898 982.9 508.303 983.142 507.62C983.26 508.239 983.149 508.88 982.829 509.423C982.509 509.966 982.001 510.374 981.402 510.57C979.863 511.173 978.211 511.432 976.562 511.33C975.886 511.321 975.22 511.171 974.607 510.889C973.994 510.606 973.447 510.198 973.002 509.69C974.442 510.42 976.552 510.51 979.872 510.04Z" fill="url(#paint44_linear)"/>
<path d="M970.482 492.849H973.822C978.902 492.739 982.102 503.469 983.142 507.619C982.899 508.303 982.459 508.898 981.876 509.329C981.294 509.76 980.596 510.007 979.872 510.039C976.552 510.509 974.442 510.419 972.942 509.679C970.192 506.059 968.832 500.759 968.182 497.679C967.944 496.733 968.043 495.732 968.463 494.851C968.883 493.969 969.597 493.262 970.482 492.849Z" fill="url(#paint45_linear)"/>
<path d="M973.392 485.889L975.242 493.259C975.355 493.695 975.318 494.156 975.136 494.568C974.955 494.98 974.64 495.319 974.242 495.529C973.074 496.193 971.744 496.516 970.402 496.459C970.093 496.418 969.802 496.291 969.562 496.093C969.322 495.895 969.142 495.634 969.042 495.339L966.322 487.589L973.392 485.889Z" fill="url(#paint46_linear)"/>
<path d="M975.602 487.989C973.292 489.989 965.792 490.299 965.792 490.299C938.792 425.439 927.712 416.219 927.712 416.219C931.612 440.709 928.342 494.909 928.342 494.909C923.882 496.909 918.132 494.909 918.132 494.909C917.799 460.27 913.164 425.806 904.332 392.309C922.592 391.899 932.332 385.649 935.482 383.139C950.712 407.719 975.602 487.989 975.602 487.989Z" fill="url(#paint47_linear)"/>
<path d="M930.842 308.579C934.302 325.819 933.062 356.689 932.242 370.769C932.022 374.769 934.782 380.209 937.012 383.959C937.095 384.097 937.15 384.25 937.171 384.41C937.193 384.57 937.181 384.732 937.137 384.887C937.093 385.042 937.017 385.186 936.915 385.31C936.812 385.435 936.685 385.536 936.542 385.609C932.802 387.529 920.132 393.479 905.462 394.219C904.985 394.239 904.515 394.096 904.131 393.812C903.748 393.528 903.472 393.121 903.352 392.659C892.462 351.989 879.822 325.989 879.822 325.989C893.782 303.729 930.842 308.579 930.842 308.579Z" fill="url(#paint48_linear)"/>
<path d="M925.862 414.719C926.021 414.721 926.178 414.676 926.312 414.589C926.409 414.531 926.495 414.454 926.562 414.362C926.63 414.27 926.679 414.166 926.706 414.055C926.733 413.944 926.737 413.829 926.719 413.717C926.702 413.604 926.661 413.496 926.602 413.399C923.922 409.403 920.225 406.192 915.892 404.099C915.788 404.036 915.672 403.995 915.551 403.979C915.431 403.962 915.308 403.972 915.191 404.006C915.074 404.041 914.966 404.099 914.873 404.178C914.78 404.257 914.705 404.354 914.653 404.464C914.6 404.574 914.571 404.693 914.567 404.815C914.563 404.937 914.585 405.058 914.631 405.17C914.678 405.283 914.747 405.385 914.835 405.469C914.923 405.553 915.027 405.618 915.142 405.659C919.167 407.624 922.613 410.602 925.142 414.299C925.218 414.423 925.323 414.527 925.449 414.6C925.574 414.673 925.716 414.714 925.862 414.719Z" fill="url(#paint49_linear)"/>
<path d="M952.532 358.069C951.422 366.069 948.142 374.869 941.532 384.179L939.042 382.179C940.816 373.969 941.235 365.525 940.282 357.179C944.372 356.399 949.152 357.219 952.532 358.069Z" fill="url(#paint50_linear)"/>
<path d="M927.002 329.859L930.862 308.579C930.862 308.579 956.662 328.299 952.552 358.069C949.172 357.219 944.392 356.399 940.342 357.189C939.142 347.639 935.622 337.269 927.002 329.859Z" fill="url(#paint51_linear)"/>
<path d="M879.822 325.99L889.822 347.439C888.212 360.389 881.252 365.989 873.752 368.139C873.387 363.324 872.256 358.598 870.402 354.139C880.002 344.309 879.822 325.99 879.822 325.99Z" fill="url(#paint52_linear)"/>
<path d="M870.362 354.209C872.216 358.668 873.347 363.394 873.712 368.209C853.712 375.969 848.402 360.909 848.402 360.909L852.102 360.259C860.452 361.109 866.292 358.419 870.362 354.209Z" fill="url(#paint53_linear)"/>
<path d="M889.002 299.549L893.812 317.219C893.938 317.688 894.162 318.126 894.469 318.502C894.777 318.878 895.161 319.184 895.596 319.401C896.031 319.617 896.507 319.739 896.992 319.757C897.478 319.776 897.961 319.692 898.412 319.509C900.777 318.583 903.091 317.528 905.342 316.349C905.912 316.044 906.412 315.623 906.809 315.113C907.206 314.603 907.492 314.015 907.649 313.387C907.805 312.76 907.828 312.107 907.717 311.47C907.605 310.833 907.362 310.226 907.002 309.689L897.002 294.779L889.002 299.549Z" fill="url(#paint54_linear)"/>
<path d="M839.232 349.049L962.442 393.899C963.663 394.345 964.779 395.038 965.72 395.936C966.661 396.833 967.407 397.915 967.91 399.114C968.413 400.313 968.663 401.603 968.645 402.903C968.626 404.203 968.339 405.485 967.802 406.669L967.422 407.489C966.943 408.541 966.261 409.489 965.415 410.276C964.569 411.064 963.576 411.677 962.492 412.079C961.408 412.481 960.256 412.666 959.101 412.621C957.946 412.576 956.811 412.304 955.762 411.819L836.132 356.469L839.232 349.049Z" fill="url(#paint55_linear)"/>
<path opacity="0.5" d="M782.602 381.799C816.192 381.799 843.422 355.062 843.422 322.079C843.422 289.097 816.192 262.359 782.602 262.359C749.012 262.359 721.782 289.097 721.782 322.079C721.782 355.062 749.012 381.799 782.602 381.799Z" fill="url(#paint56_linear)"/>
<path d="M714.922 322.079C714.922 358.779 745.222 388.539 782.602 388.539C819.982 388.539 850.282 358.779 850.282 322.079C850.282 285.379 820.002 255.619 782.602 255.619C745.202 255.619 714.922 285.379 714.922 322.079ZM724.862 322.079C724.862 290.769 750.712 265.389 782.602 265.389C814.492 265.389 840.342 290.769 840.342 322.079C840.342 353.389 814.492 378.769 782.602 378.769C750.712 378.769 724.862 353.389 724.862 322.079Z" fill="url(#paint57_linear)"/>
<path d="M845.132 330.239C845.082 330.234 845.034 330.219 844.99 330.195C844.946 330.172 844.908 330.139 844.877 330.1C844.846 330.06 844.824 330.015 844.811 329.967C844.798 329.919 844.795 329.869 844.802 329.819C845.002 328.269 845.142 326.689 845.222 325.119C845.223 325.069 845.234 325.019 845.255 324.974C845.276 324.928 845.307 324.887 845.344 324.853C845.381 324.819 845.425 324.794 845.473 324.778C845.521 324.761 845.571 324.755 845.622 324.759C845.672 324.762 845.72 324.774 845.766 324.796C845.811 324.817 845.851 324.847 845.885 324.885C845.918 324.922 845.944 324.965 845.96 325.012C845.977 325.059 845.984 325.109 845.982 325.159C845.902 326.749 845.762 328.349 845.562 329.919C845.544 330.017 845.49 330.105 845.41 330.165C845.33 330.224 845.231 330.251 845.132 330.239ZM844.672 311.649C844.582 311.651 844.494 311.621 844.425 311.564C844.355 311.507 844.308 311.428 844.292 311.339C843.534 307.116 842.327 302.986 840.692 299.019C835.927 287.562 827.856 277.786 817.509 270.937C807.163 264.088 795.009 260.479 782.602 260.569C770.721 260.558 759.076 263.891 749.002 270.189C748.959 270.216 748.911 270.234 748.862 270.243C748.812 270.252 748.761 270.25 748.712 270.239C748.663 270.228 748.616 270.207 748.575 270.178C748.534 270.149 748.499 270.112 748.472 270.069C748.445 270.027 748.426 269.979 748.418 269.929C748.409 269.88 748.411 269.829 748.422 269.779C748.433 269.73 748.454 269.684 748.483 269.642C748.512 269.601 748.549 269.566 748.592 269.539C758.803 263.164 770.603 259.792 782.642 259.809C795.2 259.718 807.5 263.372 817.972 270.304C828.443 277.237 836.611 287.133 841.432 298.729C843.067 302.749 844.264 306.933 845.002 311.209C845.01 311.259 845.009 311.309 844.998 311.358C844.987 311.407 844.967 311.453 844.938 311.494C844.909 311.535 844.873 311.569 844.83 311.596C844.788 311.623 844.741 311.641 844.692 311.649H844.672Z" fill="white"/>
<path d="M878.472 286.119C878.472 286.419 882.472 306.289 882.472 306.289L893.772 303.729L892.772 284.329C892.772 284.329 879.212 281.039 878.472 286.119Z" fill="url(#paint58_linear)"/>
<path d="M890.192 288.659L891.542 298.829C891.562 298.959 891.562 299.09 891.542 299.219C891.432 300.009 890.832 302.729 888.102 301.949C885.612 301.249 883.332 300.639 881.762 301.119C881.417 301.22 881.123 301.447 880.938 301.754C880.752 302.062 880.69 302.428 880.762 302.779C881.39 305.928 882.26 309.024 883.362 312.039C883.494 312.372 883.746 312.642 884.068 312.798C884.39 312.953 884.759 312.982 885.102 312.879C888.566 311.915 891.905 310.549 895.052 308.809C895.273 308.676 895.454 308.486 895.577 308.26C895.7 308.033 895.76 307.777 895.752 307.519C895.642 304.949 895.342 297.149 895.592 294.959C895.842 292.769 898.352 291.669 899.452 291.229C899.629 291.161 899.79 291.056 899.924 290.922C900.059 290.788 900.163 290.627 900.232 290.449C900.742 289.179 901.442 286.239 897.732 285.029C897.549 284.97 897.38 284.874 897.235 284.748C897.09 284.622 896.972 284.469 896.887 284.296C896.802 284.124 896.753 283.936 896.741 283.744C896.73 283.553 896.758 283.361 896.822 283.179C897.372 281.649 897.602 279.319 894.742 278.029C893.677 277.551 892.484 277.44 891.349 277.713C890.214 277.987 889.202 278.629 888.472 279.539C888.242 279.784 887.934 279.939 887.602 279.979C887.269 280.02 886.933 279.942 886.652 279.759C886.462 279.628 886.237 279.557 886.007 279.557C885.776 279.557 885.551 279.628 885.362 279.759C885.193 279.861 885.005 279.926 884.81 279.951C884.615 279.975 884.417 279.959 884.229 279.902C884.041 279.846 883.866 279.751 883.717 279.623C883.567 279.495 883.446 279.337 883.362 279.159C882.963 278.216 882.239 277.447 881.322 276.992C880.404 276.537 879.354 276.426 878.362 276.679C873.302 277.539 872.732 283.149 874.072 286.439C875.412 289.729 880.832 288.439 883.562 286.819C885.632 285.559 888.322 286.879 889.492 287.579C889.685 287.692 889.849 287.848 889.971 288.036C890.093 288.223 890.168 288.437 890.192 288.659Z" fill="url(#paint59_linear)"/>
<path d="M896.062 298.669C896.062 298.669 893.982 292.839 896.122 291.409C898.262 289.979 901.422 290.729 900.722 294.949C899.862 300.199 896.062 298.669 896.062 298.669Z" fill="url(#paint60_linear)"/>
<path d="M940.102 381.789L928.462 380.789L923.412 385.439C923.412 385.439 924.612 387.089 928.342 386.139C931.25 385.499 934.207 385.104 937.182 384.959C937.182 384.959 942.332 387.279 942.392 382.959L940.102 381.789Z" fill="url(#paint61_linear)"/>
<path d="M849.892 363.639C848.892 364.419 845.432 362.779 843.322 361.639C842.821 361.374 842.429 360.941 842.214 360.417C841.998 359.893 841.973 359.31 842.142 358.769C842.652 357.169 843.502 355.099 844.542 354.839C846.272 354.409 854.002 360.389 849.892 363.639Z" fill="url(#paint62_linear)"/>
<path d="M960.002 409.989C959.911 409.991 959.822 409.961 959.752 409.903C959.682 409.846 959.634 409.765 959.619 409.675C959.603 409.586 959.62 409.494 959.666 409.415C959.713 409.337 959.785 409.278 959.872 409.249C963.382 408.039 965.222 406.069 965.332 403.399C965.363 402.045 964.97 400.714 964.208 399.593C963.446 398.473 962.353 397.618 961.082 397.149L946.292 391.379C946.239 391.366 946.191 391.341 946.149 391.307C946.107 391.274 946.072 391.231 946.048 391.183C946.024 391.135 946.01 391.082 946.007 391.028C946.005 390.974 946.014 390.921 946.034 390.87C946.054 390.82 946.085 390.775 946.124 390.738C946.163 390.7 946.209 390.672 946.26 390.654C946.311 390.635 946.365 390.628 946.418 390.633C946.472 390.637 946.524 390.653 946.572 390.679L961.362 396.449C962.783 396.974 964.005 397.932 964.853 399.188C965.702 400.444 966.135 401.934 966.092 403.449C965.962 406.449 963.952 408.659 960.092 409.989H960.002Z" fill="white"/>
<path d="M941.882 389.659H941.742L939.832 388.909C939.741 388.871 939.668 388.799 939.629 388.709C939.59 388.618 939.588 388.516 939.623 388.424C939.658 388.331 939.728 388.256 939.817 388.215C939.906 388.173 940.008 388.167 940.102 388.199L942.022 388.949C942.114 388.987 942.188 389.06 942.227 389.151C942.266 389.243 942.268 389.346 942.232 389.439C942.202 389.507 942.153 389.564 942.09 389.603C942.028 389.642 941.955 389.662 941.882 389.659Z" fill="white"/>
<defs>
<linearGradient id="paint0_linear" x1="296.68" y1="527.36" x2="886.717" y2="214.504" gradientUnits="userSpaceOnUse">
<stop stop-color="#663A57" stop-opacity="0.6"/>
<stop offset="1" stop-color="#956684" stop-opacity="0.6"/>
</linearGradient>
<linearGradient id="paint1_linear" x1="192942" y1="214085" x2="457434" y2="-92716.4" gradientUnits="userSpaceOnUse">
<stop stop-color="#663A57" stop-opacity="0.6"/>
<stop offset="1" stop-color="#956684" stop-opacity="0.6"/>
</linearGradient>
<linearGradient id="paint2_linear" x1="340605" y1="144413" x2="267616" y2="144413" gradientUnits="userSpaceOnUse">
<stop stop-color="#663A57" stop-opacity="0.6"/>
<stop offset="1" stop-color="#956684" stop-opacity="0.6"/>
</linearGradient>
<linearGradient id="paint3_linear" x1="466196" y1="168265" x2="654203" y2="-36452.2" gradientUnits="userSpaceOnUse">
<stop stop-color="#663A57" stop-opacity="0.6"/>
<stop offset="1" stop-color="#956684" stop-opacity="0.6"/>
</linearGradient>
<linearGradient id="paint4_linear" x1="1100.64" y1="439.13" x2="672.834" y2="439.13" gradientUnits="userSpaceOnUse">
<stop stop-color="#663A57"/>
<stop offset="1" stop-color="#956684"/>
</linearGradient>
<linearGradient id="paint5_linear" x1="17236.6" y1="136861" x2="55663.9" y2="93601.5" gradientUnits="userSpaceOnUse">
<stop stop-color="#663A57" stop-opacity="0.6"/>
<stop offset="1" stop-color="#956684" stop-opacity="0.6"/>
</linearGradient>
<linearGradient id="paint6_linear" x1="6903.57" y1="153841" x2="56572.8" y2="153841" gradientUnits="userSpaceOnUse">
<stop stop-color="#663A57" stop-opacity="0.6"/>
<stop offset="1" stop-color="#956684" stop-opacity="0.6"/>
</linearGradient>
<linearGradient id="paint7_linear" x1="430.622" y1="258.749" x2="303.132" y2="501.739" gradientUnits="userSpaceOnUse">
<stop stop-color="#F18434"/>
<stop offset="1" stop-color="#BC5817"/>
</linearGradient>
<linearGradient id="paint8_linear" x1="21167.6" y1="6854.09" x2="17428.1" y2="12002.3" gradientUnits="userSpaceOnUse">
<stop stop-color="#F18434"/>
<stop offset="1" stop-color="#BC5817"/>
</linearGradient>
<linearGradient id="paint9_linear" x1="387.172" y1="411.519" x2="455.522" y2="411.519" gradientUnits="userSpaceOnUse">
<stop stop-color="#663A57"/>
<stop offset="1" stop-color="#39122E"/>
</linearGradient>
<linearGradient id="paint10_linear" x1="33974.4" y1="24936" x2="26067.2" y2="29067.2" gradientUnits="userSpaceOnUse">
<stop stop-color="#F18434"/>
<stop offset="1" stop-color="#BC5817"/>
</linearGradient>
<linearGradient id="paint11_linear" x1="23237.8" y1="2140.44" x2="22974.2" y2="3767.48" gradientUnits="userSpaceOnUse">
<stop stop-color="#663A57"/>
<stop offset="1" stop-color="#39122E"/>
</linearGradient>
<linearGradient id="paint12_linear" x1="774.682" y1="259.869" x2="736.012" y2="331.2" gradientUnits="userSpaceOnUse">
<stop stop-color="#F7EA4A"/>
<stop offset="1" stop-color="#D93D66"/>
</linearGradient>
<linearGradient id="paint13_linear" x1="55559.9" y1="21646.2" x2="46488.3" y2="27789.9" gradientUnits="userSpaceOnUse">
<stop stop-color="#663A57"/>
<stop offset="1" stop-color="#39122E"/>
</linearGradient>
<linearGradient id="paint14_linear" x1="35319.3" y1="19773.3" x2="37750.6" y2="19773.3" gradientUnits="userSpaceOnUse">
<stop stop-color="#F18434"/>
<stop offset="1" stop-color="#BC5817"/>
</linearGradient>
<linearGradient id="paint15_linear" x1="23910.6" y1="21640.6" x2="14840.4" y2="27783.6" gradientUnits="userSpaceOnUse">
<stop stop-color="#663A57"/>
<stop offset="1" stop-color="#39122E"/>
</linearGradient>
<linearGradient id="paint16_linear" x1="52776.2" y1="27265.1" x2="21919.7" y2="46181.1" gradientUnits="userSpaceOnUse">
<stop stop-color="#663A57"/>
<stop offset="1" stop-color="#39122E"/>
</linearGradient>
<linearGradient id="paint17_linear" x1="40320" y1="5297.06" x2="38763.6" y2="8752.28" gradientUnits="userSpaceOnUse">
<stop stop-color="#F7EA4A"/>
<stop offset="1" stop-color="#D93D66"/>
</linearGradient>
<linearGradient id="paint18_linear" x1="37840.3" y1="1978.89" x2="37654.3" y2="3223.31" gradientUnits="userSpaceOnUse">
<stop stop-color="#F7EA4A"/>
<stop offset="1" stop-color="#D93D66"/>
</linearGradient>
<linearGradient id="paint19_linear" x1="69059" y1="28167.3" x2="50009.3" y2="46260.1" gradientUnits="userSpaceOnUse">
<stop stop-color="#663A57"/>
<stop offset="1" stop-color="#39122E"/>
</linearGradient>
<linearGradient id="paint20_linear" x1="61008.9" y1="7547.11" x2="19575.8" y2="33550.6" gradientUnits="userSpaceOnUse">
<stop stop-color="#F18434"/>
<stop offset="1" stop-color="#BC5817"/>
</linearGradient>
<linearGradient id="paint21_linear" x1="171079" y1="3517.56" x2="951598" y2="3517.56" gradientUnits="userSpaceOnUse">
<stop stop-color="#663A57"/>
<stop offset="1" stop-color="#39122E"/>
</linearGradient>
<linearGradient id="paint22_linear" x1="997478" y1="5263.41" x2="996175" y2="10770.4" gradientUnits="userSpaceOnUse">
<stop stop-color="#663A57"/>
<stop offset="1" stop-color="#39122E"/>
</linearGradient>
<linearGradient id="paint23_linear" x1="-297931" y1="7386.53" x2="-316293" y2="22527.4" gradientUnits="userSpaceOnUse">
<stop stop-color="#F18434"/>
<stop offset="1" stop-color="#BC5817"/>
</linearGradient>
<linearGradient id="paint24_linear" x1="549392" y1="11701.6" x2="549375" y2="15174.8" gradientUnits="userSpaceOnUse">
<stop stop-color="#663A57"/>
<stop offset="1" stop-color="#39122E"/>
</linearGradient>
<linearGradient id="paint25_linear" x1="209.982" y1="380.879" x2="39.3917" y2="488.309" gradientUnits="userSpaceOnUse">
<stop stop-color="#937DB9"/>
<stop offset="1" stop-color="#DA99C4"/>
</linearGradient>
<linearGradient id="paint26_linear" x1="12.0016" y1="449.119" x2="195.892" y2="449.119" gradientUnits="userSpaceOnUse">
<stop stop-color="#7C4997"/>
<stop offset="1" stop-color="#EA4B7B"/>
</linearGradient>
<linearGradient id="paint27_linear" x1="252.152" y1="350.719" x2="152.682" y2="407.499" gradientUnits="userSpaceOnUse">
<stop stop-color="#F9B877"/>
<stop offset="1" stop-color="#EF7A62"/>
</linearGradient>
<linearGradient id="paint28_linear" x1="225.215" y1="419.369" x2="180.572" y2="528.112" gradientUnits="userSpaceOnUse">
<stop stop-color="#CC246E"/>
<stop offset="1" stop-color="#4C266C"/>
</linearGradient>
<linearGradient id="paint29_linear" x1="-26170.6" y1="28181.9" x2="13706.1" y2="10891.4" gradientUnits="userSpaceOnUse">
<stop stop-color="#F9B877"/>
<stop offset="1" stop-color="#EF7A62"/>
</linearGradient>
<linearGradient id="paint30_linear" x1="-209364" y1="-51250.8" x2="-211804" y2="-47578.3" gradientUnits="userSpaceOnUse">
<stop stop-color="#CC246E"/>
<stop offset="1" stop-color="#4C266C"/>
</linearGradient>
<linearGradient id="paint31_linear" x1="-795194" y1="13492.7" x2="-795585" y2="9888.72" gradientUnits="userSpaceOnUse">
<stop stop-color="#663A57"/>
<stop offset="1" stop-color="#39122E"/>
</linearGradient>
<linearGradient id="paint32_linear" x1="-33383.9" y1="6293.94" x2="-53597" y2="27209.4" gradientUnits="userSpaceOnUse">
<stop stop-color="#F18434"/>
<stop offset="1" stop-color="#BC5817"/>
</linearGradient>
<linearGradient id="paint33_linear" x1="-138860" y1="2704.1" x2="-138644" y2="1522.42" gradientUnits="userSpaceOnUse">
<stop stop-color="#F9B877"/>
<stop offset="1" stop-color="#EF7A62"/>
</linearGradient>
<linearGradient id="paint34_linear" x1="-186506" y1="-45460.5" x2="-188163" y2="-45952.2" gradientUnits="userSpaceOnUse">
<stop stop-color="#F9B877"/>
<stop offset="1" stop-color="#EF7A62"/>
</linearGradient>
<linearGradient id="paint35_linear" x1="-246639" y1="-125811" x2="-247282" y2="-121735" gradientUnits="userSpaceOnUse">
<stop stop-color="#663A57"/>
<stop offset="1" stop-color="#39122E"/>
</linearGradient>
<linearGradient id="paint36_linear" x1="-44192.1" y1="-3100.9" x2="-44579.8" y2="-3264.33" gradientUnits="userSpaceOnUse">
<stop stop-color="#F9B877"/>
<stop offset="1" stop-color="#EF7A62"/>
</linearGradient>
<linearGradient id="paint37_linear" x1="-609820" y1="3647.18" x2="-619635" y2="3647.18" gradientUnits="userSpaceOnUse">
<stop stop-color="#F9B877"/>
<stop offset="1" stop-color="#EF7A62"/>
</linearGradient>
<linearGradient id="paint38_linear" x1="-461471" y1="-242098" x2="-462802" y2="-235659" gradientUnits="userSpaceOnUse">
<stop stop-color="#663A57"/>
<stop offset="1" stop-color="#39122E"/>
</linearGradient>
<linearGradient id="paint39_linear" x1="-425390" y1="-18039.2" x2="-425116" y2="-16937" gradientUnits="userSpaceOnUse">
<stop stop-color="#663A57"/>
<stop offset="1" stop-color="#39122E"/>
</linearGradient>
<linearGradient id="paint40_linear" x1="-558321" y1="6777.3" x2="-556421" y2="9935.97" gradientUnits="userSpaceOnUse">
<stop stop-color="#663A57"/>
<stop offset="1" stop-color="#39122E"/>
</linearGradient>
<linearGradient id="paint41_linear" x1="929.762" y1="510.079" x2="902.942" y2="510.079" gradientUnits="userSpaceOnUse">
<stop stop-color="#6CC9F0"/>
<stop offset="1" stop-color="#3C519F"/>
</linearGradient>
<linearGradient id="paint42_linear" x1="929.762" y1="504.819" x2="903.702" y2="504.819" gradientUnits="userSpaceOnUse">
<stop stop-color="#2A3780"/>
<stop offset="1" stop-color="#201D3F"/>
</linearGradient>
<linearGradient id="paint43_linear" x1="23395.9" y1="3481.11" x2="23338.6" y2="3481.11" gradientUnits="userSpaceOnUse">
<stop stop-color="#F9B877"/>
<stop offset="1" stop-color="#EF7A62"/>
</linearGradient>
<linearGradient id="paint44_linear" x1="-35730.2" y1="1767.13" x2="-35625.5" y2="1767.13" gradientUnits="userSpaceOnUse">
<stop stop-color="#6CC9F0"/>
<stop offset="1" stop-color="#3C519F"/>
</linearGradient>
<linearGradient id="paint45_linear" x1="-53389.9" y1="6254.38" x2="-53162.3" y2="6254.38" gradientUnits="userSpaceOnUse">
<stop stop-color="#2A3780"/>
<stop offset="1" stop-color="#201D3F"/>
</linearGradient>
<linearGradient id="paint46_linear" x1="28725.9" y1="3861.84" x2="28644.8" y2="3861.84" gradientUnits="userSpaceOnUse">
<stop stop-color="#F9B877"/>
<stop offset="1" stop-color="#EF7A62"/>
</linearGradient>
<linearGradient id="paint47_linear" x1="254211" y1="39316.9" x2="241470" y2="30197.2" gradientUnits="userSpaceOnUse">
<stop stop-color="#663A57"/>
<stop offset="1" stop-color="#39122E"/>
</linearGradient>
<linearGradient id="paint48_linear" x1="196224" y1="11565.1" x2="211831" y2="20609.5" gradientUnits="userSpaceOnUse">
<stop stop-color="#F18434"/>
<stop offset="1" stop-color="#BC5817"/>
</linearGradient>
<linearGradient id="paint49_linear" x1="39837.7" y1="3475.57" x2="39794.8" y2="3378.35" gradientUnits="userSpaceOnUse">
<stop stop-color="#663A57"/>
<stop offset="1" stop-color="#39122E"/>
</linearGradient>
<linearGradient id="paint50_linear" x1="44395.3" y1="5481.4" x2="45044.5" y2="5765.44" gradientUnits="userSpaceOnUse">
<stop stop-color="#F9B877"/>
<stop offset="1" stop-color="#EF7A62"/>
</linearGradient>
<linearGradient id="paint51_linear" x1="87416.2" y1="5836.12" x2="95197.9" y2="9390.8" gradientUnits="userSpaceOnUse">
<stop stop-color="#F18434"/>
<stop offset="1" stop-color="#BC5817"/>
</linearGradient>
<linearGradient id="paint52_linear" x1="63843" y1="6602.97" x2="69897.5" y2="9029.2" gradientUnits="userSpaceOnUse">
<stop stop-color="#F18434"/>
<stop offset="1" stop-color="#BC5817"/>
</linearGradient>
<linearGradient id="paint53_linear" x1="84968.2" y1="3441.36" x2="84327.6" y2="3441.36" gradientUnits="userSpaceOnUse">
<stop stop-color="#F9B877"/>
<stop offset="1" stop-color="#EF7A62"/>
</linearGradient>
<linearGradient id="paint54_linear" x1="62591.3" y1="3359.41" x2="62600.2" y2="4539.97" gradientUnits="userSpaceOnUse">
<stop stop-color="#F9B877"/>
<stop offset="1" stop-color="#EF7A62"/>
</linearGradient>
<linearGradient id="paint55_linear" x1="-474704" y1="13627.4" x2="-457143" y2="13627.4" gradientUnits="userSpaceOnUse">
<stop stop-color="#2A3780"/>
<stop offset="1" stop-color="#201D3F"/>
</linearGradient>
<linearGradient id="paint56_linear" x1="417954" y1="18189.1" x2="403158" y2="18189.1" gradientUnits="userSpaceOnUse">
<stop stop-color="#937DB9"/>
<stop offset="1" stop-color="#DA99C4"/>
</linearGradient>
<linearGradient id="paint57_linear" x1="-469016" y1="20205.6" x2="-450693" y2="20205.6" gradientUnits="userSpaceOnUse">
<stop stop-color="#2A3780"/>
<stop offset="1" stop-color="#201D3F"/>
</linearGradient>
<linearGradient id="paint58_linear" x1="50348.7" y1="35529.5" x2="50827" y2="36087.5" gradientUnits="userSpaceOnUse">
<stop stop-color="#F9B877"/>
<stop offset="1" stop-color="#EF7A62"/>
</linearGradient>
<linearGradient id="paint59_linear" x1="93526.2" y1="59020.9" x2="92778.3" y2="58915.1" gradientUnits="userSpaceOnUse">
<stop stop-color="#663A57"/>
<stop offset="1" stop-color="#39122E"/>
</linearGradient>
<linearGradient id="paint60_linear" x1="16593.1" y1="11937.6" x2="16465.3" y2="11815.8" gradientUnits="userSpaceOnUse">
<stop stop-color="#F9B877"/>
<stop offset="1" stop-color="#EF7A62"/>
</linearGradient>
<linearGradient id="paint61_linear" x1="63680.9" y1="1520.75" x2="63791.2" y2="1849.14" gradientUnits="userSpaceOnUse">
<stop stop-color="#F9B877"/>
<stop offset="1" stop-color="#EF7A62"/>
</linearGradient>
<linearGradient id="paint62_linear" x1="27959.2" y1="2045.56" x2="27877.3" y2="2045.56" gradientUnits="userSpaceOnUse">
<stop stop-color="#F9B877"/>
<stop offset="1" stop-color="#EF7A62"/>
</linearGradient>
</defs>
</svg>
