<?xml version="1.0" encoding="utf-8"?>
<!-- Generator: Adobe Illustrator 23.0.1, SVG Export Plug-In . SVG Version: 6.00 Build 0)  -->
<svg version="1.1" id="OBJECTS" xmlns="http://www.w3.org/2000/svg" xmlns:xlink="http://www.w3.org/1999/xlink" x="0px" y="0px"
	 viewBox="0 0 500 206.4" style="enable-background:new 0 0 500 206.4;" xml:space="preserve">
<style type="text/css">
	.st0{fill:#FFFFFF;stroke:#FFFFFF;stroke-width:10;stroke-miterlimit:10;}
	.st1{fill:#5E6AB3;}
	.st2{fill:#FFFFFF;}
	.st3{fill:#454058;}
	.st4{font-family:'ArialMT';}
	.st5{font-size:29px;}
	.st6{fill:#444058;stroke:#FFFFFF;stroke-width:5;stroke-miterlimit:10;}
</style>
<g>
	<path class="st0" d="M412.6,45.1H94.9c-16.2,0-29.4,13.2-29.4,29.4l0,0c0,16.2,13.2,29.4,29.4,29.4h317.7
		c16.2,0,29.4-13.2,29.4-29.4l0,0C442,58.3,428.8,45.1,412.6,45.1z"/>
	<path class="st1" d="M412.6,45.1h-78.1v58.7h78.1c16.2,0,29.4-13.2,29.4-29.4v0C442,58.3,428.8,45.1,412.6,45.1z"/>
	<path class="st2" d="M402.6,91.7c-1.3,1.3-3.5,1.3-4.8,0l-6-6c-2.5,1.6-5.4,2.5-8.6,2.5c-8.8,0-15.9-7.1-15.9-15.9
		c0-8.8,7.1-15.9,15.9-15.9c8.8,0,15.9,7.1,15.9,15.9c0,3.2-0.9,6.1-2.5,8.6l6,6C404,88.2,404,90.4,402.6,91.7z M383.2,60.9
		c-6.3,0-11.4,5.1-11.4,11.4c0,6.3,5.1,11.4,11.4,11.4c6.3,0,11.4-5.1,11.4-11.4C394.6,66,389.5,60.9,383.2,60.9z"/>
	<text transform="matrix(1 0 0 1 99.3423 81.5555)" class="st3 st4 st5">Ex: Avatar</text>
	<polygon class="st6" points="409.2,151.2 351.3,92.5 348.7,174.9 369.3,158.7 380.7,187.9 394.5,182.5 383,153.3 	"/>
</g>
</svg>
